{"glyphs":{"0":{"ha":814,"x_min":0,"x_max":0,"o":"m 407 -14 b 735 475 625 -14 735 148 b 407 977 735 810 625 977 b 79 475 189 977 79 810 b 407 -14 79 148 189 -14 z m 407 111 b 224 475 285 111 224 232 b 407 852 224 727 285 852 b 590 475 529 852 590 727 b 407 111 590 232 529 111 z m 407 373 b 509 475 468 373 509 414 b 407 576 509 536 468 576 b 305 475 346 576 305 536 b 407 373 305 414 346 373 z "},"1":{"ha":814,"x_min":0,"x_max":0,"o":"m 115 0 l 713 0 l 713 129 l 495 129 l 495 963 l 359 963 l 129 882 l 129 745 l 359 823 l 359 129 l 115 129 z "},"2":{"ha":814,"x_min":0,"x_max":0,"o":"m 103 0 l 730 0 l 730 126 l 315 126 l 315 146 b 689 686 567 312 689 491 b 385 977 689 880 589 977 b 72 828 259 977 134 918 l 165 735 b 382 852 222 806 309 852 b 547 686 492 852 547 797 b 103 152 547 496 401 317 z "},"3":{"ha":814,"x_min":0,"x_max":0,"o":"m 349 -14 b 708 258 577 -14 708 85 b 487 508 708 397 619 485 l 487 522 b 688 761 606 554 688 645 b 412 977 688 899 588 977 b 85 842 277 977 168 936 l 178 749 b 397 852 247 817 328 852 b 545 727 492 852 545 806 b 241 529 545 629 455 557 l 258 441 l 279 441 b 566 271 462 441 566 380 b 343 111 566 170 484 111 b 119 149 237 111 174 133 l 102 19 b 349 -14 165 -1 249 -14 z "},"4":{"ha":814,"x_min":0,"x_max":0,"o":"m 50 216 l 532 216 l 532 0 l 669 0 l 669 216 l 760 216 l 760 342 l 669 342 l 669 963 l 532 963 l 532 342 l 214 342 l 326 909 l 186 909 z "},"5":{"ha":814,"x_min":0,"x_max":0,"o":"m 416 -14 b 742 311 623 -14 742 104 b 449 628 742 513 635 628 b 290 602 395 628 342 622 l 297 837 l 681 837 l 681 963 l 161 963 l 148 461 l 224 461 b 401 506 279 491 338 506 b 600 311 528 506 600 435 b 418 111 600 184 534 111 b 235 270 300 111 235 170 l 90 270 b 416 -14 90 90 208 -14 z "},"6":{"ha":814,"x_min":0,"x_max":0,"o":"m 412 -14 b 742 312 619 -14 742 107 b 479 610 742 502 647 610 b 250 453 362 610 277 553 l 237 453 b 667 838 238 699 379 826 l 654 967 b 87 389 271 948 87 757 l 87 330 b 412 -14 87 94 189 -14 z m 417 111 b 232 298 300 111 232 181 b 428 486 232 418 302 486 b 600 312 538 486 600 423 b 417 111 600 186 532 111 z "},"7":{"ha":814,"x_min":0,"x_max":0,"o":"m 303 0 l 452 0 l 783 963 l 76 963 l 76 625 l 216 625 l 216 834 l 590 834 z "},"8":{"ha":814,"x_min":0,"x_max":0,"o":"m 407 -14 b 735 264 616 -14 735 88 b 521 507 735 394 659 479 l 521 517 b 708 732 641 545 708 621 b 407 977 708 887 598 977 b 106 732 216 977 106 887 b 294 517 106 620 173 545 l 294 507 b 79 264 156 479 79 394 b 407 -14 79 88 198 -14 z m 407 111 b 221 271 288 111 221 170 b 407 444 221 380 288 444 b 593 271 526 444 593 380 b 407 111 593 170 526 111 z m 407 574 b 248 705 306 574 248 623 b 407 852 248 799 306 852 b 566 705 508 852 566 799 b 407 574 566 623 508 574 z "},"9":{"ha":814,"x_min":0,"x_max":0,"o":"m 342 343 b 571 500 458 343 544 400 l 583 500 b 153 115 583 254 441 127 l 167 -14 b 734 564 549 5 734 197 l 734 624 b 408 967 734 859 631 967 b 79 642 201 967 79 846 b 342 343 79 452 174 343 z m 393 468 b 221 642 282 468 221 530 b 404 842 221 768 289 842 b 589 655 520 842 589 772 b 393 468 589 536 518 468 z "},"A":{"ha":814,"x_min":0,"x_max":0,"o":"m 31 0 l 173 0 l 236 235 l 578 235 l 641 0 l 783 0 l 505 963 l 309 963 z m 271 363 l 401 846 l 413 846 l 543 363 z "},"Á":{"ha":814,"x_min":0,"x_max":0,"o":"m 31 0 l 173 0 l 236 235 l 578 235 l 641 0 l 783 0 l 505 963 l 309 963 z m 271 363 l 401 846 l 413 846 l 543 363 z m 318 1072 l 475 1072 l 659 1241 l 467 1241 z "},"Ă":{"ha":814,"x_min":0,"x_max":0,"o":"m 31 0 l 173 0 l 236 235 l 578 235 l 641 0 l 783 0 l 505 963 l 309 963 z m 271 363 l 401 846 l 413 846 l 543 363 z m 407 1065 b 661 1261 568 1065 661 1137 l 542 1261 b 407 1157 542 1195 492 1157 b 272 1261 321 1157 272 1195 l 153 1261 b 407 1065 153 1137 246 1065 z "},"Ắ":{"ha":814,"x_min":0,"x_max":0,"o":"m 31 0 l 173 0 l 236 235 l 578 235 l 641 0 l 783 0 l 505 963 l 309 963 z m 271 363 l 401 846 l 413 846 l 543 363 z m 407 1065 b 661 1261 568 1065 661 1137 l 542 1261 b 407 1157 542 1195 492 1157 b 272 1261 321 1157 272 1195 l 153 1261 b 407 1065 153 1137 246 1065 z m 318 1343 l 475 1343 l 659 1512 l 467 1512 z "},"Ặ":{"ha":814,"x_min":0,"x_max":0,"o":"m 31 0 l 173 0 l 236 235 l 578 235 l 641 0 l 783 0 l 505 963 l 309 963 z m 271 363 l 401 846 l 413 846 l 543 363 z m 407 1065 b 661 1261 568 1065 661 1137 l 542 1261 b 407 1157 542 1195 492 1157 b 272 1261 321 1157 272 1195 l 153 1261 b 407 1065 153 1137 246 1065 z m 407 -285 b 498 -194 457 -285 498 -244 b 407 -103 498 -143 457 -103 b 316 -194 357 -103 316 -143 b 407 -285 316 -244 357 -285 z "},"Ằ":{"ha":814,"x_min":0,"x_max":0,"o":"m 31 0 l 173 0 l 236 235 l 578 235 l 641 0 l 783 0 l 505 963 l 309 963 z m 271 363 l 401 846 l 413 846 l 543 363 z m 407 1065 b 661 1261 568 1065 661 1137 l 542 1261 b 407 1157 542 1195 492 1157 b 272 1261 321 1157 272 1195 l 153 1261 b 407 1065 153 1137 246 1065 z m 345 1343 l 503 1343 l 353 1512 l 162 1512 z "},"Ẳ":{"ha":814,"x_min":0,"x_max":0,"o":"m 31 0 l 173 0 l 236 235 l 578 235 l 641 0 l 783 0 l 505 963 l 309 963 z m 271 363 l 401 846 l 413 846 l 543 363 z m 407 1065 b 661 1261 568 1065 661 1137 l 542 1261 b 407 1157 542 1195 492 1157 b 272 1261 321 1157 272 1195 l 153 1261 b 407 1065 153 1137 246 1065 z m 361 1308 l 466 1308 b 486 1332 466 1317 471 1324 b 566 1452 545 1366 566 1398 b 412 1563 566 1526 515 1563 b 241 1512 335 1563 278 1546 l 287 1431 b 398 1460 318 1451 355 1460 b 454 1426 435 1460 454 1447 b 406 1375 454 1411 441 1398 b 361 1322 373 1353 361 1339 z "},"Ẵ":{"ha":814,"x_min":0,"x_max":0,"o":"m 31 0 l 173 0 l 236 235 l 578 235 l 641 0 l 783 0 l 505 963 l 309 963 z m 153 1333 l 271 1333 l 271 1374 b 321 1424 271 1408 288 1424 b 416 1394 344 1424 378 1410 b 547 1356 475 1369 517 1356 b 675 1519 632 1356 675 1411 l 675 1553 l 558 1553 l 558 1512 b 522 1469 558 1483 546 1469 b 422 1503 499 1469 475 1482 b 295 1537 370 1525 332 1537 b 153 1367 200 1537 153 1480 z m 271 363 l 401 846 l 413 846 l 543 363 z m 407 1065 b 661 1261 568 1065 661 1137 l 542 1261 b 407 1157 542 1195 492 1157 b 272 1261 321 1157 272 1195 l 153 1261 b 407 1065 153 1137 246 1065 z "},"Ǎ":{"ha":814,"x_min":0,"x_max":0,"o":"m 31 0 l 173 0 l 236 235 l 578 235 l 641 0 l 783 0 l 505 963 l 309 963 z m 271 363 l 401 846 l 413 846 l 543 363 z m 349 1072 l 465 1072 l 642 1248 l 491 1248 l 407 1150 l 323 1248 l 172 1248 z "},"Â":{"ha":814,"x_min":0,"x_max":0,"o":"m 31 0 l 173 0 l 236 235 l 578 235 l 641 0 l 783 0 l 505 963 l 309 963 z m 271 363 l 401 846 l 413 846 l 543 363 z m 176 1072 l 326 1072 l 410 1169 l 494 1072 l 645 1072 l 469 1248 l 352 1248 z "},"Ấ":{"ha":814,"x_min":0,"x_max":0,"o":"m 31 0 l 173 0 l 236 235 l 578 235 l 641 0 l 783 0 l 505 963 l 309 963 z m 271 363 l 401 846 l 413 846 l 543 363 z m 176 1072 l 326 1072 l 410 1169 l 494 1072 l 645 1072 l 469 1248 l 352 1248 z m 556 1240 l 713 1240 l 897 1409 l 705 1409 z "},"Ậ":{"ha":814,"x_min":0,"x_max":0,"o":"m 31 0 l 173 0 l 236 235 l 578 235 l 641 0 l 783 0 l 505 963 l 309 963 z m 271 363 l 401 846 l 413 846 l 543 363 z m 176 1072 l 326 1072 l 410 1169 l 494 1072 l 645 1072 l 469 1248 l 352 1248 z m 407 -285 b 498 -194 457 -285 498 -244 b 407 -103 498 -143 457 -103 b 316 -194 357 -103 316 -143 b 407 -285 316 -244 357 -285 z "},"Ầ":{"ha":814,"x_min":0,"x_max":0,"o":"m 31 0 l 173 0 l 236 235 l 578 235 l 641 0 l 783 0 l 505 963 l 309 963 z m 271 363 l 401 846 l 413 846 l 543 363 z m 176 1072 l 326 1072 l 410 1169 l 494 1072 l 645 1072 l 469 1248 l 352 1248 z m 583 1240 l 741 1240 l 591 1409 l 400 1409 z "},"Ẩ":{"ha":814,"x_min":0,"x_max":0,"o":"m 31 0 l 173 0 l 236 235 l 578 235 l 641 0 l 783 0 l 505 963 l 309 963 z m 271 363 l 401 846 l 413 846 l 543 363 z m 599 1205 l 704 1205 b 724 1229 704 1214 709 1221 b 804 1349 783 1263 804 1295 b 650 1459 804 1423 753 1459 b 479 1409 573 1459 516 1442 l 525 1328 b 636 1357 556 1348 593 1357 b 692 1322 673 1357 692 1343 b 644 1272 692 1308 679 1295 b 599 1219 611 1250 599 1236 z m 176 1072 l 326 1072 l 410 1169 l 494 1072 l 645 1072 l 469 1248 l 352 1248 z "},"Ẫ":{"ha":814,"x_min":0,"x_max":0,"o":"m 31 0 l 173 0 l 236 235 l 578 235 l 641 0 l 783 0 l 505 963 l 309 963 z m 153 1320 l 271 1320 l 271 1360 b 321 1411 271 1394 288 1411 b 416 1380 344 1411 378 1396 b 547 1343 475 1356 517 1343 b 675 1506 632 1343 675 1397 l 675 1539 l 558 1539 l 558 1499 b 522 1455 558 1470 546 1455 b 422 1490 499 1455 475 1468 b 295 1523 370 1512 332 1523 b 153 1354 200 1523 153 1467 z m 271 363 l 401 846 l 413 846 l 543 363 z m 176 1072 l 326 1072 l 410 1169 l 494 1072 l 645 1072 l 469 1248 l 352 1248 z "},"Ä":{"ha":814,"x_min":0,"x_max":0,"o":"m 31 0 l 173 0 l 236 235 l 578 235 l 641 0 l 783 0 l 505 963 l 309 963 z m 271 363 l 401 846 l 413 846 l 543 363 z m 266 1072 b 357 1162 316 1072 357 1112 b 266 1253 357 1213 316 1253 b 175 1162 216 1253 175 1213 b 266 1072 175 1112 216 1072 z m 548 1072 b 639 1162 598 1072 639 1112 b 548 1253 639 1213 598 1253 b 457 1162 498 1253 457 1213 b 548 1072 457 1112 498 1072 z "},"Ạ":{"ha":814,"x_min":0,"x_max":0,"o":"m 31 0 l 173 0 l 236 235 l 578 235 l 641 0 l 783 0 l 505 963 l 309 963 z m 271 363 l 401 846 l 413 846 l 543 363 z m 407 -285 b 498 -194 457 -285 498 -244 b 407 -103 498 -143 457 -103 b 316 -194 357 -103 316 -143 b 407 -285 316 -244 357 -285 z "},"À":{"ha":814,"x_min":0,"x_max":0,"o":"m 31 0 l 173 0 l 236 235 l 578 235 l 641 0 l 783 0 l 505 963 l 309 963 z m 271 363 l 401 846 l 413 846 l 543 363 z m 345 1072 l 503 1072 l 353 1241 l 162 1241 z "},"Ả":{"ha":814,"x_min":0,"x_max":0,"o":"m 31 0 l 173 0 l 236 235 l 578 235 l 641 0 l 783 0 l 505 963 l 309 963 z m 271 363 l 401 846 l 413 846 l 543 363 z m 361 1037 l 466 1037 b 486 1061 466 1046 471 1053 b 566 1181 545 1095 566 1126 b 412 1291 566 1255 515 1291 b 241 1240 335 1291 278 1274 l 287 1160 b 398 1189 318 1179 355 1189 b 454 1154 435 1189 454 1175 b 406 1104 454 1140 441 1126 b 361 1051 373 1082 361 1067 z "},"Ɑ":{"ha":814,"x_min":0,"x_max":0,"o":"m 359 -18 b 533 128 470 -18 522 43 l 545 128 l 551 -9 l 778 0 l 778 115 l 677 132 l 677 963 l 538 963 l 538 829 l 526 829 b 359 977 522 923 479 977 b 46 470 161 977 46 792 b 359 -18 46 155 151 -18 z m 538 412 b 381 106 538 176 513 106 b 189 470 254 106 189 230 b 381 852 189 713 257 852 b 538 593 486 852 538 766 z "},"Ā":{"ha":814,"x_min":0,"x_max":0,"o":"m 31 0 l 173 0 l 236 235 l 578 235 l 641 0 l 783 0 l 505 963 l 309 963 z m 271 363 l 401 846 l 413 846 l 543 363 z m 144 1072 l 669 1072 l 669 1199 l 144 1199 z "},"Ą":{"ha":814,"x_min":0,"x_max":0,"o":"m 690 -288 b 751 -284 708 -288 730 -287 l 764 -169 b 708 -174 743 -172 724 -174 b 629 -107 658 -174 629 -149 b 781 0 629 -39 685 0 l 783 0 l 505 963 l 309 963 l 31 0 l 173 0 l 236 235 l 578 235 l 641 0 b 528 -144 569 -18 528 -71 b 690 -288 528 -235 587 -288 z m 271 363 l 401 846 l 413 846 l 543 363 z "},"Å":{"ha":814,"x_min":0,"x_max":0,"o":"m 31 0 l 173 0 l 236 235 l 578 235 l 641 0 l 783 0 l 505 963 l 309 963 z m 407 1009 b 568 1149 509 1009 568 1060 b 407 1289 568 1238 509 1289 b 245 1149 304 1289 245 1238 b 407 1009 245 1060 304 1009 z m 271 363 l 401 846 l 413 846 l 543 363 z m 407 1088 b 342 1149 365 1088 342 1109 b 407 1211 342 1188 365 1211 b 472 1149 449 1211 472 1188 b 407 1088 472 1109 449 1088 z "},"Ǻ":{"ha":814,"x_min":0,"x_max":0,"o":"m 31 0 l 173 0 l 236 235 l 578 235 l 641 0 l 783 0 l 505 963 l 309 963 z m 271 1234 l 271 1234 b 245 1149 254 1212 245 1183 b 407 1009 245 1060 304 1009 b 568 1149 509 1009 568 1060 b 476 1279 568 1215 536 1260 l 611 1404 l 420 1404 z m 271 363 l 401 846 l 413 846 l 543 363 z m 407 1088 b 342 1149 365 1088 342 1109 b 407 1211 342 1188 365 1211 b 472 1149 449 1211 472 1188 b 407 1088 472 1109 449 1088 z "},"Ⱥ":{"ha":814,"x_min":0,"x_max":0,"o":"m 348 -224 l 429 235 l 578 235 l 641 0 l 783 0 l 537 852 l 589 1147 l 497 1164 l 462 963 l 309 963 l 31 0 l 173 0 l 236 235 l 334 235 l 256 -208 z m 357 363 l 271 363 l 401 846 l 413 846 l 430 783 z m 488 569 l 543 363 l 452 363 z "},"Ã":{"ha":814,"x_min":0,"x_max":0,"o":"m 31 0 l 173 0 l 236 235 l 578 235 l 641 0 l 783 0 l 505 963 l 309 963 z m 153 1062 l 271 1062 l 271 1103 b 321 1153 271 1137 288 1153 b 416 1122 344 1153 378 1139 b 547 1085 475 1098 517 1085 b 675 1248 632 1085 675 1139 l 675 1282 l 558 1282 l 558 1241 b 522 1198 558 1212 546 1198 b 422 1232 499 1198 475 1211 b 295 1265 370 1254 332 1265 b 153 1096 200 1265 153 1209 z m 271 363 l 401 846 l 413 846 l 543 363 z "},"Æ":{"ha":814,"x_min":0,"x_max":0,"o":"m 28 0 l 157 0 l 203 163 l 407 163 l 407 0 l 746 0 l 746 129 l 529 129 l 529 418 l 705 418 l 705 547 l 529 547 l 529 834 l 746 834 l 746 963 l 300 963 z m 237 282 l 395 846 l 407 846 l 407 282 z "},"Ǽ":{"ha":814,"x_min":0,"x_max":0,"o":"m 28 0 l 157 0 l 203 163 l 407 163 l 407 0 l 746 0 l 746 129 l 529 129 l 529 418 l 705 418 l 705 547 l 529 547 l 529 834 l 746 834 l 746 963 l 300 963 z m 237 282 l 395 846 l 407 846 l 407 282 z m 345 1072 l 503 1072 l 686 1241 l 494 1241 z "},"B":{"ha":814,"x_min":0,"x_max":0,"o":"m 109 0 l 477 0 b 769 264 663 0 769 96 b 471 506 769 416 661 503 l 471 514 b 701 719 618 530 701 602 b 395 963 701 875 590 963 l 109 963 z m 244 129 l 244 444 l 429 444 b 627 285 555 444 627 386 b 438 129 627 186 557 129 z m 244 573 l 244 834 l 388 834 b 559 705 497 834 559 788 b 397 573 559 621 500 573 z "},"C":{"ha":814,"x_min":0,"x_max":0,"o":"m 507 -14 b 755 33 593 -14 675 1 l 724 152 b 530 111 661 125 597 111 b 203 490 313 111 203 237 b 492 852 203 721 317 852 b 672 755 566 852 631 817 l 772 855 b 491 977 727 932 624 977 b 58 483 216 977 58 796 b 507 -14 58 152 209 -14 z "},"Ć":{"ha":814,"x_min":0,"x_max":0,"o":"m 507 -14 b 755 33 593 -14 675 1 l 724 152 b 530 111 661 125 597 111 b 203 490 313 111 203 237 b 492 852 203 721 317 852 b 672 755 566 852 631 817 l 772 855 b 491 977 727 932 624 977 b 58 483 216 977 58 796 b 507 -14 58 152 209 -14 z m 382 1072 l 540 1072 l 723 1241 l 532 1241 z "},"Č":{"ha":814,"x_min":0,"x_max":0,"o":"m 507 -14 b 755 33 593 -14 675 1 l 724 152 b 530 111 661 125 597 111 b 203 490 313 111 203 237 b 492 852 203 721 317 852 b 672 755 566 852 631 817 l 772 855 b 491 977 727 932 624 977 b 58 483 216 977 58 796 b 507 -14 58 152 209 -14 z m 413 1072 l 530 1072 l 706 1248 l 555 1248 l 471 1150 l 387 1248 l 237 1248 z "},"Ç":{"ha":814,"x_min":0,"x_max":0,"o":"m 507 -14 b 755 33 593 -14 675 1 l 724 152 b 530 111 661 125 597 111 b 203 490 313 111 203 237 b 492 852 203 721 317 852 b 672 755 566 852 631 817 l 772 855 b 491 977 727 932 624 977 b 58 483 216 977 58 796 b 403 -6 58 193 174 31 l 359 -129 b 469 -175 433 -129 469 -144 b 342 -224 469 -208 427 -224 l 342 -326 b 598 -181 513 -326 598 -277 b 481 -68 598 -121 559 -84 l 496 -14 b 507 -14 500 -14 503 -14 z "},"Ĉ":{"ha":814,"x_min":0,"x_max":0,"o":"m 507 -14 b 755 33 593 -14 675 1 l 724 152 b 530 111 661 125 597 111 b 203 490 313 111 203 237 b 492 852 203 721 317 852 b 672 755 566 852 631 817 l 772 855 b 491 977 727 932 624 977 b 58 483 216 977 58 796 b 507 -14 58 152 209 -14 z m 240 1072 l 391 1072 l 475 1169 l 559 1072 l 709 1072 l 533 1248 l 416 1248 z "},"Ċ":{"ha":814,"x_min":0,"x_max":0,"o":"m 507 -14 b 755 33 593 -14 675 1 l 724 152 b 530 111 661 125 597 111 b 203 490 313 111 203 237 b 492 852 203 721 317 852 b 672 755 566 852 631 817 l 772 855 b 491 977 727 932 624 977 b 58 483 216 977 58 796 b 507 -14 58 152 209 -14 z m 471 1072 b 562 1162 522 1072 562 1112 b 471 1253 562 1213 522 1253 b 380 1162 421 1253 380 1213 b 471 1072 380 1112 421 1072 z "},"Ȼ":{"ha":814,"x_min":0,"x_max":0,"o":"m 389 -224 l 427 -9 b 507 -14 452 -12 479 -14 b 755 33 593 -14 675 1 l 724 152 b 530 111 661 125 597 111 b 449 118 501 111 474 113 l 575 836 b 672 755 614 820 648 792 l 772 855 b 598 966 740 910 679 948 l 630 1147 l 538 1164 l 505 977 b 491 977 500 977 496 977 b 58 483 216 977 58 796 b 334 9 58 223 151 66 l 296 -208 z m 359 148 b 203 490 256 202 203 316 b 483 852 203 717 313 847 z "},"D":{"ha":814,"x_min":0,"x_max":0,"o":"m 95 0 l 328 0 b 769 468 623 0 769 155 b 328 963 769 800 623 963 l 95 963 z m 231 129 l 231 834 l 328 834 b 627 468 526 834 627 713 b 328 129 627 242 526 129 z "},"Ð":{"ha":814,"x_min":0,"x_max":0,"o":"m 8 415 l 95 415 l 95 0 l 328 0 b 769 468 623 0 769 155 b 328 963 769 800 623 963 l 95 963 l 95 544 l 8 544 z m 231 129 l 231 415 l 441 415 l 441 544 l 231 544 l 231 834 l 328 834 b 627 468 526 834 627 713 b 328 129 627 242 526 129 z "},"Ď":{"ha":814,"x_min":0,"x_max":0,"o":"m 95 0 l 328 0 b 769 468 623 0 769 155 b 328 963 769 800 623 963 l 95 963 z m 231 129 l 231 834 l 328 834 b 627 468 526 834 627 713 b 328 129 627 242 526 129 z m 301 1072 l 418 1072 l 594 1248 l 444 1248 l 359 1150 l 275 1248 l 125 1248 z "},"Đ":{"ha":814,"x_min":0,"x_max":0,"o":"m 95 0 l 328 0 b 769 468 623 0 769 155 b 328 963 769 800 623 963 l 95 963 l 95 544 l 8 544 l 8 415 l 95 415 z m 231 129 l 231 415 l 441 415 l 441 544 l 231 544 l 231 834 l 328 834 b 627 468 526 834 627 713 b 328 129 627 242 526 129 z "},"E":{"ha":814,"x_min":0,"x_max":0,"o":"m 109 0 l 746 0 l 746 129 l 244 129 l 244 418 l 624 418 l 624 547 l 244 547 l 244 834 l 746 834 l 746 963 l 109 963 z "},"É":{"ha":814,"x_min":0,"x_max":0,"o":"m 109 0 l 746 0 l 746 129 l 244 129 l 244 418 l 624 418 l 624 547 l 244 547 l 244 834 l 746 834 l 746 963 l 109 963 z m 338 1072 l 496 1072 l 679 1241 l 488 1241 z "},"Ĕ":{"ha":814,"x_min":0,"x_max":0,"o":"m 109 0 l 746 0 l 746 129 l 244 129 l 244 418 l 624 418 l 624 547 l 244 547 l 244 834 l 746 834 l 746 963 l 109 963 z m 427 1065 b 681 1261 588 1065 681 1137 l 562 1261 b 427 1157 562 1195 513 1157 b 292 1261 342 1157 292 1195 l 174 1261 b 427 1065 174 1137 267 1065 z "},"Ě":{"ha":814,"x_min":0,"x_max":0,"o":"m 109 0 l 746 0 l 746 129 l 244 129 l 244 418 l 624 418 l 624 547 l 244 547 l 244 834 l 746 834 l 746 963 l 109 963 z m 369 1072 l 486 1072 l 662 1248 l 511 1248 l 427 1150 l 343 1248 l 193 1248 z "},"Ê":{"ha":814,"x_min":0,"x_max":0,"o":"m 109 0 l 746 0 l 746 129 l 244 129 l 244 418 l 624 418 l 624 547 l 244 547 l 244 834 l 746 834 l 746 963 l 109 963 z m 196 1072 l 347 1072 l 431 1169 l 515 1072 l 665 1072 l 489 1248 l 372 1248 z "},"Ế":{"ha":814,"x_min":0,"x_max":0,"o":"m 109 0 l 746 0 l 746 129 l 244 129 l 244 418 l 624 418 l 624 547 l 244 547 l 244 834 l 746 834 l 746 963 l 109 963 z m 196 1072 l 347 1072 l 431 1169 l 515 1072 l 665 1072 l 489 1248 l 372 1248 z m 576 1240 l 734 1240 l 917 1409 l 726 1409 z "},"Ệ":{"ha":814,"x_min":0,"x_max":0,"o":"m 109 0 l 746 0 l 746 129 l 244 129 l 244 418 l 624 418 l 624 547 l 244 547 l 244 834 l 746 834 l 746 963 l 109 963 z m 196 1072 l 347 1072 l 431 1169 l 515 1072 l 665 1072 l 489 1248 l 372 1248 z m 427 -285 b 518 -194 477 -285 518 -244 b 427 -103 518 -143 477 -103 b 336 -194 377 -103 336 -143 b 427 -285 336 -244 377 -285 z "},"Ề":{"ha":814,"x_min":0,"x_max":0,"o":"m 109 0 l 746 0 l 746 129 l 244 129 l 244 418 l 624 418 l 624 547 l 244 547 l 244 834 l 746 834 l 746 963 l 109 963 z m 196 1072 l 347 1072 l 431 1169 l 515 1072 l 665 1072 l 489 1248 l 372 1248 z m 604 1240 l 761 1240 l 612 1409 l 420 1409 z "},"Ể":{"ha":814,"x_min":0,"x_max":0,"o":"m 109 0 l 746 0 l 746 129 l 244 129 l 244 418 l 624 418 l 624 547 l 244 547 l 244 834 l 746 834 l 746 963 l 109 963 z m 619 1205 l 724 1205 b 744 1229 724 1214 730 1221 b 825 1349 803 1263 825 1295 b 671 1459 825 1423 774 1459 b 500 1409 593 1459 536 1442 l 545 1328 b 656 1357 576 1348 613 1357 b 712 1322 694 1357 712 1343 b 664 1272 712 1308 699 1295 b 619 1219 631 1250 619 1236 z m 196 1072 l 347 1072 l 431 1169 l 515 1072 l 665 1072 l 489 1248 l 372 1248 z "},"Ễ":{"ha":814,"x_min":0,"x_max":0,"o":"m 109 0 l 746 0 l 746 129 l 244 129 l 244 418 l 624 418 l 624 547 l 244 547 l 244 834 l 746 834 l 746 963 l 109 963 z m 173 1320 l 291 1320 l 291 1360 b 341 1411 291 1394 308 1411 b 437 1380 364 1411 398 1396 b 568 1343 495 1356 537 1343 b 695 1506 652 1343 695 1397 l 695 1539 l 578 1539 l 578 1499 b 542 1455 578 1470 566 1455 b 443 1490 519 1455 496 1468 b 315 1523 391 1512 352 1523 b 173 1354 220 1523 173 1467 z m 196 1072 l 347 1072 l 431 1169 l 515 1072 l 665 1072 l 489 1248 l 372 1248 z "},"Ë":{"ha":814,"x_min":0,"x_max":0,"o":"m 109 0 l 746 0 l 746 129 l 244 129 l 244 418 l 624 418 l 624 547 l 244 547 l 244 834 l 746 834 l 746 963 l 109 963 z m 286 1072 b 377 1162 336 1072 377 1112 b 286 1253 377 1213 336 1253 b 195 1162 236 1253 195 1213 b 286 1072 195 1112 236 1072 z m 568 1072 b 659 1162 618 1072 659 1112 b 568 1253 659 1213 618 1253 b 477 1162 518 1253 477 1213 b 568 1072 477 1112 518 1072 z "},"Ė":{"ha":814,"x_min":0,"x_max":0,"o":"m 109 0 l 746 0 l 746 129 l 244 129 l 244 418 l 624 418 l 624 547 l 244 547 l 244 834 l 746 834 l 746 963 l 109 963 z m 427 1072 b 518 1162 477 1072 518 1112 b 427 1253 518 1213 477 1253 b 336 1162 377 1253 336 1213 b 427 1072 336 1112 377 1072 z "},"Ẹ":{"ha":814,"x_min":0,"x_max":0,"o":"m 109 0 l 746 0 l 746 129 l 244 129 l 244 418 l 624 418 l 624 547 l 244 547 l 244 834 l 746 834 l 746 963 l 109 963 z m 427 -285 b 518 -194 477 -285 518 -244 b 427 -103 518 -143 477 -103 b 336 -194 377 -103 336 -143 b 427 -285 336 -244 377 -285 z "},"È":{"ha":814,"x_min":0,"x_max":0,"o":"m 109 0 l 746 0 l 746 129 l 244 129 l 244 418 l 624 418 l 624 547 l 244 547 l 244 834 l 746 834 l 746 963 l 109 963 z m 366 1072 l 523 1072 l 374 1241 l 182 1241 z "},"Ẻ":{"ha":814,"x_min":0,"x_max":0,"o":"m 109 0 l 746 0 l 746 129 l 244 129 l 244 418 l 624 418 l 624 547 l 244 547 l 244 834 l 746 834 l 746 963 l 109 963 z m 381 1037 l 486 1037 b 506 1061 486 1046 492 1053 b 587 1181 565 1095 587 1126 b 433 1291 587 1255 536 1291 b 262 1240 355 1291 298 1274 l 307 1160 b 418 1189 338 1179 375 1189 b 474 1154 456 1189 474 1175 b 426 1104 474 1140 461 1126 b 381 1051 393 1082 381 1067 z "},"Ē":{"ha":814,"x_min":0,"x_max":0,"o":"m 109 0 l 746 0 l 746 129 l 244 129 l 244 418 l 624 418 l 624 547 l 244 547 l 244 834 l 746 834 l 746 963 l 109 963 z m 165 1072 l 690 1072 l 690 1199 l 165 1199 z "},"Ę":{"ha":814,"x_min":0,"x_max":0,"o":"m 655 -288 b 716 -281 673 -288 695 -286 l 728 -166 b 673 -174 708 -171 688 -174 b 594 -114 623 -174 594 -152 b 746 0 594 -41 650 0 l 746 129 l 244 129 l 244 418 l 624 418 l 624 547 l 244 547 l 244 834 l 746 834 l 746 963 l 109 963 l 109 0 l 570 0 l 570 -14 b 492 -144 520 -30 492 -77 b 655 -288 492 -235 551 -288 z "},"Ɛ":{"ha":814,"x_min":0,"x_max":0,"o":"m 468 977 b 125 741 226 977 125 882 b 359 519 125 629 192 546 l 359 512 b 87 267 216 505 87 422 b 457 -14 87 97 229 -14 b 746 33 591 -14 659 -3 l 715 151 b 454 111 616 119 564 111 b 228 281 313 111 228 175 b 452 442 228 385 318 442 l 553 442 l 568 570 b 263 718 349 576 263 621 b 469 852 263 793 322 852 b 663 755 553 852 623 819 l 763 855 b 468 977 715 932 615 977 z "},"Ǝ":{"ha":814,"x_min":0,"x_max":0,"o":"m 705 0 l 705 963 l 68 963 l 68 834 l 570 834 l 570 547 l 190 547 l 190 418 l 570 418 l 570 129 l 68 129 l 68 0 z "},"Ʃ":{"ha":814,"x_min":0,"x_max":0,"o":"m 102 0 l 726 0 l 726 119 l 270 119 l 574 484 l 286 834 l 712 834 l 712 963 l 102 963 l 102 834 l 401 484 l 102 119 z "},"Ẽ":{"ha":814,"x_min":0,"x_max":0,"o":"m 109 0 l 746 0 l 746 129 l 244 129 l 244 418 l 624 418 l 624 547 l 244 547 l 244 834 l 746 834 l 746 963 l 109 963 z m 173 1062 l 291 1062 l 291 1103 b 341 1153 291 1137 308 1153 b 437 1122 364 1153 398 1139 b 568 1085 495 1098 537 1085 b 695 1248 652 1085 695 1139 l 695 1282 l 578 1282 l 578 1241 b 542 1198 578 1212 566 1198 b 443 1232 519 1198 496 1211 b 315 1265 391 1254 352 1265 b 173 1096 220 1265 173 1209 z "},"Ʒ":{"ha":814,"x_min":0,"x_max":0,"o":"m 377 -14 b 734 277 597 -14 734 101 b 406 559 734 446 615 547 l 689 827 l 689 963 l 111 963 l 111 837 l 527 837 l 216 540 l 230 456 l 321 456 b 593 275 494 456 593 390 b 380 111 593 172 513 111 b 148 198 284 111 228 136 l 50 102 b 377 -14 134 25 241 -14 z "},"F":{"ha":814,"x_min":0,"x_max":0,"o":"m 122 0 l 258 0 l 258 377 l 637 377 l 637 506 l 258 506 l 258 834 l 760 834 l 760 963 l 122 963 z "},"G":{"ha":814,"x_min":0,"x_max":0,"o":"m 476 -14 b 739 27 598 -14 701 15 l 739 481 l 414 481 l 414 353 l 610 353 l 610 125 b 492 111 576 117 537 111 b 190 490 292 111 190 237 b 479 852 190 720 296 852 b 659 755 551 852 616 817 l 760 856 b 471 977 711 932 606 977 b 45 483 201 977 45 796 b 476 -14 45 152 189 -14 z "},"Ğ":{"ha":814,"x_min":0,"x_max":0,"o":"m 476 -14 b 739 27 598 -14 701 15 l 739 481 l 414 481 l 414 353 l 610 353 l 610 125 b 492 111 576 117 537 111 b 190 490 292 111 190 237 b 479 852 190 720 296 852 b 659 755 551 852 616 817 l 760 856 b 471 977 711 932 606 977 b 45 483 201 977 45 796 b 476 -14 45 152 189 -14 z m 458 1065 b 711 1261 618 1065 711 1137 l 593 1261 b 458 1157 593 1195 543 1157 b 323 1261 372 1157 323 1195 l 204 1261 b 458 1065 204 1137 297 1065 z "},"Ǧ":{"ha":814,"x_min":0,"x_max":0,"o":"m 476 -14 b 739 27 598 -14 701 15 l 739 481 l 414 481 l 414 353 l 610 353 l 610 125 b 492 111 576 117 537 111 b 190 490 292 111 190 237 b 479 852 190 720 296 852 b 659 755 551 852 616 817 l 760 856 b 471 977 711 932 606 977 b 45 483 201 977 45 796 b 476 -14 45 152 189 -14 z m 399 1072 l 516 1072 l 692 1248 l 542 1248 l 458 1150 l 374 1248 l 223 1248 z "},"Ĝ":{"ha":814,"x_min":0,"x_max":0,"o":"m 476 -14 b 739 27 598 -14 701 15 l 739 481 l 414 481 l 414 353 l 610 353 l 610 125 b 492 111 576 117 537 111 b 190 490 292 111 190 237 b 479 852 190 720 296 852 b 659 755 551 852 616 817 l 760 856 b 471 977 711 932 606 977 b 45 483 201 977 45 796 b 476 -14 45 152 189 -14 z m 227 1072 l 377 1072 l 461 1169 l 545 1072 l 696 1072 l 519 1248 l 403 1248 z "},"Ģ":{"ha":814,"x_min":0,"x_max":0,"o":"m 476 -14 b 739 27 598 -14 701 15 l 739 481 l 414 481 l 414 353 l 610 353 l 610 125 b 492 111 576 117 537 111 b 190 490 292 111 190 237 b 479 852 190 720 296 852 b 659 755 551 852 616 817 l 760 856 b 471 977 711 932 606 977 b 45 483 201 977 45 796 b 476 -14 45 152 189 -14 z m 346 -326 l 469 -326 l 549 -95 l 398 -95 z "},"Ġ":{"ha":814,"x_min":0,"x_max":0,"o":"m 476 -14 b 739 27 598 -14 701 15 l 739 481 l 414 481 l 414 353 l 610 353 l 610 125 b 492 111 576 117 537 111 b 190 490 292 111 190 237 b 479 852 190 720 296 852 b 659 755 551 852 616 817 l 760 856 b 471 977 711 932 606 977 b 45 483 201 977 45 796 b 476 -14 45 152 189 -14 z m 458 1072 b 549 1162 508 1072 549 1112 b 458 1253 549 1213 508 1253 b 367 1162 408 1253 367 1213 b 458 1072 367 1112 408 1072 z "},"Ǥ":{"ha":814,"x_min":0,"x_max":0,"o":"m 476 -14 b 726 27 592 -14 690 15 l 726 251 l 814 251 l 814 380 l 726 380 l 726 481 l 597 481 l 597 380 l 434 380 l 434 251 l 597 251 l 597 123 b 492 111 567 117 532 111 b 190 490 292 111 190 237 b 479 852 190 720 296 852 b 659 755 551 852 616 817 l 760 856 b 471 977 711 932 606 977 b 45 483 201 977 45 796 b 476 -14 45 152 189 -14 z "},"H":{"ha":814,"x_min":0,"x_max":0,"o":"m 583 0 l 719 0 l 719 963 l 583 963 l 583 544 l 231 544 l 231 963 l 95 963 l 95 0 l 231 0 l 231 415 l 583 415 z "},"Ħ":{"ha":814,"x_min":0,"x_max":0,"o":"m 28 680 l 95 680 l 95 0 l 231 0 l 231 415 l 583 415 l 583 0 l 719 0 l 719 680 l 785 680 l 785 808 l 719 808 l 719 963 l 583 963 l 583 808 l 231 808 l 231 963 l 95 963 l 95 808 l 28 808 z m 231 544 l 231 680 l 583 680 l 583 544 z "},"Ȟ":{"ha":814,"x_min":0,"x_max":0,"o":"m 583 0 l 719 0 l 719 963 l 583 963 l 583 544 l 231 544 l 231 963 l 95 963 l 95 0 l 231 0 l 231 415 l 583 415 z m 349 1072 l 465 1072 l 642 1248 l 491 1248 l 407 1150 l 323 1248 l 172 1248 z "},"Ĥ":{"ha":814,"x_min":0,"x_max":0,"o":"m 583 0 l 719 0 l 719 963 l 583 963 l 583 544 l 231 544 l 231 963 l 95 963 l 95 0 l 231 0 l 231 415 l 583 415 z m 176 1072 l 326 1072 l 410 1169 l 494 1072 l 645 1072 l 469 1248 l 352 1248 z "},"Ḥ":{"ha":814,"x_min":0,"x_max":0,"o":"m 583 0 l 719 0 l 719 963 l 583 963 l 583 544 l 231 544 l 231 963 l 95 963 l 95 0 l 231 0 l 231 415 l 583 415 z m 407 -285 b 498 -194 457 -285 498 -244 b 407 -103 498 -143 457 -103 b 316 -194 357 -103 316 -143 b 407 -285 316 -244 357 -285 z "},"I":{"ha":814,"x_min":0,"x_max":0,"o":"m 114 0 l 700 0 l 700 129 l 474 129 l 474 834 l 700 834 l 700 963 l 114 963 l 114 834 l 338 834 l 338 129 l 114 129 z "},"Ĳ":{"ha":814,"x_min":0,"x_max":0,"o":"m 430 -14 b 734 296 633 -14 734 89 l 734 963 l 468 963 l 468 834 l 598 834 l 598 296 b 433 109 598 170 543 109 b 289 241 337 109 289 153 l 153 241 b 430 -14 153 71 245 -14 z m 37 337 l 406 337 l 406 466 l 286 466 l 286 834 l 393 834 l 393 963 l 37 963 l 37 834 l 157 834 l 157 466 l 37 466 z "},"Í":{"ha":814,"x_min":0,"x_max":0,"o":"m 114 0 l 700 0 l 700 129 l 474 129 l 474 834 l 700 834 l 700 963 l 114 963 l 114 834 l 338 834 l 338 129 l 114 129 z m 318 1072 l 475 1072 l 659 1241 l 467 1241 z "},"Ĭ":{"ha":814,"x_min":0,"x_max":0,"o":"m 114 0 l 700 0 l 700 129 l 474 129 l 474 834 l 700 834 l 700 963 l 114 963 l 114 834 l 338 834 l 338 129 l 114 129 z m 407 1065 b 661 1261 568 1065 661 1137 l 542 1261 b 407 1157 542 1195 492 1157 b 272 1261 321 1157 272 1195 l 153 1261 b 407 1065 153 1137 246 1065 z "},"Î":{"ha":814,"x_min":0,"x_max":0,"o":"m 114 0 l 700 0 l 700 129 l 474 129 l 474 834 l 700 834 l 700 963 l 114 963 l 114 834 l 338 834 l 338 129 l 114 129 z m 176 1072 l 326 1072 l 410 1169 l 494 1072 l 645 1072 l 469 1248 l 352 1248 z "},"Ï":{"ha":814,"x_min":0,"x_max":0,"o":"m 114 0 l 700 0 l 700 129 l 474 129 l 474 834 l 700 834 l 700 963 l 114 963 l 114 834 l 338 834 l 338 129 l 114 129 z m 266 1072 b 357 1162 316 1072 357 1112 b 266 1253 357 1213 316 1253 b 175 1162 216 1253 175 1213 b 266 1072 175 1112 216 1072 z m 548 1072 b 639 1162 598 1072 639 1112 b 548 1253 639 1213 598 1253 b 457 1162 498 1253 457 1213 b 548 1072 457 1112 498 1072 z "},"İ":{"ha":814,"x_min":0,"x_max":0,"o":"m 114 0 l 700 0 l 700 129 l 474 129 l 474 834 l 700 834 l 700 963 l 114 963 l 114 834 l 338 834 l 338 129 l 114 129 z m 407 1072 b 498 1162 457 1072 498 1112 b 407 1253 498 1213 457 1253 b 316 1162 357 1253 316 1213 b 407 1072 316 1112 357 1072 z "},"Ị":{"ha":814,"x_min":0,"x_max":0,"o":"m 114 0 l 700 0 l 700 129 l 474 129 l 474 834 l 700 834 l 700 963 l 114 963 l 114 834 l 338 834 l 338 129 l 114 129 z m 407 -285 b 498 -194 457 -285 498 -244 b 407 -103 498 -143 457 -103 b 316 -194 357 -103 316 -143 b 407 -285 316 -244 357 -285 z "},"Ì":{"ha":814,"x_min":0,"x_max":0,"o":"m 114 0 l 700 0 l 700 129 l 474 129 l 474 834 l 700 834 l 700 963 l 114 963 l 114 834 l 338 834 l 338 129 l 114 129 z m 345 1072 l 503 1072 l 353 1241 l 162 1241 z "},"Ỉ":{"ha":814,"x_min":0,"x_max":0,"o":"m 114 0 l 700 0 l 700 129 l 474 129 l 474 834 l 700 834 l 700 963 l 114 963 l 114 834 l 338 834 l 338 129 l 114 129 z m 361 1037 l 466 1037 b 486 1061 466 1046 471 1053 b 566 1181 545 1095 566 1126 b 412 1291 566 1255 515 1291 b 241 1240 335 1291 278 1274 l 287 1160 b 398 1189 318 1179 355 1189 b 454 1154 435 1189 454 1175 b 406 1104 454 1140 441 1126 b 361 1051 373 1082 361 1067 z "},"Ī":{"ha":814,"x_min":0,"x_max":0,"o":"m 114 0 l 700 0 l 700 129 l 474 129 l 474 834 l 700 834 l 700 963 l 114 963 l 114 834 l 338 834 l 338 129 l 114 129 z m 144 1072 l 669 1072 l 669 1199 l 144 1199 z "},"Į":{"ha":814,"x_min":0,"x_max":0,"o":"m 431 -288 b 492 -281 449 -288 471 -286 l 505 -166 b 449 -174 484 -171 465 -174 b 370 -114 399 -174 370 -152 b 522 0 370 -41 426 0 l 700 0 l 700 129 l 474 129 l 474 834 l 700 834 l 700 963 l 114 963 l 114 834 l 338 834 l 338 129 l 114 129 l 114 0 l 346 0 l 346 -14 b 269 -144 296 -30 269 -77 b 431 -288 269 -235 328 -288 z "},"Ɩ":{"ha":814,"x_min":0,"x_max":0,"o":"m 514 -14 b 728 15 591 -14 655 -5 l 712 141 b 568 115 652 123 609 115 b 422 278 445 115 422 164 l 422 1017 l 66 1017 l 66 899 l 278 899 l 278 271 b 514 -14 278 72 347 -14 z "},"Ĩ":{"ha":814,"x_min":0,"x_max":0,"o":"m 114 0 l 700 0 l 700 129 l 474 129 l 474 834 l 700 834 l 700 963 l 114 963 l 114 834 l 338 834 l 338 129 l 114 129 z m 153 1062 l 271 1062 l 271 1103 b 321 1153 271 1137 288 1153 b 416 1122 344 1153 378 1139 b 547 1085 475 1098 517 1085 b 675 1248 632 1085 675 1139 l 675 1282 l 558 1282 l 558 1241 b 522 1198 558 1212 546 1198 b 422 1232 499 1198 475 1211 b 295 1265 370 1254 332 1265 b 153 1096 200 1265 153 1209 z "},"J":{"ha":814,"x_min":0,"x_max":0,"o":"m 389 -14 b 720 323 597 -14 720 109 l 720 963 l 332 963 l 332 834 l 585 834 l 585 323 b 393 109 585 186 515 109 b 194 323 266 109 194 187 l 58 323 b 389 -14 58 110 178 -14 z "},"Ĵ":{"ha":814,"x_min":0,"x_max":0,"o":"m 389 -14 b 720 323 597 -14 720 109 l 720 963 l 332 963 l 332 834 l 585 834 l 585 323 b 393 109 585 186 515 109 b 194 323 266 109 194 187 l 58 323 b 389 -14 58 110 178 -14 z m 304 1072 l 455 1072 l 539 1169 l 623 1072 l 774 1072 l 597 1248 l 481 1248 z "},"K":{"ha":814,"x_min":0,"x_max":0,"o":"m 102 0 l 237 0 l 237 309 b 433 367 310 315 375 336 l 624 0 l 788 0 l 548 452 b 742 963 673 576 742 764 l 602 963 b 237 442 602 710 489 465 l 237 963 l 102 963 z "},"Ḱ":{"ha":814,"x_min":0,"x_max":0,"o":"m 102 0 l 237 0 l 237 309 b 433 367 310 315 375 336 l 624 0 l 788 0 l 548 452 b 742 963 673 576 742 764 l 602 963 b 237 442 602 710 489 465 l 237 963 l 102 963 z m 332 1072 l 489 1072 l 672 1241 l 481 1241 z "},"Ķ":{"ha":814,"x_min":0,"x_max":0,"o":"m 102 0 l 237 0 l 237 309 b 433 367 310 315 375 336 l 624 0 l 788 0 l 548 452 b 742 963 673 576 742 764 l 602 963 b 237 442 602 710 489 465 l 237 963 l 102 963 z m 295 -326 l 418 -326 l 498 -95 l 347 -95 z "},"Ḳ":{"ha":814,"x_min":0,"x_max":0,"o":"m 102 0 l 237 0 l 237 309 b 433 367 310 315 375 336 l 624 0 l 788 0 l 548 452 b 742 963 673 576 742 764 l 602 963 b 237 442 602 710 489 465 l 237 963 l 102 963 z m 420 -285 b 511 -194 471 -285 511 -244 b 420 -103 511 -143 471 -103 b 330 -194 370 -103 330 -143 b 420 -285 330 -244 370 -285 z "},"Ḵ":{"ha":814,"x_min":0,"x_max":0,"o":"m 102 0 l 237 0 l 237 309 b 433 367 310 315 375 336 l 624 0 l 788 0 l 548 452 b 742 963 673 576 742 764 l 602 963 b 237 442 602 710 489 465 l 237 963 l 102 963 z m 129 -269 l 712 -269 l 712 -141 l 129 -141 z "},"L":{"ha":814,"x_min":0,"x_max":0,"o":"m 109 0 l 746 0 l 746 129 l 244 129 l 244 963 l 109 963 z "},"Ĺ":{"ha":814,"x_min":0,"x_max":0,"o":"m 109 0 l 746 0 l 746 129 l 244 129 l 244 963 l 109 963 z m 87 1072 l 245 1072 l 428 1241 l 237 1241 z "},"Ƚ":{"ha":814,"x_min":0,"x_max":0,"o":"m -14 439 l 109 439 l 109 0 l 746 0 l 746 129 l 244 129 l 244 439 l 553 439 l 553 568 l 244 568 l 244 963 l 109 963 l 109 568 l -14 568 z "},"Ľ":{"ha":814,"x_min":0,"x_max":0,"o":"m 109 0 l 746 0 l 746 129 l 244 129 l 244 963 l 109 963 z m 517 806 l 633 806 l 694 1063 l 551 1063 z "},"Ļ":{"ha":814,"x_min":0,"x_max":0,"o":"m 109 0 l 746 0 l 746 129 l 244 129 l 244 963 l 109 963 z m 295 -326 l 418 -326 l 498 -95 l 347 -95 z "},"Ŀ":{"ha":814,"x_min":0,"x_max":0,"o":"m 109 0 l 746 0 l 746 129 l 244 129 l 244 963 l 109 963 z m 543 530 b 643 631 598 530 643 575 b 543 731 643 686 598 731 b 442 631 487 731 442 686 b 543 530 442 575 487 530 z "},"Ḷ":{"ha":814,"x_min":0,"x_max":0,"o":"m 109 0 l 746 0 l 746 129 l 244 129 l 244 963 l 109 963 z m 420 -285 b 511 -194 471 -285 511 -244 b 420 -103 511 -143 471 -103 b 330 -194 370 -103 330 -143 b 420 -285 330 -244 370 -285 z "},"Ḻ":{"ha":814,"x_min":0,"x_max":0,"o":"m 109 0 l 746 0 l 746 129 l 244 129 l 244 963 l 109 963 z m 129 -269 l 712 -269 l 712 -141 l 129 -141 z "},"Ɫ":{"ha":814,"x_min":0,"x_max":0,"o":"m 227 0 l 746 0 l 746 129 l 353 129 l 353 441 b 459 418 386 427 421 418 b 596 583 555 418 596 467 l 596 640 l 473 640 l 473 578 b 433 527 473 543 461 527 b 353 553 405 527 381 538 l 353 963 l 227 963 l 227 610 b 153 622 203 617 178 622 b -1 456 45 622 -1 572 l -1 399 l 123 399 l 123 462 b 174 513 123 497 138 513 b 227 503 193 513 210 509 z "},"Ł":{"ha":814,"x_min":0,"x_max":0,"o":"m 39 309 l 176 380 l 176 0 l 746 0 l 746 129 l 312 129 l 312 450 l 586 593 l 586 719 l 312 576 l 312 963 l 176 963 l 176 505 l 39 434 z "},"M":{"ha":814,"x_min":0,"x_max":0,"o":"m 87 0 l 217 0 l 217 792 l 235 792 l 345 393 l 469 393 l 579 792 l 597 792 l 597 0 l 727 0 l 727 963 l 522 963 l 412 549 l 401 549 l 292 963 l 87 963 z "},"N":{"ha":814,"x_min":0,"x_max":0,"o":"m 543 0 l 713 0 l 713 963 l 583 963 l 583 231 l 570 231 l 271 963 l 100 963 l 100 0 l 231 0 l 231 732 l 244 732 z "},"Ń":{"ha":814,"x_min":0,"x_max":0,"o":"m 543 0 l 713 0 l 713 963 l 583 963 l 583 231 l 570 231 l 271 963 l 100 963 l 100 0 l 231 0 l 231 732 l 244 732 z m 318 1072 l 475 1072 l 659 1241 l 467 1241 z "},"Ň":{"ha":814,"x_min":0,"x_max":0,"o":"m 543 0 l 713 0 l 713 963 l 583 963 l 583 231 l 570 231 l 271 963 l 100 963 l 100 0 l 231 0 l 231 732 l 244 732 z m 349 1072 l 465 1072 l 642 1248 l 491 1248 l 407 1150 l 323 1248 l 172 1248 z "},"Ņ":{"ha":814,"x_min":0,"x_max":0,"o":"m 543 0 l 713 0 l 713 963 l 583 963 l 583 231 l 570 231 l 271 963 l 100 963 l 100 0 l 231 0 l 231 732 l 244 732 z m 281 -326 l 405 -326 l 484 -95 l 334 -95 z "},"Ŋ":{"ha":814,"x_min":0,"x_max":0,"o":"m 402 -326 l 490 -317 b 713 -65 632 -304 713 -212 l 713 963 l 583 963 l 583 231 l 570 231 l 271 963 l 100 963 l 100 0 l 231 0 l 231 732 l 244 732 l 543 0 l 583 0 l 583 -60 b 477 -199 583 -145 547 -189 l 395 -212 z "},"Ɲ":{"ha":814,"x_min":0,"x_max":0,"o":"m -46 -323 l 8 -317 b 231 -65 150 -303 231 -214 l 231 125 l 231 125 l 231 732 l 244 732 l 543 0 l 713 0 l 713 963 l 583 963 l 583 231 l 570 231 l 271 963 l 100 963 l 100 -60 b -5 -199 100 -145 64 -189 l -53 -207 z "},"Ṉ":{"ha":814,"x_min":0,"x_max":0,"o":"m 543 0 l 713 0 l 713 963 l 583 963 l 583 231 l 570 231 l 271 963 l 100 963 l 100 0 l 231 0 l 231 732 l 244 732 z m 115 -269 l 699 -269 l 699 -141 l 115 -141 z "},"Ñ":{"ha":814,"x_min":0,"x_max":0,"o":"m 543 0 l 713 0 l 713 963 l 583 963 l 583 231 l 570 231 l 271 963 l 100 963 l 100 0 l 231 0 l 231 732 l 244 732 z m 153 1062 l 271 1062 l 271 1103 b 321 1153 271 1137 288 1153 b 416 1122 344 1153 378 1139 b 547 1085 475 1098 517 1085 b 675 1248 632 1085 675 1139 l 675 1282 l 558 1282 l 558 1241 b 522 1198 558 1212 546 1198 b 422 1232 499 1198 475 1211 b 295 1265 370 1254 332 1265 b 153 1096 200 1265 153 1209 z "},"O":{"ha":814,"x_min":0,"x_max":0,"o":"m 407 -14 b 762 475 643 -14 762 148 b 407 977 762 810 643 977 b 52 475 171 977 52 810 b 407 -14 52 148 171 -14 z m 407 111 b 194 475 265 111 194 232 b 407 852 194 727 265 852 b 620 475 549 852 620 727 b 407 111 620 232 549 111 z "},"Ó":{"ha":814,"x_min":0,"x_max":0,"o":"m 407 -14 b 762 475 643 -14 762 148 b 407 977 762 810 643 977 b 52 475 171 977 52 810 b 407 -14 52 148 171 -14 z m 407 111 b 194 475 265 111 194 232 b 407 852 194 727 265 852 b 620 475 549 852 620 727 b 407 111 620 232 549 111 z m 318 1072 l 475 1072 l 659 1241 l 467 1241 z "},"Ŏ":{"ha":814,"x_min":0,"x_max":0,"o":"m 407 -14 b 762 475 643 -14 762 148 b 407 977 762 810 643 977 b 52 475 171 977 52 810 b 407 -14 52 148 171 -14 z m 407 111 b 194 475 265 111 194 232 b 407 852 194 727 265 852 b 620 475 549 852 620 727 b 407 111 620 232 549 111 z m 407 1065 b 661 1261 568 1065 661 1137 l 542 1261 b 407 1157 542 1195 492 1157 b 272 1261 321 1157 272 1195 l 153 1261 b 407 1065 153 1137 246 1065 z "},"Ô":{"ha":814,"x_min":0,"x_max":0,"o":"m 407 -14 b 762 475 643 -14 762 148 b 407 977 762 810 643 977 b 52 475 171 977 52 810 b 407 -14 52 148 171 -14 z m 407 111 b 194 475 265 111 194 232 b 407 852 194 727 265 852 b 620 475 549 852 620 727 b 407 111 620 232 549 111 z m 176 1072 l 326 1072 l 410 1169 l 494 1072 l 645 1072 l 469 1248 l 352 1248 z "},"Ố":{"ha":814,"x_min":0,"x_max":0,"o":"m 407 -14 b 762 475 643 -14 762 148 b 407 977 762 810 643 977 b 52 475 171 977 52 810 b 407 -14 52 148 171 -14 z m 407 111 b 194 475 265 111 194 232 b 407 852 194 727 265 852 b 620 475 549 852 620 727 b 407 111 620 232 549 111 z m 176 1072 l 326 1072 l 410 1169 l 494 1072 l 645 1072 l 469 1248 l 352 1248 z m 556 1240 l 713 1240 l 897 1409 l 705 1409 z "},"Ộ":{"ha":814,"x_min":0,"x_max":0,"o":"m 407 -14 b 762 475 643 -14 762 148 b 407 977 762 810 643 977 b 52 475 171 977 52 810 b 407 -14 52 148 171 -14 z m 407 111 b 194 475 265 111 194 232 b 407 852 194 727 265 852 b 620 475 549 852 620 727 b 407 111 620 232 549 111 z m 176 1072 l 326 1072 l 410 1169 l 494 1072 l 645 1072 l 469 1248 l 352 1248 z m 407 -285 b 498 -194 457 -285 498 -244 b 407 -103 498 -143 457 -103 b 316 -194 357 -103 316 -143 b 407 -285 316 -244 357 -285 z "},"Ồ":{"ha":814,"x_min":0,"x_max":0,"o":"m 407 -14 b 762 475 643 -14 762 148 b 407 977 762 810 643 977 b 52 475 171 977 52 810 b 407 -14 52 148 171 -14 z m 407 111 b 194 475 265 111 194 232 b 407 852 194 727 265 852 b 620 475 549 852 620 727 b 407 111 620 232 549 111 z m 176 1072 l 326 1072 l 410 1169 l 494 1072 l 645 1072 l 469 1248 l 352 1248 z m 583 1240 l 741 1240 l 591 1409 l 400 1409 z "},"Ổ":{"ha":814,"x_min":0,"x_max":0,"o":"m 407 -14 b 762 475 643 -14 762 148 b 407 977 762 810 643 977 b 52 475 171 977 52 810 b 407 -14 52 148 171 -14 z m 407 111 b 194 475 265 111 194 232 b 407 852 194 727 265 852 b 620 475 549 852 620 727 b 407 111 620 232 549 111 z m 599 1205 l 704 1205 b 724 1229 704 1214 709 1221 b 804 1349 783 1263 804 1295 b 650 1459 804 1423 753 1459 b 479 1409 573 1459 516 1442 l 525 1328 b 636 1357 556 1348 593 1357 b 692 1322 673 1357 692 1343 b 644 1272 692 1308 679 1295 b 599 1219 611 1250 599 1236 z m 176 1072 l 326 1072 l 410 1169 l 494 1072 l 645 1072 l 469 1248 l 352 1248 z "},"Ỗ":{"ha":814,"x_min":0,"x_max":0,"o":"m 407 -14 b 762 475 643 -14 762 148 b 407 977 762 810 643 977 b 52 475 171 977 52 810 b 407 -14 52 148 171 -14 z m 407 111 b 194 475 265 111 194 232 b 407 852 194 727 265 852 b 620 475 549 852 620 727 b 407 111 620 232 549 111 z m 153 1320 l 271 1320 l 271 1360 b 321 1411 271 1394 288 1411 b 416 1380 344 1411 378 1396 b 547 1343 475 1356 517 1343 b 675 1506 632 1343 675 1397 l 675 1539 l 558 1539 l 558 1499 b 522 1455 558 1470 546 1455 b 422 1490 499 1455 475 1468 b 295 1523 370 1512 332 1523 b 153 1354 200 1523 153 1467 z m 176 1072 l 326 1072 l 410 1169 l 494 1072 l 645 1072 l 469 1248 l 352 1248 z "},"Ö":{"ha":814,"x_min":0,"x_max":0,"o":"m 407 -14 b 762 475 643 -14 762 148 b 407 977 762 810 643 977 b 52 475 171 977 52 810 b 407 -14 52 148 171 -14 z m 407 111 b 194 475 265 111 194 232 b 407 852 194 727 265 852 b 620 475 549 852 620 727 b 407 111 620 232 549 111 z m 266 1072 b 357 1162 316 1072 357 1112 b 266 1253 357 1213 316 1253 b 175 1162 216 1253 175 1213 b 266 1072 175 1112 216 1072 z m 548 1072 b 639 1162 598 1072 639 1112 b 548 1253 639 1213 598 1253 b 457 1162 498 1253 457 1213 b 548 1072 457 1112 498 1072 z "},"Ọ":{"ha":814,"x_min":0,"x_max":0,"o":"m 407 -14 b 762 475 643 -14 762 148 b 407 977 762 810 643 977 b 52 475 171 977 52 810 b 407 -14 52 148 171 -14 z m 407 111 b 194 475 265 111 194 232 b 407 852 194 727 265 852 b 620 475 549 852 620 727 b 407 111 620 232 549 111 z m 407 -285 b 498 -194 457 -285 498 -244 b 407 -103 498 -143 457 -103 b 316 -194 357 -103 316 -143 b 407 -285 316 -244 357 -285 z "},"Ò":{"ha":814,"x_min":0,"x_max":0,"o":"m 407 -14 b 762 475 643 -14 762 148 b 407 977 762 810 643 977 b 52 475 171 977 52 810 b 407 -14 52 148 171 -14 z m 407 111 b 194 475 265 111 194 232 b 407 852 194 727 265 852 b 620 475 549 852 620 727 b 407 111 620 232 549 111 z m 345 1072 l 503 1072 l 353 1241 l 162 1241 z "},"Ỏ":{"ha":814,"x_min":0,"x_max":0,"o":"m 407 -14 b 762 475 643 -14 762 148 b 407 977 762 810 643 977 b 52 475 171 977 52 810 b 407 -14 52 148 171 -14 z m 407 111 b 194 475 265 111 194 232 b 407 852 194 727 265 852 b 620 475 549 852 620 727 b 407 111 620 232 549 111 z m 361 1037 l 466 1037 b 486 1061 466 1046 471 1053 b 566 1181 545 1095 566 1126 b 412 1291 566 1255 515 1291 b 241 1240 335 1291 278 1274 l 287 1160 b 398 1189 318 1179 355 1189 b 454 1154 435 1189 454 1175 b 406 1104 454 1140 441 1126 b 361 1051 373 1082 361 1067 z "},"Ơ":{"ha":814,"x_min":0,"x_max":0,"o":"m 407 -14 b 762 475 643 -14 762 148 b 680 842 762 636 734 758 b 846 1121 791 883 846 976 l 716 1121 b 579 937 716 1014 671 953 b 407 977 532 963 474 977 b 52 475 171 977 52 810 b 407 -14 52 148 171 -14 z m 407 111 b 194 475 265 111 194 232 b 407 852 194 727 265 852 b 620 475 549 852 620 727 b 407 111 620 232 549 111 z "},"Ớ":{"ha":814,"x_min":0,"x_max":0,"o":"m 407 -14 b 762 475 643 -14 762 148 b 680 842 762 636 734 758 b 846 1121 791 883 846 976 l 716 1121 b 579 937 716 1014 671 953 b 407 977 532 963 474 977 b 52 475 171 977 52 810 b 407 -14 52 148 171 -14 z m 407 111 b 194 475 265 111 194 232 b 407 852 194 727 265 852 b 620 475 549 852 620 727 b 407 111 620 232 549 111 z m 318 1072 l 475 1072 l 659 1241 l 467 1241 z "},"Ợ":{"ha":814,"x_min":0,"x_max":0,"o":"m 407 -14 b 762 475 643 -14 762 148 b 680 842 762 636 734 758 b 846 1121 791 883 846 976 l 716 1121 b 579 937 716 1014 671 953 b 407 977 532 963 474 977 b 52 475 171 977 52 810 b 407 -14 52 148 171 -14 z m 407 111 b 194 475 265 111 194 232 b 407 852 194 727 265 852 b 620 475 549 852 620 727 b 407 111 620 232 549 111 z m 407 -285 b 498 -194 457 -285 498 -244 b 407 -103 498 -143 457 -103 b 316 -194 357 -103 316 -143 b 407 -285 316 -244 357 -285 z "},"Ờ":{"ha":814,"x_min":0,"x_max":0,"o":"m 407 -14 b 762 475 643 -14 762 148 b 680 842 762 636 734 758 b 846 1121 791 883 846 976 l 716 1121 b 579 937 716 1014 671 953 b 407 977 532 963 474 977 b 52 475 171 977 52 810 b 407 -14 52 148 171 -14 z m 407 111 b 194 475 265 111 194 232 b 407 852 194 727 265 852 b 620 475 549 852 620 727 b 407 111 620 232 549 111 z m 345 1072 l 503 1072 l 353 1241 l 162 1241 z "},"Ở":{"ha":814,"x_min":0,"x_max":0,"o":"m 407 -14 b 762 475 643 -14 762 148 b 680 842 762 636 734 758 b 846 1121 791 883 846 976 l 716 1121 b 579 937 716 1014 671 953 b 407 977 532 963 474 977 b 52 475 171 977 52 810 b 407 -14 52 148 171 -14 z m 407 111 b 194 475 265 111 194 232 b 407 852 194 727 265 852 b 620 475 549 852 620 727 b 407 111 620 232 549 111 z m 361 1037 l 466 1037 b 486 1061 466 1046 471 1053 b 566 1181 545 1095 566 1126 b 412 1291 566 1255 515 1291 b 241 1240 335 1291 278 1274 l 287 1160 b 398 1189 318 1179 355 1189 b 454 1154 435 1189 454 1175 b 406 1104 454 1140 441 1126 b 361 1051 373 1082 361 1067 z "},"Ỡ":{"ha":814,"x_min":0,"x_max":0,"o":"m 407 -14 b 762 475 643 -14 762 148 b 680 842 762 636 734 758 b 846 1121 791 883 846 976 l 716 1121 b 579 937 716 1014 671 953 b 407 977 532 963 474 977 b 52 475 171 977 52 810 b 407 -14 52 148 171 -14 z m 407 111 b 194 475 265 111 194 232 b 407 852 194 727 265 852 b 620 475 549 852 620 727 b 407 111 620 232 549 111 z m 153 1062 l 271 1062 l 271 1103 b 321 1153 271 1137 288 1153 b 416 1122 344 1153 378 1139 b 547 1085 475 1098 517 1085 b 675 1248 632 1085 675 1139 l 675 1282 l 558 1282 l 558 1241 b 522 1198 558 1212 546 1198 b 422 1232 499 1198 475 1211 b 295 1265 370 1254 332 1265 b 153 1096 200 1265 153 1209 z "},"Ő":{"ha":814,"x_min":0,"x_max":0,"o":"m 407 -14 b 762 475 643 -14 762 148 b 407 977 762 810 643 977 b 52 475 171 977 52 810 b 407 -14 52 148 171 -14 z m 407 111 b 194 475 265 111 194 232 b 407 852 194 727 265 852 b 620 475 549 852 620 727 b 407 111 620 232 549 111 z m 169 1072 l 333 1072 l 469 1241 l 277 1241 z m 447 1072 l 611 1072 l 747 1241 l 555 1241 z "},"Ō":{"ha":814,"x_min":0,"x_max":0,"o":"m 407 -14 b 762 475 643 -14 762 148 b 407 977 762 810 643 977 b 52 475 171 977 52 810 b 407 -14 52 148 171 -14 z m 407 111 b 194 475 265 111 194 232 b 407 852 194 727 265 852 b 620 475 549 852 620 727 b 407 111 620 232 549 111 z m 144 1072 l 669 1072 l 669 1199 l 144 1199 z "},"Ṓ":{"ha":814,"x_min":0,"x_max":0,"o":"m 407 -14 b 762 475 643 -14 762 148 b 407 977 762 810 643 977 b 52 475 171 977 52 810 b 407 -14 52 148 171 -14 z m 407 111 b 194 475 265 111 194 232 b 407 852 194 727 265 852 b 620 475 549 852 620 727 b 407 111 620 232 549 111 z m 144 1072 l 669 1072 l 669 1199 l 144 1199 z m 318 1275 l 475 1275 l 659 1444 l 467 1444 z "},"Ṑ":{"ha":814,"x_min":0,"x_max":0,"o":"m 407 -14 b 762 475 643 -14 762 148 b 407 977 762 810 643 977 b 52 475 171 977 52 810 b 407 -14 52 148 171 -14 z m 407 111 b 194 475 265 111 194 232 b 407 852 194 727 265 852 b 620 475 549 852 620 727 b 407 111 620 232 549 111 z m 144 1072 l 669 1072 l 669 1199 l 144 1199 z m 345 1275 l 503 1275 l 353 1444 l 162 1444 z "},"Ǫ":{"ha":814,"x_min":0,"x_max":0,"o":"m 446 -288 b 507 -281 464 -288 484 -286 l 519 -166 b 464 -174 497 -172 479 -174 b 385 -114 401 -174 385 -138 b 530 4 385 -39 463 -19 b 762 475 684 54 762 210 b 407 977 762 810 643 977 b 52 475 171 977 52 810 b 361 -12 52 170 155 9 l 361 -27 b 283 -157 312 -43 283 -91 b 446 -288 283 -240 342 -288 z m 407 111 b 194 475 265 111 194 232 b 407 852 194 727 265 852 b 620 475 549 852 620 727 b 407 111 620 232 549 111 z "},"Ɔ":{"ha":814,"x_min":0,"x_max":0,"o":"m 343 -14 b 769 484 627 -14 769 174 b 329 977 769 802 618 977 b 79 930 241 977 159 962 l 110 811 b 306 852 174 838 237 852 b 629 478 519 852 629 715 b 351 111 629 249 526 111 b 130 198 262 111 210 132 l 32 102 b 343 -14 113 25 221 -14 z "},"Ø":{"ha":814,"x_min":0,"x_max":0,"o":"m 136 -91 l 211 39 b 407 -14 264 4 329 -14 b 762 475 643 -14 762 148 b 675 848 762 640 733 765 l 755 988 l 664 1039 l 598 925 b 407 977 547 960 483 977 b 52 475 171 977 52 810 b 135 117 52 317 79 198 l 45 -40 z m 407 111 b 280 159 355 111 313 127 l 591 701 b 620 475 610 643 620 568 b 407 111 620 232 549 111 z m 220 265 b 194 475 203 320 194 390 b 407 852 194 727 265 852 b 530 806 456 852 498 836 z "},"Ǿ":{"ha":814,"x_min":0,"x_max":0,"o":"m 136 -91 l 211 39 b 407 -14 264 4 329 -14 b 762 475 643 -14 762 148 b 675 848 762 640 733 765 l 755 988 l 664 1039 l 598 925 b 407 977 547 960 483 977 b 52 475 171 977 52 810 b 135 117 52 317 79 198 l 45 -40 z m 407 111 b 280 159 355 111 313 127 l 591 701 b 620 475 610 643 620 568 b 407 111 620 232 549 111 z m 220 265 b 194 475 203 320 194 390 b 407 852 194 727 265 852 b 530 806 456 852 498 836 z m 318 1072 l 475 1072 l 659 1241 l 467 1241 z "},"Õ":{"ha":814,"x_min":0,"x_max":0,"o":"m 407 -14 b 762 475 643 -14 762 148 b 407 977 762 810 643 977 b 52 475 171 977 52 810 b 407 -14 52 148 171 -14 z m 407 111 b 194 475 265 111 194 232 b 407 852 194 727 265 852 b 620 475 549 852 620 727 b 407 111 620 232 549 111 z m 153 1062 l 271 1062 l 271 1103 b 321 1153 271 1137 288 1153 b 416 1122 344 1153 378 1139 b 547 1085 475 1098 517 1085 b 675 1248 632 1085 675 1139 l 675 1282 l 558 1282 l 558 1241 b 522 1198 558 1212 546 1198 b 422 1232 499 1198 475 1211 b 295 1265 370 1254 332 1265 b 153 1096 200 1265 153 1209 z "},"Œ":{"ha":814,"x_min":0,"x_max":0,"o":"m 353 -14 b 475 0 404 -14 443 0 l 746 0 l 746 122 l 529 122 l 529 421 l 705 421 l 705 543 l 529 543 l 529 841 l 746 841 l 746 963 l 475 963 b 353 977 433 963 401 977 b 52 475 161 977 52 793 b 353 -14 52 164 161 -14 z m 359 111 b 194 475 254 111 194 243 b 353 852 194 714 252 852 b 407 837 373 852 392 846 l 407 115 b 359 111 393 113 376 111 z "},"P":{"ha":814,"x_min":0,"x_max":0,"o":"m 109 0 l 244 0 l 244 298 l 392 298 b 760 644 633 298 760 417 b 392 963 760 854 633 963 l 109 963 z m 244 427 l 244 834 l 392 834 b 617 644 540 834 617 769 b 392 427 617 502 540 427 z "},"Þ":{"ha":814,"x_min":0,"x_max":0,"o":"m 109 0 l 244 0 l 244 149 l 392 149 b 760 481 625 149 760 270 b 392 814 760 693 625 814 l 244 814 l 244 963 l 109 963 z m 244 278 l 244 685 l 392 685 b 617 481 535 685 617 612 b 392 278 617 353 535 278 z "},"Q":{"ha":814,"x_min":0,"x_max":0,"o":"m 631 -312 l 686 -312 l 700 -190 l 631 -190 b 471 -15 524 -190 471 -132 l 471 -9 b 762 475 665 18 762 179 b 407 977 762 810 643 977 b 52 475 171 977 52 810 b 336 -8 52 182 147 22 l 336 -14 b 631 -312 336 -213 435 -312 z m 407 111 b 194 475 265 111 194 232 b 407 852 194 727 265 852 b 620 475 549 852 620 727 b 407 111 620 232 549 111 z "},"R":{"ha":814,"x_min":0,"x_max":0,"o":"m 95 0 l 231 0 l 231 366 l 426 366 b 437 366 430 366 433 366 l 612 0 l 774 0 l 576 393 b 739 671 682 437 739 533 b 426 963 739 857 625 963 l 95 963 z m 231 495 l 231 834 l 426 834 b 597 658 534 834 597 770 b 426 495 597 555 534 495 z "},"Ŕ":{"ha":814,"x_min":0,"x_max":0,"o":"m 95 0 l 231 0 l 231 366 l 426 366 b 437 366 430 366 433 366 l 612 0 l 774 0 l 576 393 b 739 671 682 437 739 533 b 426 963 739 857 625 963 l 95 963 z m 231 495 l 231 834 l 426 834 b 597 658 534 834 597 770 b 426 495 597 555 534 495 z m 291 1072 l 448 1072 l 631 1241 l 440 1241 z "},"Ř":{"ha":814,"x_min":0,"x_max":0,"o":"m 95 0 l 231 0 l 231 366 l 426 366 b 437 366 430 366 433 366 l 612 0 l 774 0 l 576 393 b 739 671 682 437 739 533 b 426 963 739 857 625 963 l 95 963 z m 231 495 l 231 834 l 426 834 b 597 658 534 834 597 770 b 426 495 597 555 534 495 z m 321 1072 l 438 1072 l 614 1248 l 464 1248 l 380 1150 l 296 1248 l 145 1248 z "},"Ŗ":{"ha":814,"x_min":0,"x_max":0,"o":"m 95 0 l 231 0 l 231 366 l 426 366 b 437 366 430 366 433 366 l 612 0 l 774 0 l 576 393 b 739 671 682 437 739 533 b 426 963 739 857 625 963 l 95 963 z m 231 495 l 231 834 l 426 834 b 597 658 534 834 597 770 b 426 495 597 555 534 495 z m 288 -326 l 412 -326 l 491 -95 l 340 -95 z "},"Ṛ":{"ha":814,"x_min":0,"x_max":0,"o":"m 95 0 l 231 0 l 231 366 l 426 366 b 437 366 430 366 433 366 l 612 0 l 774 0 l 576 393 b 739 671 682 437 739 533 b 426 963 739 857 625 963 l 95 963 z m 231 495 l 231 834 l 426 834 b 597 658 534 834 597 770 b 426 495 597 555 534 495 z m 414 -285 b 505 -194 464 -285 505 -244 b 414 -103 505 -143 464 -103 b 323 -194 363 -103 323 -143 b 414 -285 323 -244 363 -285 z "},"S":{"ha":814,"x_min":0,"x_max":0,"o":"m 374 -14 b 717 248 604 -14 717 74 b 498 524 717 380 641 456 l 357 590 b 258 719 292 621 258 656 b 405 852 258 806 312 852 b 625 759 479 852 545 824 l 720 855 b 404 977 627 941 534 977 b 113 712 219 977 113 880 b 317 448 113 587 185 507 l 484 372 b 572 245 541 346 572 305 b 385 111 572 155 511 111 b 105 176 296 111 204 134 l 87 39 b 374 -14 169 4 264 -14 z "},"Ś":{"ha":814,"x_min":0,"x_max":0,"o":"m 374 -14 b 717 248 604 -14 717 74 b 498 524 717 380 641 456 l 357 590 b 258 719 292 621 258 656 b 405 852 258 806 312 852 b 625 759 479 852 545 824 l 720 855 b 404 977 627 941 534 977 b 113 712 219 977 113 880 b 317 448 113 587 185 507 l 484 372 b 572 245 541 346 572 305 b 385 111 572 155 511 111 b 105 176 296 111 204 134 l 87 39 b 374 -14 169 4 264 -14 z m 332 1072 l 489 1072 l 672 1241 l 481 1241 z "},"Š":{"ha":814,"x_min":0,"x_max":0,"o":"m 374 -14 b 717 248 604 -14 717 74 b 498 524 717 380 641 456 l 357 590 b 258 719 292 621 258 656 b 405 852 258 806 312 852 b 625 759 479 852 545 824 l 720 855 b 404 977 627 941 534 977 b 113 712 219 977 113 880 b 317 448 113 587 185 507 l 484 372 b 572 245 541 346 572 305 b 385 111 572 155 511 111 b 105 176 296 111 204 134 l 87 39 b 374 -14 169 4 264 -14 z m 362 1072 l 479 1072 l 655 1248 l 505 1248 l 420 1150 l 336 1248 l 186 1248 z "},"Ş":{"ha":814,"x_min":0,"x_max":0,"o":"m 304 -326 b 561 -181 476 -326 561 -277 b 444 -68 561 -121 522 -84 l 460 -9 b 717 248 632 12 717 97 b 498 524 717 380 641 456 l 357 590 b 258 719 292 621 258 656 b 405 852 258 806 312 852 b 625 759 479 852 545 824 l 720 855 b 404 977 627 941 534 977 b 113 712 219 977 113 880 b 317 448 113 587 185 507 l 484 372 b 572 245 541 346 572 305 b 385 111 572 155 511 111 b 105 176 296 111 204 134 l 87 39 b 363 -14 166 5 258 -12 l 322 -129 b 432 -175 396 -129 432 -144 b 304 -224 432 -208 390 -224 z "},"Ŝ":{"ha":814,"x_min":0,"x_max":0,"o":"m 374 -14 b 717 248 604 -14 717 74 b 498 524 717 380 641 456 l 357 590 b 258 719 292 621 258 656 b 405 852 258 806 312 852 b 625 759 479 852 545 824 l 720 855 b 404 977 627 941 534 977 b 113 712 219 977 113 880 b 317 448 113 587 185 507 l 484 372 b 572 245 541 346 572 305 b 385 111 572 155 511 111 b 105 176 296 111 204 134 l 87 39 b 374 -14 169 4 264 -14 z m 189 1072 l 340 1072 l 424 1169 l 508 1072 l 659 1072 l 482 1248 l 366 1248 z "},"Ș":{"ha":814,"x_min":0,"x_max":0,"o":"m 374 -14 b 717 248 604 -14 717 74 b 498 524 717 380 641 456 l 357 590 b 258 719 292 621 258 656 b 405 852 258 806 312 852 b 625 759 479 852 545 824 l 720 855 b 404 977 627 941 534 977 b 113 712 219 977 113 880 b 317 448 113 587 185 507 l 484 372 b 572 245 541 346 572 305 b 385 111 572 155 511 111 b 105 176 296 111 204 134 l 87 39 b 374 -14 169 4 264 -14 z m 288 -326 l 412 -326 l 491 -95 l 340 -95 z "},"Ṣ":{"ha":814,"x_min":0,"x_max":0,"o":"m 374 -14 b 717 248 604 -14 717 74 b 498 524 717 380 641 456 l 357 590 b 258 719 292 621 258 656 b 405 852 258 806 312 852 b 625 759 479 852 545 824 l 720 855 b 404 977 627 941 534 977 b 113 712 219 977 113 880 b 317 448 113 587 185 507 l 484 372 b 572 245 541 346 572 305 b 385 111 572 155 511 111 b 105 176 296 111 204 134 l 87 39 b 374 -14 169 4 264 -14 z m 414 -285 b 505 -194 464 -285 505 -244 b 414 -103 505 -143 464 -103 b 323 -194 363 -103 323 -143 b 414 -285 323 -244 363 -285 z "},"ẞ":{"ha":814,"x_min":0,"x_max":0,"o":"m 95 0 l 231 0 l 231 631 b 445 848 231 783 294 848 b 566 814 486 848 526 836 l 370 511 l 489 477 b 640 293 585 450 640 380 b 459 117 640 181 574 117 b 329 129 417 117 370 121 l 311 2 b 448 -14 345 -7 395 -14 b 785 302 662 -14 785 102 b 568 586 785 447 707 548 l 749 861 l 749 861 b 445 977 661 939 560 977 b 95 631 199 977 95 873 z "},"Ə":{"ha":814,"x_min":0,"x_max":0,"o":"m 407 -14 b 762 475 643 -14 762 148 b 339 977 762 810 620 977 b 114 945 261 977 185 966 l 133 825 b 339 852 197 843 267 852 b 617 541 509 852 602 749 l 54 541 b 52 461 52 516 52 489 b 407 -14 52 143 171 -14 z m 618 412 b 407 111 606 211 536 111 b 195 412 275 111 205 211 z "},"T":{"ha":814,"x_min":0,"x_max":0,"o":"m 339 0 l 475 0 l 475 834 l 760 834 l 760 963 l 54 963 l 54 834 l 339 834 z "},"Ŧ":{"ha":814,"x_min":0,"x_max":0,"o":"m 130 398 l 339 398 l 339 0 l 475 0 l 475 398 l 684 398 l 684 527 l 475 527 l 475 834 l 760 834 l 760 963 l 54 963 l 54 834 l 339 834 l 339 527 l 130 527 z "},"Ť":{"ha":814,"x_min":0,"x_max":0,"o":"m 339 0 l 475 0 l 475 834 l 760 834 l 760 963 l 54 963 l 54 834 l 339 834 z m 349 1072 l 465 1072 l 642 1248 l 491 1248 l 407 1150 l 323 1248 l 172 1248 z "},"Ţ":{"ha":814,"x_min":0,"x_max":0,"o":"m 339 0 l 357 0 l 312 -129 b 422 -175 386 -129 422 -144 b 294 -224 422 -208 380 -224 l 294 -326 b 551 -181 466 -326 551 -277 b 434 -68 551 -121 512 -84 l 451 -3 l 409 0 l 475 0 l 475 834 l 760 834 l 760 963 l 54 963 l 54 834 l 339 834 z "},"Ț":{"ha":814,"x_min":0,"x_max":0,"o":"m 339 0 l 475 0 l 475 834 l 760 834 l 760 963 l 54 963 l 54 834 l 339 834 z m 278 -326 l 401 -326 l 481 -95 l 330 -95 z "},"Ⱦ":{"ha":814,"x_min":0,"x_max":0,"o":"m 243 -237 l 339 20 l 339 0 l 475 0 l 475 383 l 644 834 l 760 834 l 760 963 l 692 963 l 755 1134 l 673 1164 l 598 963 l 54 963 l 54 834 l 339 834 l 339 269 l 161 -208 z m 475 632 l 475 834 l 550 834 z "},"Ṯ":{"ha":814,"x_min":0,"x_max":0,"o":"m 339 0 l 475 0 l 475 834 l 760 834 l 760 963 l 54 963 l 54 834 l 339 834 z m 112 -269 l 695 -269 l 695 -141 l 112 -141 z "},"U":{"ha":814,"x_min":0,"x_max":0,"o":"m 404 -14 b 719 309 610 -14 719 94 l 719 963 l 583 963 l 583 309 b 407 115 583 180 524 115 b 231 309 285 115 231 180 l 231 963 l 95 963 l 95 309 b 404 -14 95 94 198 -14 z "},"Ú":{"ha":814,"x_min":0,"x_max":0,"o":"m 404 -14 b 719 309 610 -14 719 94 l 719 963 l 583 963 l 583 309 b 407 115 583 180 524 115 b 231 309 285 115 231 180 l 231 963 l 95 963 l 95 309 b 404 -14 95 94 198 -14 z m 318 1072 l 475 1072 l 659 1241 l 467 1241 z "},"Ŭ":{"ha":814,"x_min":0,"x_max":0,"o":"m 404 -14 b 719 309 610 -14 719 94 l 719 963 l 583 963 l 583 309 b 407 115 583 180 524 115 b 231 309 285 115 231 180 l 231 963 l 95 963 l 95 309 b 404 -14 95 94 198 -14 z m 407 1065 b 661 1261 568 1065 661 1137 l 542 1261 b 407 1157 542 1195 492 1157 b 272 1261 321 1157 272 1195 l 153 1261 b 407 1065 153 1137 246 1065 z "},"Û":{"ha":814,"x_min":0,"x_max":0,"o":"m 404 -14 b 719 309 610 -14 719 94 l 719 963 l 583 963 l 583 309 b 407 115 583 180 524 115 b 231 309 285 115 231 180 l 231 963 l 95 963 l 95 309 b 404 -14 95 94 198 -14 z m 176 1072 l 326 1072 l 410 1169 l 494 1072 l 645 1072 l 469 1248 l 352 1248 z "},"Ü":{"ha":814,"x_min":0,"x_max":0,"o":"m 404 -14 b 719 309 610 -14 719 94 l 719 963 l 583 963 l 583 309 b 407 115 583 180 524 115 b 231 309 285 115 231 180 l 231 963 l 95 963 l 95 309 b 404 -14 95 94 198 -14 z m 266 1072 b 357 1162 316 1072 357 1112 b 266 1253 357 1213 316 1253 b 175 1162 216 1253 175 1213 b 266 1072 175 1112 216 1072 z m 548 1072 b 639 1162 598 1072 639 1112 b 548 1253 639 1213 598 1253 b 457 1162 498 1253 457 1213 b 548 1072 457 1112 498 1072 z "},"Ụ":{"ha":814,"x_min":0,"x_max":0,"o":"m 404 -14 b 719 309 610 -14 719 94 l 719 963 l 583 963 l 583 309 b 407 115 583 180 524 115 b 231 309 285 115 231 180 l 231 963 l 95 963 l 95 309 b 404 -14 95 94 198 -14 z m 407 -285 b 498 -194 457 -285 498 -244 b 407 -103 498 -143 457 -103 b 316 -194 357 -103 316 -143 b 407 -285 316 -244 357 -285 z "},"Ù":{"ha":814,"x_min":0,"x_max":0,"o":"m 404 -14 b 719 309 610 -14 719 94 l 719 963 l 583 963 l 583 309 b 407 115 583 180 524 115 b 231 309 285 115 231 180 l 231 963 l 95 963 l 95 309 b 404 -14 95 94 198 -14 z m 345 1072 l 503 1072 l 353 1241 l 162 1241 z "},"Ủ":{"ha":814,"x_min":0,"x_max":0,"o":"m 404 -14 b 719 309 610 -14 719 94 l 719 963 l 583 963 l 583 309 b 407 115 583 180 524 115 b 231 309 285 115 231 180 l 231 963 l 95 963 l 95 309 b 404 -14 95 94 198 -14 z m 361 1037 l 466 1037 b 486 1061 466 1046 471 1053 b 566 1181 545 1095 566 1126 b 412 1291 566 1255 515 1291 b 241 1240 335 1291 278 1274 l 287 1160 b 398 1189 318 1179 355 1189 b 454 1154 435 1189 454 1175 b 406 1104 454 1140 441 1126 b 361 1051 373 1082 361 1067 z "},"Ư":{"ha":814,"x_min":0,"x_max":0,"o":"m 404 -14 b 719 309 610 -14 719 94 l 719 873 b 880 1121 827 909 880 991 l 750 1121 b 625 970 750 1033 709 983 l 583 963 l 583 309 b 407 115 583 180 524 115 b 231 309 285 115 231 180 l 231 963 l 95 963 l 95 309 b 404 -14 95 94 198 -14 z "},"Ứ":{"ha":814,"x_min":0,"x_max":0,"o":"m 404 -14 b 719 309 610 -14 719 94 l 719 873 b 880 1121 827 909 880 991 l 750 1121 b 625 970 750 1033 709 983 l 583 963 l 583 309 b 407 115 583 180 524 115 b 231 309 285 115 231 180 l 231 963 l 95 963 l 95 309 b 404 -14 95 94 198 -14 z m 318 1072 l 475 1072 l 659 1241 l 467 1241 z "},"Ự":{"ha":814,"x_min":0,"x_max":0,"o":"m 404 -14 b 719 309 610 -14 719 94 l 719 873 b 880 1121 827 909 880 991 l 750 1121 b 625 970 750 1033 709 983 l 583 963 l 583 309 b 407 115 583 180 524 115 b 231 309 285 115 231 180 l 231 963 l 95 963 l 95 309 b 404 -14 95 94 198 -14 z m 407 -285 b 498 -194 457 -285 498 -244 b 407 -103 498 -143 457 -103 b 316 -194 357 -103 316 -143 b 407 -285 316 -244 357 -285 z "},"Ừ":{"ha":814,"x_min":0,"x_max":0,"o":"m 404 -14 b 719 309 610 -14 719 94 l 719 873 b 880 1121 827 909 880 991 l 750 1121 b 625 970 750 1033 709 983 l 583 963 l 583 309 b 407 115 583 180 524 115 b 231 309 285 115 231 180 l 231 963 l 95 963 l 95 309 b 404 -14 95 94 198 -14 z m 345 1072 l 503 1072 l 353 1241 l 162 1241 z "},"Ử":{"ha":814,"x_min":0,"x_max":0,"o":"m 404 -14 b 719 309 610 -14 719 94 l 719 873 b 880 1121 827 909 880 991 l 750 1121 b 625 970 750 1033 709 983 l 583 963 l 583 309 b 407 115 583 180 524 115 b 231 309 285 115 231 180 l 231 963 l 95 963 l 95 309 b 404 -14 95 94 198 -14 z m 361 1037 l 466 1037 b 486 1061 466 1046 471 1053 b 566 1181 545 1095 566 1126 b 412 1291 566 1255 515 1291 b 241 1240 335 1291 278 1274 l 287 1160 b 398 1189 318 1179 355 1189 b 454 1154 435 1189 454 1175 b 406 1104 454 1140 441 1126 b 361 1051 373 1082 361 1067 z "},"Ữ":{"ha":814,"x_min":0,"x_max":0,"o":"m 404 -14 b 719 309 610 -14 719 94 l 719 873 b 880 1121 827 909 880 991 l 750 1121 b 625 970 750 1033 709 983 l 583 963 l 583 309 b 407 115 583 180 524 115 b 231 309 285 115 231 180 l 231 963 l 95 963 l 95 309 b 404 -14 95 94 198 -14 z m 153 1062 l 271 1062 l 271 1103 b 321 1153 271 1137 288 1153 b 416 1122 344 1153 378 1139 b 547 1085 475 1098 517 1085 b 675 1248 632 1085 675 1139 l 675 1282 l 558 1282 l 558 1241 b 522 1198 558 1212 546 1198 b 422 1232 499 1198 475 1211 b 295 1265 370 1254 332 1265 b 153 1096 200 1265 153 1209 z "},"Ű":{"ha":814,"x_min":0,"x_max":0,"o":"m 404 -14 b 719 309 610 -14 719 94 l 719 963 l 583 963 l 583 309 b 407 115 583 180 524 115 b 231 309 285 115 231 180 l 231 963 l 95 963 l 95 309 b 404 -14 95 94 198 -14 z m 169 1072 l 333 1072 l 469 1241 l 277 1241 z m 447 1072 l 611 1072 l 747 1241 l 555 1241 z "},"Ū":{"ha":814,"x_min":0,"x_max":0,"o":"m 404 -14 b 719 309 610 -14 719 94 l 719 963 l 583 963 l 583 309 b 407 115 583 180 524 115 b 231 309 285 115 231 180 l 231 963 l 95 963 l 95 309 b 404 -14 95 94 198 -14 z m 144 1072 l 669 1072 l 669 1199 l 144 1199 z "},"Ų":{"ha":814,"x_min":0,"x_max":0,"o":"m 453 -288 b 514 -281 471 -288 491 -286 l 526 -166 b 471 -174 504 -172 486 -174 b 392 -114 408 -174 392 -138 b 522 1 392 -44 458 -20 b 719 309 652 37 719 139 l 719 963 l 583 963 l 583 309 b 407 115 583 180 524 115 b 231 309 285 115 231 180 l 231 963 l 95 963 l 95 309 b 368 -12 95 106 186 0 l 368 -27 b 290 -157 319 -43 290 -91 b 453 -288 290 -240 349 -288 z "},"Ʊ":{"ha":814,"x_min":0,"x_max":0,"o":"m 71 963 l 71 837 l 237 837 l 237 825 b 52 434 113 785 52 654 b 407 -14 52 149 181 -14 b 762 434 633 -14 762 149 b 593 823 762 658 706 787 l 593 837 l 743 837 l 743 963 l 471 963 l 471 837 b 620 434 570 800 620 665 b 407 111 620 229 543 111 b 194 434 271 111 194 229 b 359 837 194 661 249 795 l 359 963 z "},"Ů":{"ha":814,"x_min":0,"x_max":0,"o":"m 404 -14 b 719 309 610 -14 719 94 l 719 963 l 583 963 l 583 309 b 407 115 583 180 524 115 b 231 309 285 115 231 180 l 231 963 l 95 963 l 95 309 b 404 -14 95 94 198 -14 z m 407 1009 b 568 1149 509 1009 568 1060 b 407 1289 568 1238 509 1289 b 245 1149 304 1289 245 1238 b 407 1009 245 1060 304 1009 z m 407 1088 b 342 1149 365 1088 342 1109 b 407 1211 342 1188 365 1211 b 472 1149 449 1211 472 1188 b 407 1088 472 1109 449 1088 z "},"Ũ":{"ha":814,"x_min":0,"x_max":0,"o":"m 404 -14 b 719 309 610 -14 719 94 l 719 963 l 583 963 l 583 309 b 407 115 583 180 524 115 b 231 309 285 115 231 180 l 231 963 l 95 963 l 95 309 b 404 -14 95 94 198 -14 z m 153 1062 l 271 1062 l 271 1103 b 321 1153 271 1137 288 1153 b 416 1122 344 1153 378 1139 b 547 1085 475 1098 517 1085 b 675 1248 632 1085 675 1139 l 675 1282 l 558 1282 l 558 1241 b 522 1198 558 1212 546 1198 b 422 1232 499 1198 475 1211 b 295 1265 370 1254 332 1265 b 153 1096 200 1265 153 1209 z "},"V":{"ha":814,"x_min":0,"x_max":0,"o":"m 302 0 l 512 0 l 783 963 l 638 963 l 413 115 l 401 115 l 176 963 l 31 963 z "},"Ɣ":{"ha":814,"x_min":0,"x_max":0,"o":"m 407 -313 b 621 -140 543 -313 621 -251 b 524 41 621 -81 597 -24 l 783 963 l 638 963 l 413 115 l 401 115 l 176 963 l 31 963 l 290 41 b 193 -140 216 -24 193 -81 b 407 -313 193 -251 271 -313 z m 328 -110 b 407 20 328 -78 347 -46 b 486 -110 467 -46 486 -78 b 407 -191 486 -161 458 -191 b 328 -110 355 -191 328 -161 z "},"Ʋ":{"ha":814,"x_min":0,"x_max":0,"o":"m 426 963 l 426 834 l 486 834 b 583 726 557 834 583 806 l 583 309 b 407 115 583 180 524 115 b 231 309 285 115 231 180 l 231 963 l 95 963 l 95 309 b 404 -14 95 94 198 -14 b 719 309 610 -14 719 94 l 719 760 b 513 963 719 909 665 963 z "},"Ʌ":{"ha":814,"x_min":0,"x_max":0,"o":"m 31 0 l 180 0 l 401 846 l 413 846 l 634 0 l 783 0 l 505 963 l 309 963 z "},"W":{"ha":814,"x_min":0,"x_max":0,"o":"m 122 0 l 332 0 l 403 585 l 411 585 l 482 0 l 692 0 l 800 963 l 658 963 l 576 109 l 563 109 l 475 719 l 340 719 l 251 109 l 237 109 l 156 963 l 14 963 z "},"Ẃ":{"ha":814,"x_min":0,"x_max":0,"o":"m 122 0 l 332 0 l 403 585 l 411 585 l 482 0 l 692 0 l 800 963 l 658 963 l 576 109 l 563 109 l 475 719 l 340 719 l 251 109 l 237 109 l 156 963 l 14 963 z m 318 1072 l 475 1072 l 659 1241 l 467 1241 z "},"Ŵ":{"ha":814,"x_min":0,"x_max":0,"o":"m 122 0 l 332 0 l 403 585 l 411 585 l 482 0 l 692 0 l 800 963 l 658 963 l 576 109 l 563 109 l 475 719 l 340 719 l 251 109 l 237 109 l 156 963 l 14 963 z m 176 1072 l 326 1072 l 410 1169 l 494 1072 l 645 1072 l 469 1248 l 352 1248 z "},"Ẅ":{"ha":814,"x_min":0,"x_max":0,"o":"m 122 0 l 332 0 l 403 585 l 411 585 l 482 0 l 692 0 l 800 963 l 658 963 l 576 109 l 563 109 l 475 719 l 340 719 l 251 109 l 237 109 l 156 963 l 14 963 z m 266 1072 b 357 1162 316 1072 357 1112 b 266 1253 357 1213 316 1253 b 175 1162 216 1253 175 1213 b 266 1072 175 1112 216 1072 z m 548 1072 b 639 1162 598 1072 639 1112 b 548 1253 639 1213 598 1253 b 457 1162 498 1253 457 1213 b 548 1072 457 1112 498 1072 z "},"Ẁ":{"ha":814,"x_min":0,"x_max":0,"o":"m 122 0 l 332 0 l 403 585 l 411 585 l 482 0 l 692 0 l 800 963 l 658 963 l 576 109 l 563 109 l 475 719 l 340 719 l 251 109 l 237 109 l 156 963 l 14 963 z m 345 1072 l 503 1072 l 353 1241 l 162 1241 z "},"X":{"ha":814,"x_min":0,"x_max":0,"o":"m 614 0 l 770 0 l 475 477 l 770 963 l 614 963 l 407 594 l 200 963 l 44 963 l 339 477 l 44 0 l 200 0 l 407 361 z "},"Y":{"ha":814,"x_min":0,"x_max":0,"o":"m 339 0 l 475 0 l 475 341 l 797 963 l 648 963 l 413 481 l 401 481 l 166 963 l 17 963 l 339 341 z "},"Ý":{"ha":814,"x_min":0,"x_max":0,"o":"m 339 0 l 475 0 l 475 341 l 797 963 l 648 963 l 413 481 l 401 481 l 166 963 l 17 963 l 339 341 z m 318 1072 l 475 1072 l 659 1241 l 467 1241 z "},"Ŷ":{"ha":814,"x_min":0,"x_max":0,"o":"m 339 0 l 475 0 l 475 341 l 797 963 l 648 963 l 413 481 l 401 481 l 166 963 l 17 963 l 339 341 z m 176 1072 l 326 1072 l 410 1169 l 494 1072 l 645 1072 l 469 1248 l 352 1248 z "},"Ÿ":{"ha":814,"x_min":0,"x_max":0,"o":"m 339 0 l 475 0 l 475 341 l 797 963 l 648 963 l 413 481 l 401 481 l 166 963 l 17 963 l 339 341 z m 266 1072 b 357 1162 316 1072 357 1112 b 266 1253 357 1213 316 1253 b 175 1162 216 1253 175 1213 b 266 1072 175 1112 216 1072 z m 548 1072 b 639 1162 598 1072 639 1112 b 548 1253 639 1213 598 1253 b 457 1162 498 1253 457 1213 b 548 1072 457 1112 498 1072 z "},"Ỵ":{"ha":814,"x_min":0,"x_max":0,"o":"m 339 0 l 475 0 l 475 341 l 797 963 l 648 963 l 413 481 l 401 481 l 166 963 l 17 963 l 339 341 z m 407 -285 b 498 -194 457 -285 498 -244 b 407 -103 498 -143 457 -103 b 316 -194 357 -103 316 -143 b 407 -285 316 -244 357 -285 z "},"Ỳ":{"ha":814,"x_min":0,"x_max":0,"o":"m 339 0 l 475 0 l 475 341 l 797 963 l 648 963 l 413 481 l 401 481 l 166 963 l 17 963 l 339 341 z m 345 1072 l 503 1072 l 353 1241 l 162 1241 z "},"Ỷ":{"ha":814,"x_min":0,"x_max":0,"o":"m 339 0 l 475 0 l 475 341 l 797 963 l 648 963 l 413 481 l 401 481 l 166 963 l 17 963 l 339 341 z m 361 1037 l 466 1037 b 486 1061 466 1046 471 1053 b 566 1181 545 1095 566 1126 b 412 1291 566 1255 515 1291 b 241 1240 335 1291 278 1274 l 287 1160 b 398 1189 318 1179 355 1189 b 454 1154 435 1189 454 1175 b 406 1104 454 1140 441 1126 b 361 1051 373 1082 361 1067 z "},"Ȳ":{"ha":814,"x_min":0,"x_max":0,"o":"m 339 0 l 475 0 l 475 341 l 797 963 l 648 963 l 413 481 l 401 481 l 166 963 l 17 963 l 339 341 z m 144 1072 l 669 1072 l 669 1199 l 144 1199 z "},"Ỹ":{"ha":814,"x_min":0,"x_max":0,"o":"m 339 0 l 475 0 l 475 341 l 797 963 l 648 963 l 413 481 l 401 481 l 166 963 l 17 963 l 339 341 z m 153 1062 l 271 1062 l 271 1103 b 321 1153 271 1137 288 1153 b 416 1122 344 1153 378 1139 b 547 1085 475 1098 517 1085 b 675 1248 632 1085 675 1139 l 675 1282 l 558 1282 l 558 1241 b 522 1198 558 1212 546 1198 b 422 1232 499 1198 475 1211 b 295 1265 370 1254 332 1265 b 153 1096 200 1265 153 1209 z "},"Z":{"ha":814,"x_min":0,"x_max":0,"o":"m 102 0 l 726 0 l 726 129 l 258 129 l 712 834 l 712 963 l 102 963 l 102 834 l 552 834 l 102 129 z "},"Ź":{"ha":814,"x_min":0,"x_max":0,"o":"m 102 0 l 726 0 l 726 129 l 258 129 l 712 834 l 712 963 l 102 963 l 102 834 l 552 834 l 102 129 z m 318 1072 l 475 1072 l 659 1241 l 467 1241 z "},"Ž":{"ha":814,"x_min":0,"x_max":0,"o":"m 102 0 l 726 0 l 726 129 l 258 129 l 712 834 l 712 963 l 102 963 l 102 834 l 552 834 l 102 129 z m 349 1072 l 465 1072 l 642 1248 l 491 1248 l 407 1150 l 323 1248 l 172 1248 z "},"Ż":{"ha":814,"x_min":0,"x_max":0,"o":"m 102 0 l 726 0 l 726 129 l 258 129 l 712 834 l 712 963 l 102 963 l 102 834 l 552 834 l 102 129 z m 407 1072 b 498 1162 457 1072 498 1112 b 407 1253 498 1213 457 1253 b 316 1162 357 1253 316 1213 b 407 1072 316 1112 357 1072 z "},"ᴀ":{"ha":814,"x_min":0,"x_max":0,"o":"m 31 0 l 175 0 l 233 155 l 580 155 l 638 0 l 782 0 l 495 732 l 318 732 z m 275 267 l 401 600 l 412 600 l 538 267 z "},"ɢ":{"ha":814,"x_min":0,"x_max":0,"o":"m 463 -10 b 754 20 599 -10 713 12 l 754 387 l 441 387 l 441 258 l 610 258 l 610 128 b 479 119 573 123 529 119 b 207 372 299 119 207 203 b 492 613 207 526 312 613 b 692 559 574 613 640 593 l 761 675 b 484 742 713 718 610 742 b 58 367 214 742 58 605 b 463 -10 58 115 193 -10 z "},"ɪ":{"ha":814,"x_min":0,"x_max":0,"o":"m 114 0 l 700 0 l 700 118 l 479 118 l 479 601 l 700 601 l 700 719 l 114 719 l 114 601 l 335 601 l 335 118 l 114 118 z "},"ʟ":{"ha":814,"x_min":0,"x_max":0,"o":"m 108 0 l 747 0 l 747 118 l 252 118 l 252 732 l 108 732 z "},"a":{"ha":814,"x_min":0,"x_max":0,"o":"m 555 -7 l 785 0 l 785 115 l 663 130 l 663 430 b 312 724 663 620 549 720 l 167 726 l 153 598 l 326 593 b 526 452 458 590 526 547 l 526 418 b 391 430 487 427 442 430 b 65 194 183 430 65 346 b 301 -14 65 62 151 -14 b 534 152 435 -14 524 41 l 548 152 z m 526 308 l 526 258 b 324 102 526 182 458 102 b 201 201 245 102 201 138 b 388 315 201 276 265 315 b 526 308 435 315 480 315 z "},"á":{"ha":814,"x_min":0,"x_max":0,"o":"m 555 -7 l 785 0 l 785 115 l 663 130 l 663 430 b 312 724 663 620 549 720 l 167 726 l 153 598 l 326 593 b 526 452 458 590 526 547 l 526 418 b 391 430 487 427 442 430 b 65 194 183 430 65 346 b 301 -14 65 62 151 -14 b 534 152 435 -14 524 41 l 548 152 z m 526 308 l 526 258 b 324 102 526 182 458 102 b 201 201 245 102 201 138 b 388 315 201 276 265 315 b 526 308 435 315 480 315 z m 325 846 l 455 846 l 584 1104 l 440 1104 z "},"ă":{"ha":814,"x_min":0,"x_max":0,"o":"m 555 -7 l 785 0 l 785 115 l 663 130 l 663 430 b 312 724 663 620 549 720 l 167 726 l 153 598 l 326 593 b 526 452 458 590 526 547 l 526 418 b 391 430 487 427 442 430 b 65 194 183 430 65 346 b 301 -14 65 62 151 -14 b 534 152 435 -14 524 41 l 548 152 z m 393 840 b 630 1058 544 840 630 919 l 630 1087 l 511 1087 l 511 1058 b 393 932 511 977 469 932 b 275 1058 317 932 275 977 l 275 1087 l 157 1087 l 157 1058 b 393 840 157 919 243 840 z m 526 308 l 526 258 b 324 102 526 182 458 102 b 201 201 245 102 201 138 b 388 315 201 276 265 315 b 526 308 435 315 480 315 z "},"ắ":{"ha":814,"x_min":0,"x_max":0,"o":"m 555 -7 l 785 0 l 785 115 l 663 130 l 663 430 b 312 724 663 620 549 720 l 167 726 l 153 598 l 326 593 b 526 452 458 590 526 547 l 526 418 b 391 430 487 427 442 430 b 65 194 183 430 65 346 b 301 -14 65 62 151 -14 b 534 152 435 -14 524 41 l 548 152 z m 393 840 b 630 1058 544 840 630 919 l 630 1087 l 511 1087 l 511 1058 b 393 932 511 977 469 932 b 275 1058 317 932 275 977 l 275 1087 l 157 1087 l 157 1058 b 393 840 157 919 243 840 z m 526 308 l 526 258 b 324 102 526 182 458 102 b 201 201 245 102 201 138 b 388 315 201 276 265 315 b 526 308 435 315 480 315 z m 325 1172 l 455 1172 l 584 1430 l 440 1430 z "},"ặ":{"ha":814,"x_min":0,"x_max":0,"o":"m 555 -7 l 785 0 l 785 115 l 663 130 l 663 430 b 312 724 663 620 549 720 l 167 726 l 153 598 l 326 593 b 526 452 458 590 526 547 l 526 418 b 391 430 487 427 442 430 b 65 194 183 430 65 346 b 301 -14 65 62 151 -14 b 534 152 435 -14 524 41 l 548 152 z m 393 840 b 630 1058 544 840 630 919 l 630 1087 l 511 1087 l 511 1058 b 393 932 511 977 469 932 b 275 1058 317 932 275 977 l 275 1087 l 157 1087 l 157 1058 b 393 840 157 919 243 840 z m 526 308 l 526 258 b 324 102 526 182 458 102 b 201 201 245 102 201 138 b 388 315 201 276 265 315 b 526 308 435 315 480 315 z m 407 -285 b 498 -194 457 -285 498 -244 b 407 -103 498 -143 457 -103 b 316 -194 357 -103 316 -143 b 407 -285 316 -244 357 -285 z "},"ằ":{"ha":814,"x_min":0,"x_max":0,"o":"m 555 -7 l 785 0 l 785 115 l 663 130 l 663 430 b 312 724 663 620 549 720 l 167 726 l 153 598 l 326 593 b 526 452 458 590 526 547 l 526 418 b 391 430 487 427 442 430 b 65 194 183 430 65 346 b 301 -14 65 62 151 -14 b 534 152 435 -14 524 41 l 548 152 z m 393 840 b 630 1058 544 840 630 919 l 630 1087 l 511 1087 l 511 1058 b 393 932 511 977 469 932 b 275 1058 317 932 275 977 l 275 1087 l 157 1087 l 157 1058 b 393 840 157 919 243 840 z m 526 308 l 526 258 b 324 102 526 182 458 102 b 201 201 245 102 201 138 b 388 315 201 276 265 315 b 526 308 435 315 480 315 z m 342 1172 l 472 1172 l 357 1430 l 213 1430 z "},"ẳ":{"ha":814,"x_min":0,"x_max":0,"o":"m 555 -7 l 785 0 l 785 115 l 663 130 l 663 430 b 312 724 663 620 549 720 l 167 726 l 153 598 l 326 593 b 526 452 458 590 526 547 l 526 418 b 391 430 487 427 442 430 b 65 194 183 430 65 346 b 301 -14 65 62 151 -14 b 534 152 435 -14 524 41 l 548 152 z m 393 840 b 630 1058 544 840 630 919 l 630 1087 l 511 1087 l 511 1058 b 393 932 511 977 469 932 b 275 1058 317 932 275 977 l 275 1087 l 157 1087 l 157 1058 b 393 840 157 919 243 840 z m 526 308 l 526 258 b 324 102 526 182 458 102 b 201 201 245 102 201 138 b 388 315 201 276 265 315 b 526 308 435 315 480 315 z m 340 1172 l 446 1172 l 446 1178 b 526 1342 446 1249 526 1256 b 385 1473 526 1421 470 1473 b 241 1422 326 1473 269 1453 l 287 1341 b 371 1371 308 1359 341 1371 b 413 1333 396 1371 413 1356 b 340 1196 413 1287 340 1267 z "},"ẵ":{"ha":814,"x_min":0,"x_max":0,"o":"m 555 -7 l 785 0 l 785 115 l 663 130 l 663 430 b 312 724 663 620 549 720 l 167 726 l 153 598 l 326 593 b 526 452 458 590 526 547 l 526 418 b 391 430 487 427 442 430 b 65 194 183 430 65 346 b 301 -14 65 62 151 -14 b 534 152 435 -14 524 41 l 548 152 z m 156 1177 l 274 1177 l 274 1211 b 324 1261 274 1245 291 1261 b 413 1227 353 1261 383 1242 b 524 1194 460 1204 498 1194 b 651 1356 608 1194 651 1248 l 651 1411 l 534 1411 l 534 1350 b 498 1306 534 1320 522 1306 b 399 1344 475 1306 444 1322 b 298 1374 364 1361 334 1374 b 156 1204 203 1374 156 1318 z m 393 840 b 630 1058 544 840 630 919 l 630 1087 l 511 1087 l 511 1058 b 393 932 511 977 469 932 b 275 1058 317 932 275 977 l 275 1087 l 157 1087 l 157 1058 b 393 840 157 919 243 840 z m 526 308 l 526 258 b 324 102 526 182 458 102 b 201 201 245 102 201 138 b 388 315 201 276 265 315 b 526 308 435 315 480 315 z "},"ǎ":{"ha":814,"x_min":0,"x_max":0,"o":"m 555 -7 l 785 0 l 785 115 l 663 130 l 663 430 b 312 724 663 620 549 720 l 167 726 l 153 598 l 326 593 b 526 452 458 590 526 547 l 526 418 b 391 430 487 427 442 430 b 65 194 183 430 65 346 b 301 -14 65 62 151 -14 b 534 152 435 -14 524 41 l 548 152 z m 335 821 l 452 821 l 614 1078 l 471 1078 l 393 925 l 316 1078 l 172 1078 z m 526 308 l 526 258 b 324 102 526 182 458 102 b 201 201 245 102 201 138 b 388 315 201 276 265 315 b 526 308 435 315 480 315 z "},"â":{"ha":814,"x_min":0,"x_max":0,"o":"m 555 -7 l 785 0 l 785 115 l 663 130 l 663 430 b 312 724 663 620 549 720 l 167 726 l 153 598 l 326 593 b 526 452 458 590 526 547 l 526 418 b 391 430 487 427 442 430 b 65 194 183 430 65 346 b 301 -14 65 62 151 -14 b 534 152 435 -14 524 41 l 548 152 z m 172 846 l 316 846 l 393 1000 l 471 846 l 614 846 l 452 1104 l 335 1104 z m 526 308 l 526 258 b 324 102 526 182 458 102 b 201 201 245 102 201 138 b 388 315 201 276 265 315 b 526 308 435 315 480 315 z "},"ấ":{"ha":814,"x_min":0,"x_max":0,"o":"m 555 -7 l 785 0 l 785 115 l 663 130 l 663 430 b 312 724 663 620 549 720 l 167 726 l 153 598 l 326 593 b 526 452 458 590 526 547 l 526 418 b 391 430 487 427 442 430 b 65 194 183 430 65 346 b 301 -14 65 62 151 -14 b 534 152 435 -14 524 41 l 548 152 z m 172 846 l 316 846 l 393 1000 l 471 846 l 614 846 l 452 1104 l 335 1104 z m 526 308 l 526 258 b 324 102 526 182 458 102 b 201 201 245 102 201 138 b 388 315 201 276 265 315 b 526 308 435 315 480 315 z m 567 1077 l 697 1077 l 826 1335 l 682 1335 z "},"ậ":{"ha":814,"x_min":0,"x_max":0,"o":"m 555 -7 l 785 0 l 785 115 l 663 130 l 663 430 b 312 724 663 620 549 720 l 167 726 l 153 598 l 326 593 b 526 452 458 590 526 547 l 526 418 b 391 430 487 427 442 430 b 65 194 183 430 65 346 b 301 -14 65 62 151 -14 b 534 152 435 -14 524 41 l 548 152 z m 172 846 l 316 846 l 393 1000 l 471 846 l 614 846 l 452 1104 l 335 1104 z m 526 308 l 526 258 b 324 102 526 182 458 102 b 201 201 245 102 201 138 b 388 315 201 276 265 315 b 526 308 435 315 480 315 z m 407 -285 b 498 -194 457 -285 498 -244 b 407 -103 498 -143 457 -103 b 316 -194 357 -103 316 -143 b 407 -285 316 -244 357 -285 z "},"ầ":{"ha":814,"x_min":0,"x_max":0,"o":"m 555 -7 l 785 0 l 785 115 l 663 130 l 663 430 b 312 724 663 620 549 720 l 167 726 l 153 598 l 326 593 b 526 452 458 590 526 547 l 526 418 b 391 430 487 427 442 430 b 65 194 183 430 65 346 b 301 -14 65 62 151 -14 b 534 152 435 -14 524 41 l 548 152 z m 172 846 l 316 846 l 393 1000 l 471 846 l 614 846 l 452 1104 l 335 1104 z m 526 308 l 526 258 b 324 102 526 182 458 102 b 201 201 245 102 201 138 b 388 315 201 276 265 315 b 526 308 435 315 480 315 z m 584 1077 l 714 1077 l 599 1335 l 455 1335 z "},"ẩ":{"ha":814,"x_min":0,"x_max":0,"o":"m 555 -7 l 785 0 l 785 115 l 663 130 l 663 430 b 312 724 663 620 549 720 l 167 726 l 153 598 l 326 593 b 526 452 458 590 526 547 l 526 418 b 391 430 487 427 442 430 b 65 194 183 430 65 346 b 301 -14 65 62 151 -14 b 534 152 435 -14 524 41 l 548 152 z m 172 846 l 316 846 l 393 1000 l 471 846 l 614 846 l 452 1104 l 335 1104 z m 526 308 l 526 258 b 324 102 526 182 458 102 b 201 201 245 102 201 138 b 388 315 201 276 265 315 b 526 308 435 315 480 315 z m 583 1077 l 688 1077 l 688 1083 b 768 1247 688 1154 768 1161 b 627 1378 768 1326 712 1378 b 484 1327 568 1378 511 1358 l 529 1246 b 613 1276 550 1264 583 1276 b 655 1238 638 1276 655 1261 b 583 1101 655 1192 583 1173 z "},"ẫ":{"ha":814,"x_min":0,"x_max":0,"o":"m 555 -7 l 785 0 l 785 115 l 663 130 l 663 430 b 312 724 663 620 549 720 l 167 726 l 153 598 l 326 593 b 526 452 458 590 526 547 l 526 418 b 391 430 487 427 442 430 b 65 194 183 430 65 346 b 301 -14 65 62 151 -14 b 534 152 435 -14 524 41 l 548 152 z m 156 1204 l 274 1204 l 274 1238 b 324 1289 274 1272 291 1289 b 413 1255 353 1289 383 1270 b 524 1221 460 1231 498 1221 b 651 1383 608 1221 651 1275 l 651 1438 l 534 1438 l 534 1377 b 498 1333 534 1348 522 1333 b 399 1371 475 1333 444 1349 b 298 1401 364 1388 334 1401 b 156 1232 203 1401 156 1345 z m 172 846 l 316 846 l 393 1000 l 471 846 l 614 846 l 452 1104 l 335 1104 z m 526 308 l 526 258 b 324 102 526 182 458 102 b 201 201 245 102 201 138 b 388 315 201 276 265 315 b 526 308 435 315 480 315 z "},"ä":{"ha":814,"x_min":0,"x_max":0,"o":"m 555 -7 l 785 0 l 785 115 l 663 130 l 663 430 b 312 724 663 620 549 720 l 167 726 l 153 598 l 326 593 b 526 452 458 590 526 547 l 526 418 b 391 430 487 427 442 430 b 65 194 183 430 65 346 b 301 -14 65 62 151 -14 b 534 152 435 -14 524 41 l 548 152 z m 526 308 l 526 258 b 324 102 526 182 458 102 b 201 201 245 102 201 138 b 388 315 201 276 265 315 b 526 308 435 315 480 315 z m 252 840 b 343 930 302 840 343 880 b 252 1021 343 981 302 1021 b 161 930 202 1021 161 981 b 252 840 161 880 202 840 z m 537 840 b 628 930 587 840 628 880 b 537 1021 628 981 587 1021 b 446 930 487 1021 446 981 b 537 840 446 880 487 840 z "},"ạ":{"ha":814,"x_min":0,"x_max":0,"o":"m 555 -7 l 785 0 l 785 115 l 663 130 l 663 430 b 312 724 663 620 549 720 l 167 726 l 153 598 l 326 593 b 526 452 458 590 526 547 l 526 418 b 391 430 487 427 442 430 b 65 194 183 430 65 346 b 301 -14 65 62 151 -14 b 534 152 435 -14 524 41 l 548 152 z m 526 308 l 526 258 b 324 102 526 182 458 102 b 201 201 245 102 201 138 b 388 315 201 276 265 315 b 526 308 435 315 480 315 z m 407 -285 b 498 -194 457 -285 498 -244 b 407 -103 498 -143 457 -103 b 316 -194 357 -103 316 -143 b 407 -285 316 -244 357 -285 z "},"à":{"ha":814,"x_min":0,"x_max":0,"o":"m 555 -7 l 785 0 l 785 115 l 663 130 l 663 430 b 312 724 663 620 549 720 l 167 726 l 153 598 l 326 593 b 526 452 458 590 526 547 l 526 418 b 391 430 487 427 442 430 b 65 194 183 430 65 346 b 301 -14 65 62 151 -14 b 534 152 435 -14 524 41 l 548 152 z m 526 308 l 526 258 b 324 102 526 182 458 102 b 201 201 245 102 201 138 b 388 315 201 276 265 315 b 526 308 435 315 480 315 z m 342 846 l 472 846 l 357 1104 l 213 1104 z "},"ả":{"ha":814,"x_min":0,"x_max":0,"o":"m 555 -7 l 785 0 l 785 115 l 663 130 l 663 430 b 312 724 663 620 549 720 l 167 726 l 153 598 l 326 593 b 526 452 458 590 526 547 l 526 418 b 391 430 487 427 442 430 b 65 194 183 430 65 346 b 301 -14 65 62 151 -14 b 534 152 435 -14 524 41 l 548 152 z m 526 308 l 526 258 b 324 102 526 182 458 102 b 201 201 245 102 201 138 b 388 315 201 276 265 315 b 526 308 435 315 480 315 z m 340 846 l 446 846 l 446 852 b 526 1017 446 923 526 930 b 385 1147 526 1095 470 1147 b 241 1097 326 1147 269 1127 l 287 1016 b 371 1045 308 1034 341 1045 b 413 1007 396 1045 413 1030 b 340 871 413 962 340 942 z "},"ɑ":{"ha":814,"x_min":0,"x_max":0,"o":"m 338 -14 b 529 130 446 -14 519 35 l 545 130 l 555 -7 l 785 0 l 785 115 l 686 130 l 686 719 l 543 719 l 543 589 l 529 589 b 346 732 517 685 457 732 b 52 353 159 732 52 594 b 338 -14 52 117 156 -14 z m 543 312 b 373 109 543 184 479 109 b 194 353 255 109 194 191 b 380 610 194 517 261 610 b 543 407 482 610 543 535 z "},"ā":{"ha":814,"x_min":0,"x_max":0,"o":"m 555 -7 l 785 0 l 785 115 l 663 130 l 663 430 b 312 724 663 620 549 720 l 167 726 l 153 598 l 326 593 b 526 452 458 590 526 547 l 526 418 b 391 430 487 427 442 430 b 65 194 183 430 65 346 b 301 -14 65 62 151 -14 b 534 152 435 -14 524 41 l 548 152 z m 102 846 l 685 846 l 685 974 l 102 974 z m 526 308 l 526 258 b 324 102 526 182 458 102 b 201 201 245 102 201 138 b 388 315 201 276 265 315 b 526 308 435 315 480 315 z "},"ą":{"ha":814,"x_min":0,"x_max":0,"o":"m 692 -288 b 753 -281 709 -288 732 -286 l 765 -166 b 709 -174 745 -171 725 -174 b 631 -114 659 -174 631 -152 b 762 -1 631 -47 678 -6 l 785 0 l 785 115 l 663 130 l 663 430 b 312 724 663 620 549 720 l 167 726 l 153 598 l 326 593 b 526 452 458 590 526 547 l 526 418 b 391 430 487 427 442 430 b 65 194 183 430 65 346 b 301 -14 65 62 151 -14 b 534 152 435 -14 524 41 l 548 152 l 555 -7 l 606 -5 l 606 -24 b 529 -144 557 -39 529 -83 b 692 -288 529 -235 588 -288 z m 526 308 l 526 258 b 324 102 526 182 458 102 b 201 201 245 102 201 138 b 388 315 201 276 265 315 b 526 308 435 315 480 315 z "},"å":{"ha":814,"x_min":0,"x_max":0,"o":"m 555 -7 l 785 0 l 785 115 l 663 130 l 663 430 b 312 724 663 620 549 720 l 167 726 l 153 598 l 326 593 b 526 452 458 590 526 547 l 526 418 b 391 430 487 427 442 430 b 65 194 183 430 65 346 b 301 -14 65 62 151 -14 b 534 152 435 -14 524 41 l 548 152 z m 393 812 b 555 959 496 812 555 866 b 393 1105 555 1052 496 1105 b 232 959 291 1105 232 1052 b 393 812 232 866 291 812 z m 526 308 l 526 258 b 324 102 526 182 458 102 b 201 201 245 102 201 138 b 388 315 201 276 265 315 b 526 308 435 315 480 315 z m 393 891 b 328 959 351 891 328 916 b 393 1027 328 1002 351 1027 b 458 959 435 1027 458 1002 b 393 891 458 916 435 891 z "},"ǻ":{"ha":814,"x_min":0,"x_max":0,"o":"m 555 -7 l 785 0 l 785 115 l 663 130 l 663 430 b 312 724 663 620 549 720 l 167 726 l 153 598 l 326 593 b 526 452 458 590 526 547 l 526 418 b 391 430 487 427 442 430 b 65 194 183 430 65 346 b 301 -14 65 62 151 -14 b 534 152 435 -14 524 41 l 548 152 z m 393 812 b 555 959 496 812 555 866 b 464 1095 555 1027 522 1075 l 564 1294 l 420 1294 l 332 1098 b 232 959 268 1080 232 1031 b 393 812 232 866 291 812 z m 526 308 l 526 258 b 324 102 526 182 458 102 b 201 201 245 102 201 138 b 388 315 201 276 265 315 b 526 308 435 315 480 315 z m 393 891 b 328 959 351 891 328 916 b 393 1027 328 1002 351 1027 b 458 959 435 1027 458 1002 b 393 891 458 916 435 891 z "},"ã":{"ha":814,"x_min":0,"x_max":0,"o":"m 555 -7 l 785 0 l 785 115 l 663 130 l 663 430 b 312 724 663 620 549 720 l 167 726 l 153 598 l 326 593 b 526 452 458 590 526 547 l 526 418 b 391 430 487 427 442 430 b 65 194 183 430 65 346 b 301 -14 65 62 151 -14 b 534 152 435 -14 524 41 l 548 152 z m 156 852 l 274 852 l 274 886 b 324 936 274 920 291 936 b 413 902 353 936 383 917 b 524 868 460 878 498 868 b 651 1031 608 868 651 922 l 651 1085 l 534 1085 l 534 1024 b 498 981 534 995 522 981 b 399 1019 475 981 444 996 b 298 1048 364 1036 334 1048 b 156 879 203 1048 156 992 z m 526 308 l 526 258 b 324 102 526 182 458 102 b 201 201 245 102 201 138 b 388 315 201 276 265 315 b 526 308 435 315 480 315 z "},"æ":{"ha":814,"x_min":0,"x_max":0,"o":"m 203 -14 b 400 152 324 -14 382 47 l 412 152 b 653 -14 454 43 538 -14 b 768 -1 690 -14 732 -9 l 751 124 b 669 115 724 119 694 115 b 482 296 567 115 500 180 l 793 296 b 797 388 795 323 797 357 b 590 732 797 607 722 732 b 416 597 511 732 451 685 b 166 724 369 675 283 720 l 102 726 l 89 602 l 153 600 b 353 452 279 596 353 541 l 353 422 b 265 430 327 427 297 430 b 14 194 115 430 14 336 b 203 -14 14 69 90 -14 z m 353 258 b 239 102 353 159 311 102 b 143 201 182 102 143 141 b 262 321 143 273 191 321 b 353 315 298 321 330 321 z m 477 399 b 578 606 481 544 513 606 b 667 399 640 606 667 545 z "},"ǽ":{"ha":814,"x_min":0,"x_max":0,"o":"m 203 -14 b 400 152 324 -14 382 47 l 412 152 b 653 -14 454 43 538 -14 b 768 -1 690 -14 732 -9 l 751 124 b 669 115 724 119 694 115 b 482 296 567 115 500 180 l 793 296 b 797 388 795 323 797 357 b 590 732 797 607 722 732 b 416 597 511 732 451 685 b 166 724 369 675 283 720 l 102 726 l 89 602 l 153 600 b 353 452 279 596 353 541 l 353 422 b 265 430 327 427 297 430 b 14 194 115 430 14 336 b 203 -14 14 69 90 -14 z m 353 258 b 239 102 353 159 311 102 b 143 201 182 102 143 141 b 262 321 143 273 191 321 b 353 315 298 321 330 321 z m 338 846 l 469 846 l 597 1104 l 454 1104 z m 477 399 b 578 606 481 544 513 606 b 667 399 640 606 667 545 z "},"b":{"ha":814,"x_min":0,"x_max":0,"o":"m 303 -14 b 745 407 585 -14 745 140 b 444 732 745 614 635 732 b 268 589 333 732 275 685 l 254 589 l 254 1017 l 111 1017 l 111 0 b 303 -14 176 -8 238 -14 z m 254 404 b 437 610 254 543 315 610 b 603 407 543 610 603 537 b 332 109 603 217 505 109 b 254 111 306 109 280 109 z "},"c":{"ha":814,"x_min":0,"x_max":0,"o":"m 476 -14 b 707 7 551 -14 632 -9 l 690 133 b 492 115 627 122 559 115 b 237 368 329 115 237 203 b 452 604 237 518 316 604 b 633 500 527 604 593 566 l 744 583 b 457 732 701 678 597 732 b 92 361 223 732 92 595 b 476 -14 92 119 231 -14 z "},"ć":{"ha":814,"x_min":0,"x_max":0,"o":"m 476 -14 b 707 7 551 -14 632 -9 l 690 133 b 492 115 627 122 559 115 b 237 368 329 115 237 203 b 452 604 237 518 316 604 b 633 500 527 604 593 566 l 744 583 b 457 732 701 678 597 732 b 92 361 223 732 92 595 b 476 -14 92 119 231 -14 z m 372 846 l 503 846 l 631 1104 l 488 1104 z "},"č":{"ha":814,"x_min":0,"x_max":0,"o":"m 476 -14 b 707 7 551 -14 632 -9 l 690 133 b 492 115 627 122 559 115 b 237 368 329 115 237 203 b 452 604 237 518 316 604 b 633 500 527 604 593 566 l 744 583 b 457 732 701 678 597 732 b 92 361 223 732 92 595 b 476 -14 92 119 231 -14 z m 382 821 l 499 821 l 662 1078 l 518 1078 l 441 925 l 363 1078 l 220 1078 z "},"ç":{"ha":814,"x_min":0,"x_max":0,"o":"m 332 -326 b 588 -181 503 -326 588 -277 b 471 -68 588 -121 549 -84 l 486 -14 b 707 7 558 -13 635 -9 l 690 133 b 492 115 627 122 559 115 b 237 368 329 115 237 203 b 452 604 237 518 316 604 b 633 500 527 604 593 566 l 744 583 b 457 732 701 678 597 732 b 92 361 223 732 92 595 b 392 -7 92 149 199 20 l 349 -129 b 459 -175 423 -129 459 -144 b 332 -224 459 -208 417 -224 z "},"ĉ":{"ha":814,"x_min":0,"x_max":0,"o":"m 476 -14 b 707 7 551 -14 632 -9 l 690 133 b 492 115 627 122 559 115 b 237 368 329 115 237 203 b 452 604 237 518 316 604 b 633 500 527 604 593 566 l 744 583 b 457 732 701 678 597 732 b 92 361 223 732 92 595 b 476 -14 92 119 231 -14 z m 220 846 l 363 846 l 441 1000 l 518 846 l 662 846 l 499 1104 l 382 1104 z "},"ċ":{"ha":814,"x_min":0,"x_max":0,"o":"m 476 -14 b 707 7 551 -14 632 -9 l 690 133 b 492 115 627 122 559 115 b 237 368 329 115 237 203 b 452 604 237 518 316 604 b 633 500 527 604 593 566 l 744 583 b 457 732 701 678 597 732 b 92 361 223 732 92 595 b 476 -14 92 119 231 -14 z m 439 840 b 530 930 490 840 530 880 b 439 1021 530 981 490 1021 b 349 930 389 1021 349 981 b 439 840 349 880 389 840 z "},"d":{"ha":814,"x_min":0,"x_max":0,"o":"m 352 -14 b 543 130 463 -14 534 40 l 557 130 l 571 -7 l 700 0 l 700 1017 l 556 1017 l 556 589 l 543 589 b 352 732 531 679 460 732 b 65 353 163 732 65 602 b 352 -14 65 112 163 -14 z m 556 335 b 384 109 556 186 497 109 b 208 353 268 109 208 192 b 384 610 208 522 268 610 b 556 384 497 610 556 532 z "},"ð":{"ha":814,"x_min":0,"x_max":0,"o":"m 393 -14 b 732 357 610 -14 732 121 l 732 389 b 619 802 732 564 696 699 l 745 839 l 718 958 l 522 901 b 260 1028 454 954 366 996 l 226 960 b 405 867 297 935 356 903 l 158 795 l 185 676 l 500 768 b 581 480 551 692 577 597 l 569 480 b 360 624 545 572 467 624 b 77 305 179 624 77 508 b 393 -14 77 103 191 -14 z m 401 111 b 222 305 288 111 222 183 b 401 499 222 427 288 499 b 581 305 514 499 581 427 b 401 111 581 183 514 111 z "},"ď":{"ha":814,"x_min":0,"x_max":0,"o":"m 352 -14 b 543 130 463 -14 534 40 l 557 130 l 571 -7 l 700 0 l 700 1017 l 556 1017 l 556 589 l 543 589 b 352 732 531 679 460 732 b 65 353 163 732 65 602 b 352 -14 65 112 163 -14 z m 556 335 b 384 109 556 186 497 109 b 208 353 268 109 208 192 b 384 610 208 522 268 610 b 556 384 497 610 556 532 z m 761 806 l 878 806 l 939 1063 l 795 1063 z "},"đ":{"ha":814,"x_min":0,"x_max":0,"o":"m 313 826 l 556 826 l 556 589 l 543 589 b 352 732 531 679 460 732 b 65 353 163 732 65 602 b 352 -14 65 112 163 -14 b 543 130 463 -14 534 40 l 557 130 l 571 -7 l 700 0 l 700 826 l 772 826 l 772 944 l 700 944 l 700 1017 l 556 1017 l 556 944 l 313 944 z m 556 335 b 384 109 556 186 497 109 b 208 353 268 109 208 192 b 384 610 208 522 268 610 b 556 384 497 610 556 532 z "},"e":{"ha":814,"x_min":0,"x_max":0,"o":"m 476 -14 b 686 5 530 -14 601 -11 l 669 132 b 492 113 609 119 552 113 b 232 296 348 113 257 176 l 718 296 b 722 388 720 324 722 354 b 416 732 722 612 610 732 b 92 361 210 732 92 595 b 476 -14 92 119 231 -14 z m 227 406 b 418 606 238 534 307 606 b 591 406 526 606 591 534 z "},"é":{"ha":814,"x_min":0,"x_max":0,"o":"m 476 -14 b 686 5 530 -14 601 -11 l 669 132 b 492 113 609 119 552 113 b 232 296 348 113 257 176 l 718 296 b 722 388 720 324 722 354 b 416 732 722 612 610 732 b 92 361 210 732 92 595 b 476 -14 92 119 231 -14 z m 227 406 b 418 606 238 534 307 606 b 591 406 526 606 591 534 z m 345 846 l 475 846 l 604 1104 l 460 1104 z "},"ĕ":{"ha":814,"x_min":0,"x_max":0,"o":"m 476 -14 b 686 5 530 -14 601 -11 l 669 132 b 492 113 609 119 552 113 b 232 296 348 113 257 176 l 718 296 b 722 388 720 324 722 354 b 416 732 722 612 610 732 b 92 361 210 732 92 595 b 476 -14 92 119 231 -14 z m 414 840 b 650 1058 564 840 650 919 l 650 1087 l 532 1087 l 532 1058 b 414 932 532 977 490 932 b 296 1058 338 932 296 977 l 296 1087 l 177 1087 l 177 1058 b 414 840 177 919 263 840 z m 227 406 b 418 606 238 534 307 606 b 591 406 526 606 591 534 z "},"ě":{"ha":814,"x_min":0,"x_max":0,"o":"m 476 -14 b 686 5 530 -14 601 -11 l 669 132 b 492 113 609 119 552 113 b 232 296 348 113 257 176 l 718 296 b 722 388 720 324 722 354 b 416 732 722 612 610 732 b 92 361 210 732 92 595 b 476 -14 92 119 231 -14 z m 355 821 l 472 821 l 635 1078 l 491 1078 l 414 925 l 336 1078 l 193 1078 z m 227 406 b 418 606 238 534 307 606 b 591 406 526 606 591 534 z "},"ê":{"ha":814,"x_min":0,"x_max":0,"o":"m 476 -14 b 686 5 530 -14 601 -11 l 669 132 b 492 113 609 119 552 113 b 232 296 348 113 257 176 l 718 296 b 722 388 720 324 722 354 b 416 732 722 612 610 732 b 92 361 210 732 92 595 b 476 -14 92 119 231 -14 z m 193 846 l 336 846 l 414 1000 l 491 846 l 635 846 l 472 1104 l 355 1104 z m 227 406 b 418 606 238 534 307 606 b 591 406 526 606 591 534 z "},"ế":{"ha":814,"x_min":0,"x_max":0,"o":"m 476 -14 b 686 5 530 -14 601 -11 l 669 132 b 492 113 609 119 552 113 b 232 296 348 113 257 176 l 718 296 b 722 388 720 324 722 354 b 416 732 722 612 610 732 b 92 361 210 732 92 595 b 476 -14 92 119 231 -14 z m 193 846 l 336 846 l 414 1000 l 491 846 l 635 846 l 472 1104 l 355 1104 z m 227 406 b 418 606 238 534 307 606 b 591 406 526 606 591 534 z m 587 1077 l 718 1077 l 846 1335 l 703 1335 z "},"ệ":{"ha":814,"x_min":0,"x_max":0,"o":"m 476 -14 b 686 5 530 -14 601 -11 l 669 132 b 492 113 609 119 552 113 b 232 296 348 113 257 176 l 718 296 b 722 388 720 324 722 354 b 416 732 722 612 610 732 b 92 361 210 732 92 595 b 476 -14 92 119 231 -14 z m 193 846 l 336 846 l 414 1000 l 491 846 l 635 846 l 472 1104 l 355 1104 z m 227 406 b 418 606 238 534 307 606 b 591 406 526 606 591 534 z m 427 -285 b 518 -194 477 -285 518 -244 b 427 -103 518 -143 477 -103 b 336 -194 377 -103 336 -143 b 427 -285 336 -244 377 -285 z "},"ề":{"ha":814,"x_min":0,"x_max":0,"o":"m 476 -14 b 686 5 530 -14 601 -11 l 669 132 b 492 113 609 119 552 113 b 232 296 348 113 257 176 l 718 296 b 722 388 720 324 722 354 b 416 732 722 612 610 732 b 92 361 210 732 92 595 b 476 -14 92 119 231 -14 z m 193 846 l 336 846 l 414 1000 l 491 846 l 635 846 l 472 1104 l 355 1104 z m 227 406 b 418 606 238 534 307 606 b 591 406 526 606 591 534 z m 604 1077 l 734 1077 l 619 1335 l 475 1335 z "},"ể":{"ha":814,"x_min":0,"x_max":0,"o":"m 476 -14 b 686 5 530 -14 601 -11 l 669 132 b 492 113 609 119 552 113 b 232 296 348 113 257 176 l 718 296 b 722 388 720 324 722 354 b 416 732 722 612 610 732 b 92 361 210 732 92 595 b 476 -14 92 119 231 -14 z m 193 846 l 336 846 l 414 1000 l 491 846 l 635 846 l 472 1104 l 355 1104 z m 227 406 b 418 606 238 534 307 606 b 591 406 526 606 591 534 z m 603 1077 l 708 1077 l 708 1083 b 788 1247 708 1154 788 1161 b 648 1378 788 1326 732 1378 b 504 1327 589 1378 532 1358 l 549 1246 b 633 1276 570 1264 604 1276 b 675 1238 659 1276 675 1261 b 603 1101 675 1192 603 1173 z "},"ễ":{"ha":814,"x_min":0,"x_max":0,"o":"m 476 -14 b 686 5 530 -14 601 -11 l 669 132 b 492 113 609 119 552 113 b 232 296 348 113 257 176 l 718 296 b 722 388 720 324 722 354 b 416 732 722 612 610 732 b 92 361 210 732 92 595 b 476 -14 92 119 231 -14 z m 176 1204 l 294 1204 l 294 1238 b 345 1289 294 1272 311 1289 b 433 1255 373 1289 404 1270 b 544 1221 481 1231 518 1221 b 671 1383 629 1221 671 1275 l 671 1438 l 555 1438 l 555 1377 b 518 1333 555 1348 543 1333 b 419 1371 496 1333 464 1349 b 319 1401 385 1388 355 1401 b 176 1232 224 1401 176 1345 z m 193 846 l 336 846 l 414 1000 l 491 846 l 635 846 l 472 1104 l 355 1104 z m 227 406 b 418 606 238 534 307 606 b 591 406 526 606 591 534 z "},"ë":{"ha":814,"x_min":0,"x_max":0,"o":"m 476 -14 b 686 5 530 -14 601 -11 l 669 132 b 492 113 609 119 552 113 b 232 296 348 113 257 176 l 718 296 b 722 388 720 324 722 354 b 416 732 722 612 610 732 b 92 361 210 732 92 595 b 476 -14 92 119 231 -14 z m 227 406 b 418 606 238 534 307 606 b 591 406 526 606 591 534 z m 273 840 b 363 930 323 840 363 880 b 273 1021 363 981 323 1021 b 182 930 222 1021 182 981 b 273 840 182 880 222 840 z m 557 840 b 648 930 608 840 648 880 b 557 1021 648 981 608 1021 b 467 930 507 1021 467 981 b 557 840 467 880 507 840 z "},"ė":{"ha":814,"x_min":0,"x_max":0,"o":"m 476 -14 b 686 5 530 -14 601 -11 l 669 132 b 492 113 609 119 552 113 b 232 296 348 113 257 176 l 718 296 b 722 388 720 324 722 354 b 416 732 722 612 610 732 b 92 361 210 732 92 595 b 476 -14 92 119 231 -14 z m 227 406 b 418 606 238 534 307 606 b 591 406 526 606 591 534 z m 412 840 b 503 930 463 840 503 880 b 412 1021 503 981 463 1021 b 321 930 362 1021 321 981 b 412 840 321 880 362 840 z "},"ẹ":{"ha":814,"x_min":0,"x_max":0,"o":"m 476 -14 b 686 5 530 -14 601 -11 l 669 132 b 492 113 609 119 552 113 b 232 296 348 113 257 176 l 718 296 b 722 388 720 324 722 354 b 416 732 722 612 610 732 b 92 361 210 732 92 595 b 476 -14 92 119 231 -14 z m 227 406 b 418 606 238 534 307 606 b 591 406 526 606 591 534 z m 427 -285 b 518 -194 477 -285 518 -244 b 427 -103 518 -143 477 -103 b 336 -194 377 -103 336 -143 b 427 -285 336 -244 377 -285 z "},"è":{"ha":814,"x_min":0,"x_max":0,"o":"m 476 -14 b 686 5 530 -14 601 -11 l 669 132 b 492 113 609 119 552 113 b 232 296 348 113 257 176 l 718 296 b 722 388 720 324 722 354 b 416 732 722 612 610 732 b 92 361 210 732 92 595 b 476 -14 92 119 231 -14 z m 227 406 b 418 606 238 534 307 606 b 591 406 526 606 591 534 z m 362 846 l 492 846 l 377 1104 l 233 1104 z "},"ẻ":{"ha":814,"x_min":0,"x_max":0,"o":"m 476 -14 b 686 5 530 -14 601 -11 l 669 132 b 492 113 609 119 552 113 b 232 296 348 113 257 176 l 718 296 b 722 388 720 324 722 354 b 416 732 722 612 610 732 b 92 361 210 732 92 595 b 476 -14 92 119 231 -14 z m 227 406 b 418 606 238 534 307 606 b 591 406 526 606 591 534 z m 361 846 l 466 846 l 466 852 b 546 1017 466 923 546 930 b 406 1147 546 1095 490 1147 b 262 1097 347 1147 290 1127 l 307 1016 b 391 1045 328 1034 361 1045 b 433 1007 416 1045 433 1030 b 361 871 433 962 361 942 z "},"ē":{"ha":814,"x_min":0,"x_max":0,"o":"m 476 -14 b 686 5 530 -14 601 -11 l 669 132 b 492 113 609 119 552 113 b 232 296 348 113 257 176 l 718 296 b 722 388 720 324 722 354 b 416 732 722 612 610 732 b 92 361 210 732 92 595 b 476 -14 92 119 231 -14 z m 122 846 l 705 846 l 705 974 l 122 974 z m 227 406 b 418 606 238 534 307 606 b 591 406 526 606 591 534 z "},"ę":{"ha":814,"x_min":0,"x_max":0,"o":"m 595 -288 b 656 -281 613 -288 633 -286 l 669 -166 b 613 -174 646 -172 628 -174 b 534 -114 550 -174 534 -138 b 686 5 534 -37 617 -11 l 669 132 b 492 113 609 119 552 113 b 232 296 348 113 257 176 l 718 296 b 722 388 720 324 722 354 b 416 732 722 612 610 732 b 92 361 210 732 92 595 b 476 -14 92 119 231 -14 b 510 -13 487 -14 498 -14 l 510 -27 b 433 -157 461 -43 433 -91 b 595 -288 433 -240 492 -288 z m 227 406 b 418 606 238 534 307 606 b 591 406 526 606 591 534 z "},"ɛ":{"ha":814,"x_min":0,"x_max":0,"o":"m 425 -14 b 705 19 538 -14 633 -1 l 668 149 b 430 111 610 133 542 111 b 262 197 318 111 262 140 b 528 295 262 262 351 295 l 549 295 l 566 418 b 283 524 376 425 283 460 b 450 608 283 580 338 608 b 668 570 533 608 605 595 l 712 693 b 435 732 655 720 564 732 b 133 557 233 732 133 674 b 320 373 133 466 195 405 l 320 359 b 113 190 181 340 113 284 b 425 -14 113 54 216 -14 z "},"ʃ":{"ha":814,"x_min":0,"x_max":0,"o":"m 80 -323 l 174 -314 b 444 64 362 -295 444 -191 l 444 665 b 636 902 444 823 507 902 b 774 892 677 902 718 899 l 789 1017 b 640 1031 739 1027 694 1031 b 300 658 412 1031 300 907 l 300 42 b 146 -186 300 -106 253 -171 l 73 -196 z "},"ẽ":{"ha":814,"x_min":0,"x_max":0,"o":"m 476 -14 b 686 5 530 -14 601 -11 l 669 132 b 492 113 609 119 552 113 b 232 296 348 113 257 176 l 718 296 b 722 388 720 324 722 354 b 416 732 722 612 610 732 b 92 361 210 732 92 595 b 476 -14 92 119 231 -14 z m 176 852 l 294 852 l 294 886 b 345 936 294 920 311 936 b 433 902 373 936 404 917 b 544 868 481 878 518 868 b 671 1031 629 868 671 922 l 671 1085 l 555 1085 l 555 1024 b 518 981 555 995 543 981 b 419 1019 496 981 464 996 b 319 1048 385 1036 355 1048 b 176 879 224 1048 176 992 z m 227 406 b 418 606 238 534 307 606 b 591 406 526 606 591 534 z "},"ǝ":{"ha":814,"x_min":0,"x_max":0,"o":"m 397 -14 b 722 358 604 -14 722 123 b 338 732 722 600 583 732 b 127 700 283 732 213 728 l 145 581 b 321 606 205 597 262 606 b 582 423 466 606 557 543 l 96 423 b 92 331 94 395 92 365 b 397 -14 92 107 203 -14 z m 587 313 b 396 113 576 185 507 113 b 222 313 288 113 222 184 z "},"ə":{"ha":814,"x_min":0,"x_max":0,"o":"m 397 -14 b 722 358 604 -14 722 123 b 338 732 722 600 583 732 b 127 700 283 732 213 728 l 145 581 b 321 606 205 597 262 606 b 582 423 466 606 557 543 l 96 423 b 92 331 94 395 92 365 b 397 -14 92 107 203 -14 z m 587 313 b 396 113 576 185 507 113 b 222 313 288 113 222 184 z "},"ʒ":{"ha":814,"x_min":0,"x_max":0,"o":"m 367 -312 b 720 -2 592 -312 720 -184 b 406 288 720 174 606 279 l 675 576 l 675 713 l 117 713 l 117 595 l 522 595 l 216 269 l 230 185 l 347 185 b 572 -6 490 185 572 116 b 374 -183 572 -115 499 -183 b 149 -90 279 -183 221 -155 l 54 -191 b 367 -312 132 -271 237 -312 z "},"f":{"ha":814,"x_min":0,"x_max":0,"o":"m 273 0 l 416 0 l 416 438 l 711 438 l 711 556 l 416 556 l 416 665 b 609 902 416 823 480 902 b 747 892 650 902 690 899 l 762 1017 b 613 1031 712 1027 667 1031 b 273 658 385 1031 273 907 l 273 556 l 46 556 l 46 438 l 273 438 z "},"g":{"ha":814,"x_min":0,"x_max":0,"o":"m 123 -324 l 334 -317 b 700 64 589 -309 700 -193 l 700 719 l 570 719 l 558 589 l 549 589 b 352 732 537 679 464 732 b 65 353 163 732 65 602 b 352 -14 65 112 163 -14 b 543 130 463 -14 534 40 l 556 130 l 556 42 b 347 -186 555 -106 492 -182 l 117 -193 z m 556 384 l 556 335 b 384 109 556 186 497 109 b 208 353 268 109 208 192 b 384 610 208 522 268 610 b 556 384 497 610 556 532 z "},"ɣ":{"ha":814,"x_min":0,"x_max":0,"o":"m 407 -313 b 628 -140 547 -313 628 -251 b 519 47 628 -79 602 -21 l 760 719 l 606 719 l 413 122 l 401 122 l 208 719 l 54 719 l 294 47 b 186 -140 212 -21 186 -79 b 407 -313 186 -251 267 -313 z m 328 -110 b 407 20 328 -78 347 -46 b 486 -110 467 -46 486 -78 b 407 -184 486 -157 458 -184 b 328 -110 355 -184 328 -157 z "},"ğ":{"ha":814,"x_min":0,"x_max":0,"o":"m 123 -324 l 334 -317 b 700 64 589 -309 700 -193 l 700 719 l 570 719 l 558 589 l 549 589 b 352 732 537 679 464 732 b 65 353 163 732 65 602 b 352 -14 65 112 163 -14 b 543 130 463 -14 534 40 l 556 130 l 556 42 b 347 -186 555 -106 492 -182 l 117 -193 z m 556 384 l 556 335 b 384 109 556 186 497 109 b 208 353 268 109 208 192 b 384 610 208 522 268 610 b 556 384 497 610 556 532 z m 393 840 b 630 1058 544 840 630 919 l 630 1087 l 511 1087 l 511 1058 b 393 932 511 977 469 932 b 275 1058 317 932 275 977 l 275 1087 l 157 1087 l 157 1058 b 393 840 157 919 243 840 z "},"ǧ":{"ha":814,"x_min":0,"x_max":0,"o":"m 123 -324 l 334 -317 b 700 64 589 -309 700 -193 l 700 719 l 570 719 l 558 589 l 549 589 b 352 732 537 679 464 732 b 65 353 163 732 65 602 b 352 -14 65 112 163 -14 b 543 130 463 -14 534 40 l 556 130 l 556 42 b 347 -186 555 -106 492 -182 l 117 -193 z m 556 384 l 556 335 b 384 109 556 186 497 109 b 208 353 268 109 208 192 b 384 610 208 522 268 610 b 556 384 497 610 556 532 z m 335 821 l 452 821 l 614 1078 l 471 1078 l 393 925 l 316 1078 l 172 1078 z "},"ĝ":{"ha":814,"x_min":0,"x_max":0,"o":"m 123 -324 l 334 -317 b 700 64 589 -309 700 -193 l 700 719 l 570 719 l 558 589 l 549 589 b 352 732 537 679 464 732 b 65 353 163 732 65 602 b 352 -14 65 112 163 -14 b 543 130 463 -14 534 40 l 556 130 l 556 42 b 347 -186 555 -106 492 -182 l 117 -193 z m 556 384 l 556 335 b 384 109 556 186 497 109 b 208 353 268 109 208 192 b 384 610 208 522 268 610 b 556 384 497 610 556 532 z m 172 846 l 316 846 l 393 1000 l 471 846 l 614 846 l 452 1104 l 335 1104 z "},"ģ":{"ha":814,"x_min":0,"x_max":0,"o":"m 123 -324 l 334 -317 b 700 64 589 -309 700 -193 l 700 719 l 570 719 l 558 589 l 549 589 b 352 732 537 679 464 732 b 65 353 163 732 65 602 b 352 -14 65 112 163 -14 b 543 130 463 -14 534 40 l 556 130 l 556 42 b 347 -186 555 -106 492 -182 l 117 -193 z m 556 384 l 556 335 b 384 109 556 186 497 109 b 208 353 268 109 208 192 b 384 610 208 522 268 610 b 556 384 497 610 556 532 z m 327 819 l 471 819 l 505 1077 l 388 1077 z "},"ġ":{"ha":814,"x_min":0,"x_max":0,"o":"m 123 -324 l 334 -317 b 700 64 589 -309 700 -193 l 700 719 l 570 719 l 558 589 l 549 589 b 352 732 537 679 464 732 b 65 353 163 732 65 602 b 352 -14 65 112 163 -14 b 543 130 463 -14 534 40 l 556 130 l 556 42 b 347 -186 555 -106 492 -182 l 117 -193 z m 556 384 l 556 335 b 384 109 556 186 497 109 b 208 353 268 109 208 192 b 384 610 208 522 268 610 b 556 384 497 610 556 532 z m 392 840 b 483 930 442 840 483 880 b 392 1021 483 981 442 1021 b 301 930 342 1021 301 981 b 392 840 301 880 342 840 z "},"ʔ":{"ha":814,"x_min":0,"x_max":0,"o":"m 313 0 l 457 0 l 457 250 b 566 500 457 328 484 408 b 689 761 646 591 689 655 b 384 1031 689 932 577 1031 b 85 882 259 1031 143 972 l 179 785 b 382 902 230 856 308 902 b 540 754 482 902 540 848 b 457 579 540 686 515 644 b 313 259 363 472 313 382 z "},"ʕ":{"ha":814,"x_min":0,"x_max":0,"o":"m 357 0 l 500 0 l 500 259 b 357 579 500 382 451 472 b 274 754 299 644 274 686 b 431 902 274 848 332 902 b 635 785 506 902 584 856 l 728 882 b 430 1031 671 972 555 1031 b 125 761 237 1031 125 932 b 248 500 125 655 168 591 b 357 250 330 408 357 328 z "},"ǥ":{"ha":814,"x_min":0,"x_max":0,"o":"m 30 -131 l 500 -131 b 347 -186 467 -165 416 -184 l 117 -193 l 123 -324 l 334 -317 b 669 -131 512 -312 620 -253 l 784 -131 l 784 -58 l 690 -58 b 700 64 696 -21 700 19 l 700 719 l 570 719 l 558 589 l 549 589 b 352 732 537 679 464 732 b 65 353 163 732 65 602 b 352 -14 65 112 163 -14 b 543 130 463 -14 534 40 l 556 130 l 556 42 b 543 -58 555 4 551 -29 l 30 -58 z m 556 384 l 556 335 b 384 109 556 186 497 109 b 208 353 268 109 208 192 b 384 610 208 522 268 610 b 556 384 497 610 556 532 z "},"h":{"ha":814,"x_min":0,"x_max":0,"o":"m 556 0 l 700 0 l 700 468 b 461 732 700 636 613 732 b 271 589 340 732 279 685 l 258 589 l 258 1017 l 114 1017 l 114 0 l 258 0 l 258 404 b 427 610 258 543 315 610 b 556 468 509 610 556 559 z "},"ħ":{"ha":814,"x_min":0,"x_max":0,"o":"m 15 826 l 114 826 l 114 0 l 258 0 l 258 404 b 427 610 258 543 315 610 b 556 468 509 610 556 559 l 556 0 l 700 0 l 700 468 b 461 732 700 636 613 732 b 271 589 340 732 279 685 l 258 589 l 258 826 l 500 826 l 500 944 l 258 944 l 258 1017 l 114 1017 l 114 944 l 15 944 z "},"ȟ":{"ha":814,"x_min":0,"x_max":0,"o":"m 556 0 l 700 0 l 700 468 b 461 732 700 636 613 732 b 271 589 340 732 279 685 l 258 589 l 258 1017 l 114 1017 l 114 0 l 258 0 l 258 404 b 427 610 258 543 315 610 b 556 468 509 610 556 559 z m 127 1126 l 244 1126 l 420 1302 l 270 1302 l 186 1204 l 102 1302 l -49 1302 z "},"ĥ":{"ha":814,"x_min":0,"x_max":0,"o":"m 556 0 l 700 0 l 700 468 b 461 732 700 636 613 732 b 271 589 340 732 279 685 l 258 589 l 258 1017 l 114 1017 l 114 0 l 258 0 l 258 404 b 427 610 258 543 315 610 b 556 468 509 610 556 559 z m -45 1126 l 105 1126 l 189 1223 l 273 1126 l 424 1126 l 248 1302 l 131 1302 z "},"ḥ":{"ha":814,"x_min":0,"x_max":0,"o":"m 556 0 l 700 0 l 700 468 b 461 732 700 636 613 732 b 271 589 340 732 279 685 l 258 589 l 258 1017 l 114 1017 l 114 0 l 258 0 l 258 404 b 427 610 258 543 315 610 b 556 468 509 610 556 559 z m 407 -285 b 498 -194 457 -285 498 -244 b 407 -103 498 -143 457 -103 b 316 -194 357 -103 316 -143 b 407 -285 316 -244 357 -285 z "},"i":{"ha":814,"x_min":0,"x_max":0,"o":"m 109 0 l 747 0 l 747 118 l 526 118 l 526 719 l 149 719 l 149 601 l 382 601 l 382 118 l 109 118 z m 450 833 b 550 933 505 833 550 878 b 450 1034 550 989 505 1034 b 349 933 394 1034 349 989 b 450 833 349 878 394 833 z "},"ı":{"ha":814,"x_min":0,"x_max":0,"o":"m 109 0 l 747 0 l 747 118 l 526 118 l 526 719 l 149 719 l 149 601 l 382 601 l 382 118 l 109 118 z "},"í":{"ha":814,"x_min":0,"x_max":0,"o":"m 109 0 l 747 0 l 747 118 l 526 118 l 526 719 l 149 719 l 149 601 l 382 601 l 382 118 l 109 118 z m 372 846 l 503 846 l 631 1104 l 488 1104 z "},"ĭ":{"ha":814,"x_min":0,"x_max":0,"o":"m 109 0 l 747 0 l 747 118 l 526 118 l 526 719 l 149 719 l 149 601 l 382 601 l 382 118 l 109 118 z m 441 840 b 677 1058 591 840 677 919 l 677 1087 l 559 1087 l 559 1058 b 441 932 559 977 517 932 b 323 1058 365 932 323 977 l 323 1087 l 204 1087 l 204 1058 b 441 840 204 919 290 840 z "},"î":{"ha":814,"x_min":0,"x_max":0,"o":"m 109 0 l 747 0 l 747 118 l 526 118 l 526 719 l 149 719 l 149 601 l 382 601 l 382 118 l 109 118 z m 220 846 l 363 846 l 441 1000 l 518 846 l 662 846 l 499 1104 l 382 1104 z "},"ï":{"ha":814,"x_min":0,"x_max":0,"o":"m 109 0 l 747 0 l 747 118 l 526 118 l 526 719 l 149 719 l 149 601 l 382 601 l 382 118 l 109 118 z m 300 840 b 391 930 350 840 391 880 b 300 1021 391 981 350 1021 b 209 930 250 1021 209 981 b 300 840 209 880 250 840 z m 585 840 b 675 930 635 840 675 880 b 585 1021 675 981 635 1021 b 494 930 534 1021 494 981 b 585 840 494 880 534 840 z "},"ị":{"ha":814,"x_min":0,"x_max":0,"o":"m 109 0 l 747 0 l 747 118 l 526 118 l 526 719 l 149 719 l 149 601 l 382 601 l 382 118 l 109 118 z m 450 833 b 550 933 505 833 550 878 b 450 1034 550 989 505 1034 b 349 933 394 1034 349 989 b 450 833 349 878 394 833 z m 454 -285 b 545 -194 505 -285 545 -244 b 454 -103 545 -143 505 -103 b 363 -194 404 -103 363 -143 b 454 -285 363 -244 404 -285 z "},"ì":{"ha":814,"x_min":0,"x_max":0,"o":"m 109 0 l 747 0 l 747 118 l 526 118 l 526 719 l 149 719 l 149 601 l 382 601 l 382 118 l 109 118 z m 389 846 l 519 846 l 404 1104 l 260 1104 z "},"ỉ":{"ha":814,"x_min":0,"x_max":0,"o":"m 109 0 l 747 0 l 747 118 l 526 118 l 526 719 l 149 719 l 149 601 l 382 601 l 382 118 l 109 118 z m 388 846 l 493 846 l 493 852 b 573 1017 493 923 573 930 b 433 1147 573 1095 517 1147 b 289 1097 374 1147 317 1127 l 334 1016 b 418 1045 355 1034 389 1045 b 460 1007 444 1045 460 1030 b 388 871 460 962 388 942 z "},"ĳ":{"ha":814,"x_min":0,"x_max":0,"o":"m 171 -326 l 286 -317 b 651 64 541 -299 651 -193 l 651 719 l 507 719 l 507 42 b 300 -186 507 -106 445 -173 l 164 -198 z m 165 0 l 309 0 l 309 719 l 165 719 z m 236 833 b 336 933 292 833 336 878 b 236 1034 336 989 292 1034 b 136 933 180 1034 136 989 b 236 833 136 878 180 833 z m 578 833 b 678 933 633 833 678 878 b 578 1034 678 989 633 1034 b 477 933 522 1034 477 989 b 578 833 477 878 522 833 z "},"ī":{"ha":814,"x_min":0,"x_max":0,"o":"m 109 0 l 747 0 l 747 118 l 526 118 l 526 719 l 149 719 l 149 601 l 382 601 l 382 118 l 109 118 z m 149 846 l 732 846 l 732 974 l 149 974 z "},"į":{"ha":814,"x_min":0,"x_max":0,"o":"m 454 -288 b 515 -281 472 -288 494 -286 l 528 -166 b 472 -174 507 -171 488 -174 b 393 -114 422 -174 393 -152 b 545 0 393 -41 449 0 l 747 0 l 747 118 l 526 118 l 526 719 l 149 719 l 149 601 l 382 601 l 382 118 l 109 118 l 109 0 l 369 0 l 369 -14 b 292 -144 319 -30 292 -77 b 454 -288 292 -235 351 -288 z m 450 833 b 550 933 505 833 550 878 b 450 1034 550 989 505 1034 b 349 933 394 1034 349 989 b 450 833 349 878 394 833 z "},"ɩ":{"ha":814,"x_min":0,"x_max":0,"o":"m 518 -14 b 722 15 591 -14 652 -5 l 705 141 b 572 115 650 123 610 115 b 435 278 457 115 435 164 l 435 719 l 88 719 l 88 600 l 292 600 l 292 271 b 518 -14 292 72 358 -14 z "},"ĩ":{"ha":814,"x_min":0,"x_max":0,"o":"m 109 0 l 747 0 l 747 118 l 526 118 l 526 719 l 149 719 l 149 601 l 382 601 l 382 118 l 109 118 z m 203 852 l 321 852 l 321 886 b 372 936 321 920 338 936 b 460 902 400 936 431 917 b 571 868 508 878 545 868 b 699 1031 656 868 699 922 l 699 1085 l 582 1085 l 582 1024 b 545 981 582 995 570 981 b 446 1019 523 981 491 996 b 346 1048 412 1036 382 1048 b 203 879 251 1048 203 992 z "},"j":{"ha":814,"x_min":0,"x_max":0,"o":"m 122 -326 l 237 -317 b 602 64 492 -297 602 -193 l 602 719 l 179 719 l 179 601 l 458 601 l 458 42 b 251 -186 458 -106 396 -172 l 115 -198 z m 515 833 b 616 933 571 833 616 878 b 515 1034 616 989 571 1034 b 415 933 460 1034 415 989 b 515 833 415 878 460 833 z "},"ȷ":{"ha":814,"x_min":0,"x_max":0,"o":"m 122 -326 l 237 -317 b 602 64 492 -299 602 -193 l 602 719 l 179 719 l 179 601 l 458 601 l 458 42 b 251 -186 458 -106 396 -173 l 115 -198 z "},"ǰ":{"ha":814,"x_min":0,"x_max":0,"o":"m 122 -326 l 237 -317 b 602 64 492 -299 602 -193 l 602 719 l 179 719 l 179 601 l 458 601 l 458 42 b 251 -186 458 -106 396 -173 l 115 -198 z m 472 821 l 589 821 l 751 1078 l 608 1078 l 530 925 l 453 1078 l 309 1078 z "},"ĵ":{"ha":814,"x_min":0,"x_max":0,"o":"m 122 -326 l 237 -317 b 602 64 492 -299 602 -193 l 602 719 l 179 719 l 179 601 l 458 601 l 458 42 b 251 -186 458 -106 396 -173 l 115 -198 z m 309 846 l 453 846 l 530 1000 l 608 846 l 751 846 l 589 1104 l 472 1104 z "},"k":{"ha":814,"x_min":0,"x_max":0,"o":"m 109 0 l 252 0 l 252 273 l 326 273 b 429 284 363 273 397 277 l 595 0 l 773 0 l 562 348 b 727 719 650 419 705 543 l 578 719 b 292 401 547 486 471 401 l 252 401 l 252 1017 l 109 1017 z "},"ķ":{"ha":814,"x_min":0,"x_max":0,"o":"m 109 0 l 252 0 l 252 273 l 326 273 b 429 284 363 273 397 277 l 595 0 l 773 0 l 562 348 b 727 719 650 419 705 543 l 578 719 b 292 401 547 486 471 401 l 252 401 l 252 1017 l 109 1017 z m 295 -326 l 418 -326 l 498 -95 l 347 -95 z "},"ḳ":{"ha":814,"x_min":0,"x_max":0,"o":"m 109 0 l 252 0 l 252 273 l 326 273 b 429 284 363 273 397 277 l 595 0 l 773 0 l 562 348 b 727 719 650 419 705 543 l 578 719 b 292 401 547 486 471 401 l 252 401 l 252 1017 l 109 1017 z m 420 -285 b 511 -194 471 -285 511 -244 b 420 -103 511 -143 471 -103 b 330 -194 370 -103 330 -143 b 420 -285 330 -244 370 -285 z "},"ĸ":{"ha":814,"x_min":0,"x_max":0,"o":"m 109 0 l 252 0 l 252 273 l 326 273 b 429 284 363 273 397 277 l 595 0 l 773 0 l 562 348 b 727 719 650 419 705 543 l 578 719 b 292 401 547 486 471 401 l 252 401 l 252 719 l 109 719 z "},"ḵ":{"ha":814,"x_min":0,"x_max":0,"o":"m 109 0 l 252 0 l 252 273 l 326 273 b 429 284 363 273 397 277 l 595 0 l 773 0 l 562 348 b 727 719 650 419 705 543 l 578 719 b 292 401 547 486 471 401 l 252 401 l 252 1017 l 109 1017 z m 129 -269 l 712 -269 l 712 -141 l 129 -141 z "},"l":{"ha":814,"x_min":0,"x_max":0,"o":"m 514 -14 b 728 15 591 -14 655 -5 l 712 141 b 568 115 652 123 609 115 b 422 278 445 115 422 164 l 422 1017 l 66 1017 l 66 899 l 278 899 l 278 271 b 514 -14 278 72 347 -14 z "},"ĺ":{"ha":814,"x_min":0,"x_max":0,"o":"m 514 -14 b 728 15 591 -14 655 -5 l 712 141 b 568 115 652 123 609 115 b 422 278 445 115 422 164 l 422 1017 l 66 1017 l 66 899 l 278 899 l 278 271 b 514 -14 278 72 347 -14 z m 261 1126 l 418 1126 l 602 1295 l 410 1295 z "},"ƛ":{"ha":814,"x_min":0,"x_max":0,"o":"m 94 608 l 329 684 l 45 0 l 199 0 l 351 401 b 357 567 371 452 372 507 l 382 574 l 498 170 b 724 -14 538 31 606 -14 b 796 -5 751 -14 770 -12 l 780 121 b 738 115 762 117 751 115 b 622 231 683 115 646 144 l 478 732 l 681 798 l 654 917 l 444 849 b 226 1017 406 977 338 1017 b 154 1009 199 1017 180 1015 l 170 883 b 212 888 188 887 199 888 b 313 807 257 888 290 867 l 66 727 z "},"ƚ":{"ha":814,"x_min":0,"x_max":0,"o":"m 66 439 l 278 439 l 278 271 b 514 -14 278 72 347 -14 b 728 15 591 -14 655 -5 l 712 141 b 568 115 652 123 609 115 b 422 278 445 115 422 164 l 422 439 l 633 439 l 633 568 l 422 568 l 422 1017 l 66 1017 l 66 899 l 278 899 l 278 568 l 66 568 z "},"ɬ":{"ha":814,"x_min":0,"x_max":0,"o":"m 210 371 l 278 371 l 278 271 b 514 -14 278 72 347 -14 b 728 15 591 -14 655 -5 l 712 141 b 568 115 652 123 609 115 b 422 278 445 115 422 164 l 422 371 l 633 371 l 633 500 l 422 500 l 422 1017 l 66 1017 l 66 899 l 278 899 l 278 685 l 267 685 b 156 776 257 746 223 776 b -3 578 55 776 -3 704 b 210 371 -3 446 75 371 z m 278 500 l 210 500 b 146 575 170 500 146 527 b 203 647 146 621 167 647 b 278 557 245 647 278 620 z "},"ľ":{"ha":814,"x_min":0,"x_max":0,"o":"m 514 -14 b 728 15 591 -14 655 -5 l 712 141 b 568 115 652 123 609 115 b 422 278 445 115 422 164 l 422 1017 l 66 1017 l 66 899 l 278 899 l 278 271 b 514 -14 278 72 347 -14 z m 524 806 l 640 806 l 701 1063 l 557 1063 z "},"ļ":{"ha":814,"x_min":0,"x_max":0,"o":"m 514 -14 b 728 15 591 -14 655 -5 l 712 141 b 568 115 652 123 609 115 b 422 278 445 115 422 164 l 422 1017 l 66 1017 l 66 899 l 278 899 l 278 271 b 514 -14 278 72 347 -14 z m 336 -326 l 459 -326 l 538 -95 l 388 -95 z "},"ŀ":{"ha":814,"x_min":0,"x_max":0,"o":"m 514 -14 b 728 15 591 -14 655 -5 l 712 141 b 568 115 652 123 609 115 b 422 278 445 115 422 164 l 422 1017 l 66 1017 l 66 899 l 278 899 l 278 271 b 514 -14 278 72 347 -14 z m 621 585 b 722 685 677 585 722 629 b 621 785 722 741 677 785 b 521 685 566 785 521 741 b 621 585 521 629 566 585 z "},"ḷ":{"ha":814,"x_min":0,"x_max":0,"o":"m 514 -14 b 728 15 591 -14 655 -5 l 712 141 b 568 115 652 123 609 115 b 422 278 445 115 422 164 l 422 1017 l 66 1017 l 66 899 l 278 899 l 278 271 b 514 -14 278 72 347 -14 z m 461 -285 b 552 -194 511 -285 552 -244 b 461 -103 552 -143 511 -103 b 370 -194 411 -103 370 -143 b 461 -285 370 -244 411 -285 z "},"ḻ":{"ha":814,"x_min":0,"x_max":0,"o":"m 514 -14 b 728 15 591 -14 655 -5 l 712 141 b 568 115 652 123 609 115 b 422 278 445 115 422 164 l 422 1017 l 66 1017 l 66 899 l 278 899 l 278 271 b 514 -14 278 72 347 -14 z m 170 -269 l 753 -269 l 753 -141 l 170 -141 z "},"ɫ":{"ha":814,"x_min":0,"x_max":0,"o":"m 51 399 l 174 399 l 174 462 b 225 513 174 497 189 513 b 278 503 244 513 261 509 l 278 271 b 514 -14 278 72 347 -14 b 728 15 591 -14 655 -5 l 712 141 b 568 115 652 123 609 115 b 422 278 445 115 422 164 l 422 434 b 511 418 450 425 479 418 b 648 583 606 418 648 467 l 648 640 l 524 640 l 524 578 b 485 527 524 543 513 527 b 422 544 463 527 443 534 l 422 1017 l 66 1017 l 66 899 l 278 899 l 278 610 b 204 622 254 617 230 622 b 51 456 97 622 51 572 z "},"ł":{"ha":814,"x_min":0,"x_max":0,"o":"m 87 309 l 278 408 l 278 271 b 514 -14 278 72 347 -14 b 728 15 591 -14 655 -5 l 712 141 b 568 115 652 123 609 115 b 422 278 445 115 422 164 l 422 483 l 633 593 l 633 719 l 422 608 l 422 1017 l 66 1017 l 66 899 l 278 899 l 278 534 l 87 434 z "},"m":{"ha":814,"x_min":0,"x_max":0,"o":"m 594 0 l 738 0 l 738 563 b 595 732 738 682 694 732 b 475 629 519 732 479 685 l 463 629 b 347 732 450 699 408 732 b 224 629 269 732 229 699 l 213 629 l 203 719 l 76 719 l 76 0 l 220 0 l 220 526 b 289 624 220 591 243 624 b 346 563 327 624 346 604 l 346 0 l 468 0 l 468 526 b 538 624 468 591 491 624 b 594 549 576 624 594 600 z "},"n":{"ha":814,"x_min":0,"x_max":0,"o":"m 556 0 l 700 0 l 700 468 b 461 732 700 636 613 732 b 271 589 340 732 279 685 l 256 589 l 244 719 l 114 719 l 114 0 l 258 0 l 258 404 b 427 604 258 538 315 604 b 556 468 509 604 556 555 z "},"ń":{"ha":814,"x_min":0,"x_max":0,"o":"m 556 0 l 700 0 l 700 468 b 461 732 700 636 613 732 b 271 589 340 732 279 685 l 256 589 l 244 719 l 114 719 l 114 0 l 258 0 l 258 404 b 427 604 258 538 315 604 b 556 468 509 604 556 555 z m 332 846 l 462 846 l 591 1104 l 447 1104 z "},"ŉ":{"ha":814,"x_min":0,"x_max":0,"o":"m 556 0 l 700 0 l 700 468 b 461 732 700 636 613 732 b 271 589 340 732 279 685 l 256 589 l 244 719 l 114 719 l 114 0 l 258 0 l 258 404 b 427 604 258 538 315 604 b 556 468 509 604 556 555 z m 0 846 l 110 846 l 205 1104 l 47 1104 z "},"ň":{"ha":814,"x_min":0,"x_max":0,"o":"m 556 0 l 700 0 l 700 468 b 461 732 700 636 613 732 b 271 589 340 732 279 685 l 256 589 l 244 719 l 114 719 l 114 0 l 258 0 l 258 404 b 427 604 258 538 315 604 b 556 468 509 604 556 555 z m 342 821 l 458 821 l 621 1078 l 477 1078 l 400 925 l 323 1078 l 179 1078 z "},"ņ":{"ha":814,"x_min":0,"x_max":0,"o":"m 556 0 l 700 0 l 700 468 b 461 732 700 636 613 732 b 271 589 340 732 279 685 l 256 589 l 244 719 l 114 719 l 114 0 l 258 0 l 258 404 b 427 604 258 538 315 604 b 556 468 509 604 556 555 z m 281 -326 l 405 -326 l 484 -95 l 334 -95 z "},"ŋ":{"ha":814,"x_min":0,"x_max":0,"o":"m 315 -326 l 382 -317 b 700 64 604 -297 700 -193 l 700 468 b 461 732 700 636 613 732 b 271 589 340 732 279 685 l 256 589 l 244 719 l 114 719 l 114 0 l 258 0 l 258 404 b 427 610 258 543 315 610 b 556 468 509 610 556 559 l 556 42 b 396 -186 556 -106 508 -172 l 308 -198 z "},"ɲ":{"ha":814,"x_min":0,"x_max":0,"o":"m 556 0 l 700 0 l 700 468 b 461 732 700 636 613 732 b 271 589 340 732 279 685 l 256 589 l 244 719 l 114 719 l 114 42 b -46 -186 114 -106 66 -169 l -78 -191 l -71 -318 l -60 -317 b 258 64 163 -304 258 -193 l 258 404 b 427 610 258 543 315 610 b 556 468 509 610 556 559 z "},"ṉ":{"ha":814,"x_min":0,"x_max":0,"o":"m 556 0 l 700 0 l 700 468 b 461 732 700 636 613 732 b 271 589 340 732 279 685 l 256 589 l 244 719 l 114 719 l 114 0 l 258 0 l 258 404 b 427 604 258 538 315 604 b 556 468 509 604 556 555 z m 115 -269 l 699 -269 l 699 -141 l 115 -141 z "},"ñ":{"ha":814,"x_min":0,"x_max":0,"o":"m 556 0 l 700 0 l 700 468 b 461 732 700 636 613 732 b 271 589 340 732 279 685 l 256 589 l 244 719 l 114 719 l 114 0 l 258 0 l 258 404 b 427 604 258 538 315 604 b 556 468 509 604 556 555 z m 163 852 l 281 852 l 281 886 b 331 936 281 920 298 936 b 420 902 359 936 390 917 b 530 868 467 878 505 868 b 658 1031 615 868 658 922 l 658 1085 l 541 1085 l 541 1024 b 505 981 541 995 529 981 b 406 1019 482 981 450 996 b 305 1048 371 1036 341 1048 b 163 879 210 1048 163 992 z "},"o":{"ha":814,"x_min":0,"x_max":0,"o":"m 407 -14 b 722 359 606 -14 722 122 b 407 732 722 597 606 732 b 92 359 208 732 92 597 b 407 -14 92 122 208 -14 z m 407 115 b 241 359 301 115 241 203 b 407 604 241 515 301 604 b 572 359 513 604 572 515 b 407 115 572 203 513 115 z "},"ó":{"ha":814,"x_min":0,"x_max":0,"o":"m 407 -14 b 722 359 606 -14 722 122 b 407 732 722 597 606 732 b 92 359 208 732 92 597 b 407 -14 92 122 208 -14 z m 407 115 b 241 359 301 115 241 203 b 407 604 241 515 301 604 b 572 359 513 604 572 515 b 407 115 572 203 513 115 z m 338 846 l 469 846 l 597 1104 l 454 1104 z "},"ŏ":{"ha":814,"x_min":0,"x_max":0,"o":"m 407 -14 b 722 359 606 -14 722 122 b 407 732 722 597 606 732 b 92 359 208 732 92 597 b 407 -14 92 122 208 -14 z m 407 115 b 241 359 301 115 241 203 b 407 604 241 515 301 604 b 572 359 513 604 572 515 b 407 115 572 203 513 115 z m 407 840 b 644 1058 557 840 644 919 l 644 1087 l 525 1087 l 525 1058 b 407 932 525 977 483 932 b 289 1058 331 932 289 977 l 289 1087 l 170 1087 l 170 1058 b 407 840 170 919 256 840 z "},"ô":{"ha":814,"x_min":0,"x_max":0,"o":"m 407 -14 b 722 359 606 -14 722 122 b 407 732 722 597 606 732 b 92 359 208 732 92 597 b 407 -14 92 122 208 -14 z m 407 115 b 241 359 301 115 241 203 b 407 604 241 515 301 604 b 572 359 513 604 572 515 b 407 115 572 203 513 115 z m 186 846 l 330 846 l 407 1000 l 484 846 l 628 846 l 465 1104 l 349 1104 z "},"ố":{"ha":814,"x_min":0,"x_max":0,"o":"m 407 -14 b 722 359 606 -14 722 122 b 407 732 722 597 606 732 b 92 359 208 732 92 597 b 407 -14 92 122 208 -14 z m 407 115 b 241 359 301 115 241 203 b 407 604 241 515 301 604 b 572 359 513 604 572 515 b 407 115 572 203 513 115 z m 186 846 l 330 846 l 407 1000 l 484 846 l 628 846 l 465 1104 l 349 1104 z m 581 1077 l 711 1077 l 840 1335 l 696 1335 z "},"ộ":{"ha":814,"x_min":0,"x_max":0,"o":"m 407 -14 b 722 359 606 -14 722 122 b 407 732 722 597 606 732 b 92 359 208 732 92 597 b 407 -14 92 122 208 -14 z m 407 115 b 241 359 301 115 241 203 b 407 604 241 515 301 604 b 572 359 513 604 572 515 b 407 115 572 203 513 115 z m 186 846 l 330 846 l 407 1000 l 484 846 l 628 846 l 465 1104 l 349 1104 z m 407 -285 b 498 -194 457 -285 498 -244 b 407 -103 498 -143 457 -103 b 316 -194 357 -103 316 -143 b 407 -285 316 -244 357 -285 z "},"ồ":{"ha":814,"x_min":0,"x_max":0,"o":"m 407 -14 b 722 359 606 -14 722 122 b 407 732 722 597 606 732 b 92 359 208 732 92 597 b 407 -14 92 122 208 -14 z m 407 115 b 241 359 301 115 241 203 b 407 604 241 515 301 604 b 572 359 513 604 572 515 b 407 115 572 203 513 115 z m 186 846 l 330 846 l 407 1000 l 484 846 l 628 846 l 465 1104 l 349 1104 z m 597 1077 l 728 1077 l 612 1335 l 469 1335 z "},"ổ":{"ha":814,"x_min":0,"x_max":0,"o":"m 407 -14 b 722 359 606 -14 722 122 b 407 732 722 597 606 732 b 92 359 208 732 92 597 b 407 -14 92 122 208 -14 z m 407 115 b 241 359 301 115 241 203 b 407 604 241 515 301 604 b 572 359 513 604 572 515 b 407 115 572 203 513 115 z m 186 846 l 330 846 l 407 1000 l 484 846 l 628 846 l 465 1104 l 349 1104 z m 596 1077 l 701 1077 l 701 1083 b 781 1247 701 1154 781 1161 b 641 1378 781 1326 726 1378 b 497 1327 582 1378 525 1358 l 543 1246 b 627 1276 564 1264 597 1276 b 669 1238 652 1276 669 1261 b 596 1101 669 1192 596 1173 z "},"ỗ":{"ha":814,"x_min":0,"x_max":0,"o":"m 407 -14 b 722 359 606 -14 722 122 b 407 732 722 597 606 732 b 92 359 208 732 92 597 b 407 -14 92 122 208 -14 z m 407 115 b 241 359 301 115 241 203 b 407 604 241 515 301 604 b 572 359 513 604 572 515 b 407 115 572 203 513 115 z m 170 1204 l 288 1204 l 288 1238 b 338 1289 288 1272 304 1289 b 427 1255 366 1289 397 1270 b 537 1221 474 1231 511 1221 b 665 1383 622 1221 665 1275 l 665 1438 l 548 1438 l 548 1377 b 511 1333 548 1348 536 1333 b 412 1371 489 1333 457 1349 b 312 1401 378 1388 348 1401 b 170 1232 217 1401 170 1345 z m 186 846 l 330 846 l 407 1000 l 484 846 l 628 846 l 465 1104 l 349 1104 z "},"ö":{"ha":814,"x_min":0,"x_max":0,"o":"m 407 -14 b 722 359 606 -14 722 122 b 407 732 722 597 606 732 b 92 359 208 732 92 597 b 407 -14 92 122 208 -14 z m 407 115 b 241 359 301 115 241 203 b 407 604 241 515 301 604 b 572 359 513 604 572 515 b 407 115 572 203 513 115 z m 266 840 b 357 930 316 840 357 880 b 266 1021 357 981 316 1021 b 175 930 216 1021 175 981 b 266 840 175 880 216 840 z m 551 840 b 642 930 601 840 642 880 b 551 1021 642 981 601 1021 b 460 930 500 1021 460 981 b 551 840 460 880 500 840 z "},"ọ":{"ha":814,"x_min":0,"x_max":0,"o":"m 407 -14 b 722 359 606 -14 722 122 b 407 732 722 597 606 732 b 92 359 208 732 92 597 b 407 -14 92 122 208 -14 z m 407 115 b 241 359 301 115 241 203 b 407 604 241 515 301 604 b 572 359 513 604 572 515 b 407 115 572 203 513 115 z m 407 -285 b 498 -194 457 -285 498 -244 b 407 -103 498 -143 457 -103 b 316 -194 357 -103 316 -143 b 407 -285 316 -244 357 -285 z "},"ò":{"ha":814,"x_min":0,"x_max":0,"o":"m 407 -14 b 722 359 606 -14 722 122 b 407 732 722 597 606 732 b 92 359 208 732 92 597 b 407 -14 92 122 208 -14 z m 407 115 b 241 359 301 115 241 203 b 407 604 241 515 301 604 b 572 359 513 604 572 515 b 407 115 572 203 513 115 z m 355 846 l 486 846 l 370 1104 l 227 1104 z "},"ỏ":{"ha":814,"x_min":0,"x_max":0,"o":"m 407 -14 b 722 359 606 -14 722 122 b 407 732 722 597 606 732 b 92 359 208 732 92 597 b 407 -14 92 122 208 -14 z m 407 115 b 241 359 301 115 241 203 b 407 604 241 515 301 604 b 572 359 513 604 572 515 b 407 115 572 203 513 115 z m 354 846 l 459 846 l 459 852 b 539 1017 459 923 539 930 b 399 1147 539 1095 484 1147 b 255 1097 340 1147 283 1127 l 300 1016 b 385 1045 321 1034 355 1045 b 427 1007 410 1045 427 1030 b 354 871 427 962 354 942 z "},"ơ":{"ha":814,"x_min":0,"x_max":0,"o":"m 407 -14 b 722 359 606 -14 722 122 b 641 633 722 477 693 570 b 804 911 749 675 804 767 l 661 911 b 534 726 661 803 619 740 l 503 720 b 407 732 473 728 441 732 b 92 359 208 732 92 597 b 407 -14 92 122 208 -14 z m 407 115 b 241 359 301 115 241 203 b 407 604 241 515 301 604 b 572 359 513 604 572 515 b 407 115 572 203 513 115 z "},"ớ":{"ha":814,"x_min":0,"x_max":0,"o":"m 407 -14 b 722 359 606 -14 722 122 b 641 633 722 477 693 570 b 804 911 749 675 804 767 l 661 911 b 534 726 661 803 619 740 l 503 720 b 407 732 473 728 441 732 b 92 359 208 732 92 597 b 407 -14 92 122 208 -14 z m 407 115 b 241 359 301 115 241 203 b 407 604 241 515 301 604 b 572 359 513 604 572 515 b 407 115 572 203 513 115 z m 338 846 l 469 846 l 597 1104 l 454 1104 z "},"ợ":{"ha":814,"x_min":0,"x_max":0,"o":"m 407 -14 b 722 359 606 -14 722 122 b 641 633 722 477 693 570 b 804 911 749 675 804 767 l 661 911 b 534 726 661 803 619 740 l 503 720 b 407 732 473 728 441 732 b 92 359 208 732 92 597 b 407 -14 92 122 208 -14 z m 407 115 b 241 359 301 115 241 203 b 407 604 241 515 301 604 b 572 359 513 604 572 515 b 407 115 572 203 513 115 z m 407 -285 b 498 -194 457 -285 498 -244 b 407 -103 498 -143 457 -103 b 316 -194 357 -103 316 -143 b 407 -285 316 -244 357 -285 z "},"ờ":{"ha":814,"x_min":0,"x_max":0,"o":"m 407 -14 b 722 359 606 -14 722 122 b 641 633 722 477 693 570 b 804 911 749 675 804 767 l 661 911 b 534 726 661 803 619 740 l 503 720 b 407 732 473 728 441 732 b 92 359 208 732 92 597 b 407 -14 92 122 208 -14 z m 407 115 b 241 359 301 115 241 203 b 407 604 241 515 301 604 b 572 359 513 604 572 515 b 407 115 572 203 513 115 z m 355 846 l 486 846 l 370 1104 l 227 1104 z "},"ở":{"ha":814,"x_min":0,"x_max":0,"o":"m 407 -14 b 722 359 606 -14 722 122 b 641 633 722 477 693 570 b 804 911 749 675 804 767 l 661 911 b 534 726 661 803 619 740 l 503 720 b 407 732 473 728 441 732 b 92 359 208 732 92 597 b 407 -14 92 122 208 -14 z m 407 115 b 241 359 301 115 241 203 b 407 604 241 515 301 604 b 572 359 513 604 572 515 b 407 115 572 203 513 115 z m 354 846 l 459 846 l 459 852 b 539 1017 459 923 539 930 b 399 1147 539 1095 484 1147 b 255 1097 340 1147 283 1127 l 300 1016 b 385 1045 321 1034 355 1045 b 427 1007 410 1045 427 1030 b 354 871 427 962 354 942 z "},"ỡ":{"ha":814,"x_min":0,"x_max":0,"o":"m 407 -14 b 722 359 606 -14 722 122 b 641 633 722 477 693 570 b 804 911 749 675 804 767 l 661 911 b 534 726 661 803 619 740 l 503 720 b 407 732 473 728 441 732 b 92 359 208 732 92 597 b 407 -14 92 122 208 -14 z m 407 115 b 241 359 301 115 241 203 b 407 604 241 515 301 604 b 572 359 513 604 572 515 b 407 115 572 203 513 115 z m 170 852 l 288 852 l 288 886 b 338 936 288 920 304 936 b 427 902 366 936 397 917 b 537 868 474 878 511 868 b 665 1031 622 868 665 922 l 665 1085 l 548 1085 l 548 1024 b 511 981 548 995 536 981 b 412 1019 489 981 457 996 b 312 1048 378 1036 348 1048 b 170 879 217 1048 170 992 z "},"ő":{"ha":814,"x_min":0,"x_max":0,"o":"m 407 -14 b 722 359 606 -14 722 122 b 407 732 722 597 606 732 b 92 359 208 732 92 597 b 407 -14 92 122 208 -14 z m 407 115 b 241 359 301 115 241 203 b 407 604 241 515 301 604 b 572 359 513 604 572 515 b 407 115 572 203 513 115 z m 196 846 l 333 846 l 448 1104 l 298 1104 z m 454 846 l 591 846 l 706 1104 l 555 1104 z "},"ō":{"ha":814,"x_min":0,"x_max":0,"o":"m 407 -14 b 722 359 606 -14 722 122 b 407 732 722 597 606 732 b 92 359 208 732 92 597 b 407 -14 92 122 208 -14 z m 407 115 b 241 359 301 115 241 203 b 407 604 241 515 301 604 b 572 359 513 604 572 515 b 407 115 572 203 513 115 z m 115 846 l 699 846 l 699 974 l 115 974 z "},"ṓ":{"ha":814,"x_min":0,"x_max":0,"o":"m 407 -14 b 722 359 606 -14 722 122 b 407 732 722 597 606 732 b 92 359 208 732 92 597 b 407 -14 92 122 208 -14 z m 407 115 b 241 359 301 115 241 203 b 407 604 241 515 301 604 b 572 359 513 604 572 515 b 407 115 572 203 513 115 z m 115 846 l 699 846 l 699 974 l 115 974 z m 338 1077 l 469 1077 l 597 1335 l 454 1335 z "},"ṑ":{"ha":814,"x_min":0,"x_max":0,"o":"m 407 -14 b 722 359 606 -14 722 122 b 407 732 722 597 606 732 b 92 359 208 732 92 597 b 407 -14 92 122 208 -14 z m 407 115 b 241 359 301 115 241 203 b 407 604 241 515 301 604 b 572 359 513 604 572 515 b 407 115 572 203 513 115 z m 115 846 l 699 846 l 699 974 l 115 974 z m 355 1077 l 486 1077 l 370 1335 l 227 1335 z "},"ǫ":{"ha":814,"x_min":0,"x_max":0,"o":"m 454 -288 b 515 -281 471 -288 492 -286 l 527 -166 b 471 -174 505 -172 486 -174 b 393 -114 408 -174 393 -138 b 525 5 393 -39 469 -16 b 722 359 651 50 722 174 b 407 732 722 597 606 732 b 92 359 208 732 92 597 b 368 -12 92 138 193 5 l 368 -27 b 291 -157 319 -43 291 -91 b 454 -288 291 -240 350 -288 z m 407 115 b 241 359 301 115 241 203 b 407 604 241 515 301 604 b 572 359 513 604 572 515 b 407 115 572 203 513 115 z "},"ɔ":{"ha":814,"x_min":0,"x_max":0,"o":"m 357 -14 b 722 358 591 -14 722 123 b 338 732 722 600 583 732 b 122 701 249 732 192 724 l 144 576 b 321 604 213 596 260 604 b 579 351 486 604 579 515 b 362 115 579 201 499 115 b 160 178 279 115 205 144 l 90 70 b 357 -14 143 23 240 -14 z "},"ø":{"ha":814,"x_min":0,"x_max":0,"o":"m 204 -91 l 264 16 b 407 -14 305 -3 353 -14 b 722 359 606 -14 722 122 b 621 654 722 490 686 591 l 686 768 l 608 812 l 547 705 b 407 732 507 723 460 732 b 92 359 208 732 92 597 b 192 66 92 229 127 129 l 133 -40 z m 407 115 b 330 135 378 115 353 122 l 544 515 b 572 359 562 475 572 423 b 407 115 572 203 513 115 z m 269 205 b 241 359 251 245 241 296 b 407 604 241 515 301 604 b 481 585 435 604 460 597 z "},"ǿ":{"ha":814,"x_min":0,"x_max":0,"o":"m 204 -91 l 264 16 b 407 -14 305 -3 353 -14 b 722 359 606 -14 722 122 b 621 654 722 490 686 591 l 686 768 l 608 812 l 547 705 b 407 732 507 723 460 732 b 92 359 208 732 92 597 b 192 66 92 229 127 129 l 133 -40 z m 407 115 b 330 135 378 115 353 122 l 544 515 b 572 359 562 475 572 423 b 407 115 572 203 513 115 z m 269 205 b 241 359 251 245 241 296 b 407 604 241 515 301 604 b 481 585 435 604 460 597 z m 338 846 l 469 846 l 597 1104 l 454 1104 z "},"õ":{"ha":814,"x_min":0,"x_max":0,"o":"m 407 -14 b 722 359 606 -14 722 122 b 407 732 722 597 606 732 b 92 359 208 732 92 597 b 407 -14 92 122 208 -14 z m 407 115 b 241 359 301 115 241 203 b 407 604 241 515 301 604 b 572 359 513 604 572 515 b 407 115 572 203 513 115 z m 170 852 l 288 852 l 288 886 b 338 936 288 920 304 936 b 427 902 366 936 397 917 b 537 868 474 878 511 868 b 665 1031 622 868 665 922 l 665 1085 l 548 1085 l 548 1024 b 511 981 548 995 536 981 b 412 1019 489 981 457 996 b 312 1048 378 1036 348 1048 b 170 879 217 1048 170 992 z "},"œ":{"ha":814,"x_min":0,"x_max":0,"o":"m 247 -14 b 423 127 332 -14 391 33 b 652 -14 469 36 547 -14 b 768 -1 690 -14 732 -9 l 750 115 b 669 106 724 109 694 106 b 481 296 566 106 499 174 l 792 296 b 796 388 795 323 796 357 b 589 732 796 607 721 732 b 418 605 512 732 454 688 b 247 732 385 690 328 732 b 14 359 91 732 14 609 b 247 -14 14 110 91 -14 z m 247 115 b 137 359 173 115 137 196 b 247 604 137 523 173 604 b 345 359 313 604 345 523 b 247 115 345 196 313 115 z m 477 399 b 574 606 480 544 510 606 b 673 399 644 606 673 545 z "},"p":{"ha":814,"x_min":0,"x_max":0,"o":"m 114 -312 l 258 -312 l 258 130 l 271 130 b 462 -14 280 40 351 -14 b 749 353 650 -14 749 112 b 462 732 749 602 650 732 b 264 589 350 732 277 679 l 256 589 l 244 719 l 114 719 z m 258 335 l 258 384 b 430 610 258 532 317 610 b 606 353 546 610 606 522 b 430 109 606 192 546 109 b 258 335 317 109 258 186 z "},"þ":{"ha":814,"x_min":0,"x_max":0,"o":"m 114 -312 l 258 -312 l 258 130 l 271 130 b 462 -14 280 40 351 -14 b 749 353 650 -14 749 112 b 462 732 749 602 650 732 b 271 589 354 732 283 679 l 258 589 l 258 1017 l 114 1017 z m 258 335 l 258 384 b 430 610 258 532 317 610 b 606 353 546 610 606 522 b 430 109 606 192 546 109 b 258 335 317 109 258 186 z "},"q":{"ha":814,"x_min":0,"x_max":0,"o":"m 351 -14 b 543 111 460 -14 533 28 l 556 111 l 556 -312 l 700 -312 l 700 719 l 570 719 l 558 589 l 543 589 b 353 732 530 685 468 732 b 65 353 170 732 65 594 b 351 -14 65 117 170 -14 z m 556 431 l 556 231 b 395 109 556 149 503 109 b 208 353 271 109 208 191 b 393 610 208 517 275 610 b 556 431 502 610 556 551 z "},"r":{"ha":814,"x_min":0,"x_max":0,"o":"m 358 309 b 540 610 358 502 418 610 b 639 463 609 610 639 567 l 781 463 b 570 732 781 652 718 732 b 372 534 445 732 380 667 l 355 534 l 331 719 l 81 719 l 81 601 l 214 601 l 214 118 l 54 118 l 54 0 l 534 0 l 534 118 l 358 118 z "},"ŕ":{"ha":814,"x_min":0,"x_max":0,"o":"m 358 309 b 540 610 358 502 418 610 b 639 463 609 610 639 567 l 781 463 b 570 732 781 652 718 732 b 372 534 445 732 380 667 l 355 534 l 331 719 l 81 719 l 81 601 l 214 601 l 214 118 l 54 118 l 54 0 l 534 0 l 534 118 l 358 118 z m 338 846 l 469 846 l 597 1104 l 454 1104 z "},"ř":{"ha":814,"x_min":0,"x_max":0,"o":"m 358 309 b 540 610 358 502 418 610 b 639 463 609 610 639 567 l 781 463 b 570 732 781 652 718 732 b 372 534 445 732 380 667 l 355 534 l 331 719 l 81 719 l 81 601 l 214 601 l 214 118 l 54 118 l 54 0 l 534 0 l 534 118 l 358 118 z m 349 821 l 465 821 l 628 1078 l 484 1078 l 407 925 l 330 1078 l 186 1078 z "},"ŗ":{"ha":814,"x_min":0,"x_max":0,"o":"m 358 309 b 540 610 358 502 418 610 b 639 463 609 610 639 567 l 781 463 b 570 732 781 652 718 732 b 372 534 445 732 380 667 l 355 534 l 331 719 l 81 719 l 81 601 l 214 601 l 214 118 l 54 118 l 54 0 l 534 0 l 534 118 l 358 118 z m 166 -326 l 290 -326 l 369 -95 l 218 -95 z "},"ṛ":{"ha":814,"x_min":0,"x_max":0,"o":"m 358 309 b 540 610 358 502 418 610 b 639 463 609 610 639 567 l 781 463 b 570 732 781 652 718 732 b 372 534 445 732 380 667 l 355 534 l 331 719 l 81 719 l 81 601 l 214 601 l 214 118 l 54 118 l 54 0 l 534 0 l 534 118 l 358 118 z m 292 -285 b 382 -194 342 -285 382 -244 b 292 -103 382 -143 342 -103 b 201 -194 241 -103 201 -143 b 292 -285 201 -244 241 -285 z "},"s":{"ha":814,"x_min":0,"x_max":0,"o":"m 351 -14 b 708 208 601 -14 708 53 b 490 412 708 323 640 376 l 357 445 b 266 515 295 460 266 473 b 495 604 266 578 334 604 b 674 594 548 604 601 601 l 689 719 b 499 732 625 728 568 732 b 117 509 231 732 117 666 b 323 320 117 400 181 356 l 488 278 b 559 205 536 266 559 248 b 351 115 559 142 496 115 b 122 137 286 115 217 122 l 106 7 b 351 -14 170 -8 243 -14 z "},"ś":{"ha":814,"x_min":0,"x_max":0,"o":"m 351 -14 b 708 208 601 -14 708 53 b 490 412 708 323 640 376 l 357 445 b 266 515 295 460 266 473 b 495 604 266 578 334 604 b 674 594 548 604 601 601 l 689 719 b 499 732 625 728 568 732 b 117 509 231 732 117 666 b 323 320 117 400 181 356 l 488 278 b 559 205 536 266 559 248 b 351 115 559 142 496 115 b 122 137 286 115 217 122 l 106 7 b 351 -14 170 -8 243 -14 z m 359 846 l 489 846 l 618 1104 l 474 1104 z "},"š":{"ha":814,"x_min":0,"x_max":0,"o":"m 351 -14 b 708 208 601 -14 708 53 b 490 412 708 323 640 376 l 357 445 b 266 515 295 460 266 473 b 495 604 266 578 334 604 b 674 594 548 604 601 601 l 689 719 b 499 732 625 728 568 732 b 117 509 231 732 117 666 b 323 320 117 400 181 356 l 488 278 b 559 205 536 266 559 248 b 351 115 559 142 496 115 b 122 137 286 115 217 122 l 106 7 b 351 -14 170 -8 243 -14 z m 369 821 l 486 821 l 648 1078 l 505 1078 l 427 925 l 350 1078 l 206 1078 z "},"ş":{"ha":814,"x_min":0,"x_max":0,"o":"m 291 -326 b 547 -181 463 -326 547 -277 b 431 -68 547 -121 509 -84 l 446 -9 b 708 208 628 6 708 74 b 490 412 708 323 640 376 l 357 445 b 266 515 295 460 266 473 b 495 604 266 578 334 604 b 674 594 548 604 601 601 l 689 719 b 499 732 625 728 568 732 b 117 509 231 732 117 666 b 323 320 117 400 181 356 l 488 278 b 559 205 536 266 559 248 b 351 115 559 142 496 115 b 122 137 286 115 217 122 l 106 7 b 349 -14 169 -8 242 -14 l 309 -129 b 418 -175 382 -129 418 -144 b 291 -224 418 -208 376 -224 z "},"ŝ":{"ha":814,"x_min":0,"x_max":0,"o":"m 351 -14 b 708 208 601 -14 708 53 b 490 412 708 323 640 376 l 357 445 b 266 515 295 460 266 473 b 495 604 266 578 334 604 b 674 594 548 604 601 601 l 689 719 b 499 732 625 728 568 732 b 117 509 231 732 117 666 b 323 320 117 400 181 356 l 488 278 b 559 205 536 266 559 248 b 351 115 559 142 496 115 b 122 137 286 115 217 122 l 106 7 b 351 -14 170 -8 243 -14 z m 206 846 l 350 846 l 427 1000 l 505 846 l 648 846 l 486 1104 l 369 1104 z "},"ș":{"ha":814,"x_min":0,"x_max":0,"o":"m 351 -14 b 708 208 601 -14 708 53 b 490 412 708 323 640 376 l 357 445 b 266 515 295 460 266 473 b 495 604 266 578 334 604 b 674 594 548 604 601 601 l 689 719 b 499 732 625 728 568 732 b 117 509 231 732 117 666 b 323 320 117 400 181 356 l 488 278 b 559 205 536 266 559 248 b 351 115 559 142 496 115 b 122 137 286 115 217 122 l 106 7 b 351 -14 170 -8 243 -14 z m 275 -326 l 398 -326 l 477 -95 l 327 -95 z "},"ṣ":{"ha":814,"x_min":0,"x_max":0,"o":"m 351 -14 b 708 208 601 -14 708 53 b 490 412 708 323 640 376 l 357 445 b 266 515 295 460 266 473 b 495 604 266 578 334 604 b 674 594 548 604 601 601 l 689 719 b 499 732 625 728 568 732 b 117 509 231 732 117 666 b 323 320 117 400 181 356 l 488 278 b 559 205 536 266 559 248 b 351 115 559 142 496 115 b 122 137 286 115 217 122 l 106 7 b 351 -14 170 -8 243 -14 z m 400 -285 b 491 -194 450 -285 491 -244 b 400 -103 491 -143 450 -103 b 309 -194 350 -103 309 -143 b 400 -285 309 -244 350 -285 z "},"ß":{"ha":814,"x_min":0,"x_max":0,"o":"m 555 -14 b 789 194 704 -14 789 62 b 665 406 789 290 723 352 b 591 529 626 448 591 485 b 629 642 591 581 612 609 b 698 821 661 688 698 725 b 457 1031 698 954 610 1031 b 151 726 262 1031 151 920 l 151 556 l 46 556 l 46 437 l 151 437 l 151 0 l 294 0 l 294 732 b 453 902 294 840 352 902 b 549 821 514 901 549 871 b 493 672 549 755 519 712 b 442 522 471 630 442 585 b 557 332 442 425 503 379 b 640 191 602 296 640 257 b 555 115 640 143 609 115 b 400 137 515 115 466 123 l 384 7 b 555 -14 428 -6 483 -14 z "},"ſ":{"ha":814,"x_min":0,"x_max":0,"o":"m 313 0 l 457 0 l 457 665 b 629 902 457 823 514 902 b 761 886 668 902 707 897 l 789 1010 b 633 1031 737 1025 690 1031 b 313 658 419 1031 313 907 l 313 556 l 46 556 l 46 437 l 313 437 z "},"t":{"ha":814,"x_min":0,"x_max":0,"o":"m 537 -14 b 726 3 605 -14 662 -8 l 709 129 b 551 115 644 121 595 115 b 372 278 423 115 372 164 l 372 601 l 699 601 l 699 719 l 372 719 l 372 936 l 228 936 l 228 719 l 47 719 l 47 601 l 228 601 l 228 271 b 537 -14 228 72 319 -14 z "},"ŧ":{"ha":814,"x_min":0,"x_max":0,"o":"m 47 336 l 228 336 l 228 271 b 537 -14 228 72 319 -14 b 726 3 605 -14 662 -8 l 709 129 b 551 115 644 121 595 115 b 372 278 423 115 372 164 l 372 336 l 699 336 l 699 454 l 372 454 l 372 601 l 699 601 l 699 719 l 372 719 l 372 936 l 228 936 l 228 719 l 47 719 l 47 601 l 228 601 l 228 454 l 47 454 z "},"ť":{"ha":814,"x_min":0,"x_max":0,"o":"m 537 -14 b 726 3 605 -14 662 -8 l 709 129 b 551 115 644 121 595 115 b 372 278 423 115 372 164 l 372 601 l 699 601 l 699 719 l 372 719 l 372 936 l 228 936 l 228 719 l 47 719 l 47 601 l 228 601 l 228 271 b 537 -14 228 72 319 -14 z m 483 833 l 600 833 l 661 1090 l 517 1090 z "},"ţ":{"ha":814,"x_min":0,"x_max":0,"o":"m 537 -14 b 726 3 605 -14 662 -8 l 709 129 b 551 115 644 121 595 115 b 372 278 423 115 372 164 l 372 601 l 699 601 l 699 719 l 372 719 l 372 936 l 228 936 l 228 719 l 47 719 l 47 601 l 228 601 l 228 271 b 405 1 228 118 281 33 l 359 -129 b 469 -175 433 -129 469 -144 b 342 -224 469 -208 427 -224 l 342 -326 b 598 -181 513 -326 598 -277 b 481 -68 598 -121 559 -84 l 496 -12 b 537 -14 509 -13 523 -14 z "},"ț":{"ha":814,"x_min":0,"x_max":0,"o":"m 537 -14 b 726 3 605 -14 662 -8 l 709 129 b 551 115 644 121 595 115 b 372 278 423 115 372 164 l 372 601 l 699 601 l 699 719 l 372 719 l 372 936 l 228 936 l 228 719 l 47 719 l 47 601 l 228 601 l 228 271 b 537 -14 228 72 319 -14 z m 326 -326 l 449 -326 l 528 -95 l 378 -95 z "},"ʧ":{"ha":814,"x_min":0,"x_max":0,"o":"m 347 -14 b 434 -4 378 -14 405 -10 l 418 122 b 361 115 395 118 377 115 b 277 197 302 115 277 140 l 277 601 l 517 601 l 517 -12 b 336 -188 517 -123 463 -175 l 256 -196 l 263 -323 l 323 -319 b 661 9 559 -303 661 -205 l 661 726 b 765 848 661 803 699 848 b 822 842 783 848 804 846 l 837 966 b 742 977 809 973 774 977 b 517 719 591 977 517 891 l 277 719 l 277 936 l 133 936 l 133 719 l 7 719 l 7 601 l 133 601 l 133 190 b 347 -14 133 47 197 -14 z "},"u":{"ha":814,"x_min":0,"x_max":0,"o":"m 336 -14 b 525 138 433 -14 502 41 l 538 138 l 548 -7 l 779 0 l 779 115 l 680 130 l 680 719 l 536 719 l 536 332 b 377 115 536 176 481 115 b 243 244 292 115 243 161 l 243 719 l 99 719 l 99 244 b 336 -14 99 80 185 -14 z "},"ú":{"ha":814,"x_min":0,"x_max":0,"o":"m 336 -14 b 525 138 433 -14 502 41 l 538 138 l 548 -7 l 779 0 l 779 115 l 680 130 l 680 719 l 536 719 l 536 332 b 377 115 536 176 481 115 b 243 244 292 115 243 161 l 243 719 l 99 719 l 99 244 b 336 -14 99 80 185 -14 z m 325 846 l 455 846 l 584 1104 l 440 1104 z "},"ŭ":{"ha":814,"x_min":0,"x_max":0,"o":"m 336 -14 b 525 138 433 -14 502 41 l 538 138 l 548 -7 l 779 0 l 779 115 l 680 130 l 680 719 l 536 719 l 536 332 b 377 115 536 176 481 115 b 243 244 292 115 243 161 l 243 719 l 99 719 l 99 244 b 336 -14 99 80 185 -14 z m 393 840 b 630 1058 544 840 630 919 l 630 1087 l 511 1087 l 511 1058 b 393 932 511 977 469 932 b 275 1058 317 932 275 977 l 275 1087 l 157 1087 l 157 1058 b 393 840 157 919 243 840 z "},"û":{"ha":814,"x_min":0,"x_max":0,"o":"m 336 -14 b 525 138 433 -14 502 41 l 538 138 l 548 -7 l 779 0 l 779 115 l 680 130 l 680 719 l 536 719 l 536 332 b 377 115 536 176 481 115 b 243 244 292 115 243 161 l 243 719 l 99 719 l 99 244 b 336 -14 99 80 185 -14 z m 172 846 l 316 846 l 393 1000 l 471 846 l 614 846 l 452 1104 l 335 1104 z "},"ü":{"ha":814,"x_min":0,"x_max":0,"o":"m 336 -14 b 525 138 433 -14 502 41 l 538 138 l 548 -7 l 779 0 l 779 115 l 680 130 l 680 719 l 536 719 l 536 332 b 377 115 536 176 481 115 b 243 244 292 115 243 161 l 243 719 l 99 719 l 99 244 b 336 -14 99 80 185 -14 z m 252 840 b 343 930 302 840 343 880 b 252 1021 343 981 302 1021 b 161 930 202 1021 161 981 b 252 840 161 880 202 840 z m 537 840 b 628 930 587 840 628 880 b 537 1021 628 981 587 1021 b 446 930 487 1021 446 981 b 537 840 446 880 487 840 z "},"ụ":{"ha":814,"x_min":0,"x_max":0,"o":"m 336 -14 b 525 138 433 -14 502 41 l 538 138 l 548 -7 l 779 0 l 779 115 l 680 130 l 680 719 l 536 719 l 536 332 b 377 115 536 176 481 115 b 243 244 292 115 243 161 l 243 719 l 99 719 l 99 244 b 336 -14 99 80 185 -14 z m 380 -285 b 471 -194 430 -285 471 -244 b 380 -103 471 -143 430 -103 b 289 -194 330 -103 289 -143 b 380 -285 289 -244 330 -285 z "},"ù":{"ha":814,"x_min":0,"x_max":0,"o":"m 336 -14 b 525 138 433 -14 502 41 l 538 138 l 548 -7 l 779 0 l 779 115 l 680 130 l 680 719 l 536 719 l 536 332 b 377 115 536 176 481 115 b 243 244 292 115 243 161 l 243 719 l 99 719 l 99 244 b 336 -14 99 80 185 -14 z m 342 846 l 472 846 l 357 1104 l 213 1104 z "},"ủ":{"ha":814,"x_min":0,"x_max":0,"o":"m 336 -14 b 525 138 433 -14 502 41 l 538 138 l 548 -7 l 779 0 l 779 115 l 680 130 l 680 719 l 536 719 l 536 332 b 377 115 536 176 481 115 b 243 244 292 115 243 161 l 243 719 l 99 719 l 99 244 b 336 -14 99 80 185 -14 z m 340 846 l 446 846 l 446 852 b 526 1017 446 923 526 930 b 385 1147 526 1095 470 1147 b 241 1097 326 1147 269 1127 l 287 1016 b 371 1045 308 1034 341 1045 b 413 1007 396 1045 413 1030 b 340 871 413 962 340 942 z "},"ư":{"ha":814,"x_min":0,"x_max":0,"o":"m 336 -14 b 525 138 433 -14 502 41 l 538 138 l 548 -7 l 779 0 l 779 115 l 680 130 l 680 642 b 833 911 786 691 833 775 l 684 911 b 564 726 684 802 648 747 l 536 719 l 536 719 l 536 332 b 377 115 536 176 481 115 b 243 244 292 115 243 161 l 243 719 l 99 719 l 99 244 b 336 -14 99 80 185 -14 z "},"ứ":{"ha":814,"x_min":0,"x_max":0,"o":"m 336 -14 b 525 138 433 -14 502 41 l 538 138 l 548 -7 l 779 0 l 779 115 l 680 130 l 680 642 b 833 911 786 691 833 775 l 684 911 b 564 726 684 802 648 747 l 536 719 l 536 719 l 536 332 b 377 115 536 176 481 115 b 243 244 292 115 243 161 l 243 719 l 99 719 l 99 244 b 336 -14 99 80 185 -14 z m 325 846 l 455 846 l 584 1104 l 440 1104 z "},"ự":{"ha":814,"x_min":0,"x_max":0,"o":"m 336 -14 b 525 138 433 -14 502 41 l 538 138 l 548 -7 l 779 0 l 779 115 l 680 130 l 680 642 b 833 911 786 691 833 775 l 684 911 b 564 726 684 802 648 747 l 536 719 l 536 719 l 536 332 b 377 115 536 176 481 115 b 243 244 292 115 243 161 l 243 719 l 99 719 l 99 244 b 336 -14 99 80 185 -14 z m 380 -285 b 471 -194 430 -285 471 -244 b 380 -103 471 -143 430 -103 b 289 -194 330 -103 289 -143 b 380 -285 289 -244 330 -285 z "},"ừ":{"ha":814,"x_min":0,"x_max":0,"o":"m 336 -14 b 525 138 433 -14 502 41 l 538 138 l 548 -7 l 779 0 l 779 115 l 680 130 l 680 642 b 833 911 786 691 833 775 l 684 911 b 564 726 684 802 648 747 l 536 719 l 536 719 l 536 332 b 377 115 536 176 481 115 b 243 244 292 115 243 161 l 243 719 l 99 719 l 99 244 b 336 -14 99 80 185 -14 z m 342 846 l 472 846 l 357 1104 l 213 1104 z "},"ử":{"ha":814,"x_min":0,"x_max":0,"o":"m 336 -14 b 525 138 433 -14 502 41 l 538 138 l 548 -7 l 779 0 l 779 115 l 680 130 l 680 642 b 833 911 786 691 833 775 l 684 911 b 564 726 684 802 648 747 l 536 719 l 536 719 l 536 332 b 377 115 536 176 481 115 b 243 244 292 115 243 161 l 243 719 l 99 719 l 99 244 b 336 -14 99 80 185 -14 z m 340 846 l 446 846 l 446 852 b 526 1017 446 923 526 930 b 385 1147 526 1095 470 1147 b 241 1097 326 1147 269 1127 l 287 1016 b 371 1045 308 1034 341 1045 b 413 1007 396 1045 413 1030 b 340 871 413 962 340 942 z "},"ữ":{"ha":814,"x_min":0,"x_max":0,"o":"m 336 -14 b 525 138 433 -14 502 41 l 538 138 l 548 -7 l 779 0 l 779 115 l 680 130 l 680 642 b 833 911 786 691 833 775 l 684 911 b 564 726 684 802 648 747 l 536 719 l 536 719 l 536 332 b 377 115 536 176 481 115 b 243 244 292 115 243 161 l 243 719 l 99 719 l 99 244 b 336 -14 99 80 185 -14 z m 156 852 l 274 852 l 274 886 b 324 936 274 920 291 936 b 413 902 353 936 383 917 b 524 868 460 878 498 868 b 651 1031 608 868 651 922 l 651 1085 l 534 1085 l 534 1024 b 498 981 534 995 522 981 b 399 1019 475 981 444 996 b 298 1048 364 1036 334 1048 b 156 879 203 1048 156 992 z "},"ű":{"ha":814,"x_min":0,"x_max":0,"o":"m 336 -14 b 525 138 433 -14 502 41 l 538 138 l 548 -7 l 779 0 l 779 115 l 680 130 l 680 719 l 536 719 l 536 332 b 377 115 536 176 481 115 b 243 244 292 115 243 161 l 243 719 l 99 719 l 99 244 b 336 -14 99 80 185 -14 z m 182 846 l 319 846 l 435 1104 l 284 1104 z m 440 846 l 577 846 l 692 1104 l 542 1104 z "},"ū":{"ha":814,"x_min":0,"x_max":0,"o":"m 336 -14 b 525 138 433 -14 502 41 l 538 138 l 548 -7 l 779 0 l 779 115 l 680 130 l 680 719 l 536 719 l 536 332 b 377 115 536 176 481 115 b 243 244 292 115 243 161 l 243 719 l 99 719 l 99 244 b 336 -14 99 80 185 -14 z m 102 846 l 685 846 l 685 974 l 102 974 z "},"ų":{"ha":814,"x_min":0,"x_max":0,"o":"m 685 -288 b 746 -281 703 -288 725 -286 l 758 -166 b 703 -174 738 -171 718 -174 b 624 -114 652 -174 624 -152 b 755 -1 624 -47 671 -6 l 779 0 l 779 115 l 680 130 l 680 719 l 536 719 l 536 332 b 377 115 536 176 481 115 b 243 244 292 115 243 161 l 243 719 l 99 719 l 99 244 b 336 -14 99 80 185 -14 b 525 138 433 -14 502 41 l 538 138 l 548 -7 l 600 -5 l 600 -24 b 522 -144 550 -39 522 -83 b 685 -288 522 -235 581 -288 z "},"ʊ":{"ha":814,"x_min":0,"x_max":0,"o":"m 71 718 l 71 599 l 237 599 l 237 585 b 65 304 129 544 65 440 b 407 -10 65 106 192 -10 b 749 304 622 -10 749 106 b 593 583 749 441 691 545 l 593 599 l 743 599 l 743 718 l 471 718 l 471 599 b 600 355 551 578 600 487 b 407 119 600 206 528 119 b 214 355 286 119 214 206 b 359 599 214 486 268 576 l 359 718 z "},"ů":{"ha":814,"x_min":0,"x_max":0,"o":"m 336 -14 b 525 138 433 -14 502 41 l 538 138 l 548 -7 l 779 0 l 779 115 l 680 130 l 680 719 l 536 719 l 536 332 b 377 115 536 176 481 115 b 243 244 292 115 243 161 l 243 719 l 99 719 l 99 244 b 336 -14 99 80 185 -14 z m 393 812 b 555 959 496 812 555 866 b 393 1105 555 1052 496 1105 b 232 959 291 1105 232 1052 b 393 812 232 866 291 812 z m 393 891 b 328 959 351 891 328 916 b 393 1027 328 1002 351 1027 b 458 959 435 1027 458 1002 b 393 891 458 916 435 891 z "},"ũ":{"ha":814,"x_min":0,"x_max":0,"o":"m 336 -14 b 525 138 433 -14 502 41 l 538 138 l 548 -7 l 779 0 l 779 115 l 680 130 l 680 719 l 536 719 l 536 332 b 377 115 536 176 481 115 b 243 244 292 115 243 161 l 243 719 l 99 719 l 99 244 b 336 -14 99 80 185 -14 z m 156 852 l 274 852 l 274 886 b 324 936 274 920 291 936 b 413 902 353 936 383 917 b 524 868 460 878 498 868 b 651 1031 608 868 651 922 l 651 1085 l 534 1085 l 534 1024 b 498 981 534 995 522 981 b 399 1019 475 981 444 996 b 298 1048 364 1036 334 1048 b 156 879 203 1048 156 992 z "},"v":{"ha":814,"x_min":0,"x_max":0,"o":"m 311 0 l 503 0 l 760 719 l 606 719 l 413 122 l 401 122 l 208 719 l 54 719 z "},"ʋ":{"ha":814,"x_min":0,"x_max":0,"o":"m 407 -14 b 708 278 605 -14 708 86 l 708 529 b 515 719 707 669 657 719 l 442 719 l 442 590 l 488 590 b 564 495 544 590 564 565 l 564 278 b 407 115 564 171 510 115 b 250 278 304 115 250 171 l 250 719 l 106 719 l 106 278 b 407 -14 108 86 211 -14 z "},"ʌ":{"ha":814,"x_min":0,"x_max":0,"o":"m 64 0 l 214 0 l 401 602 l 413 602 l 600 0 l 749 0 l 505 719 l 309 719 z "},"w":{"ha":814,"x_min":0,"x_max":0,"o":"m 488 0 l 665 0 l 766 719 l 624 719 l 563 109 l 551 109 l 466 719 l 334 719 l 250 109 l 237 109 l 183 719 l 47 719 l 129 0 l 312 0 l 396 571 l 404 571 z "},"ẃ":{"ha":814,"x_min":0,"x_max":0,"o":"m 488 0 l 665 0 l 766 719 l 624 719 l 563 109 l 551 109 l 466 719 l 334 719 l 250 109 l 237 109 l 183 719 l 47 719 l 129 0 l 312 0 l 396 571 l 404 571 z m 332 846 l 462 846 l 591 1104 l 447 1104 z "},"ŵ":{"ha":814,"x_min":0,"x_max":0,"o":"m 488 0 l 665 0 l 766 719 l 624 719 l 563 109 l 551 109 l 466 719 l 334 719 l 250 109 l 237 109 l 183 719 l 47 719 l 129 0 l 312 0 l 396 571 l 404 571 z m 179 846 l 323 846 l 400 1000 l 477 846 l 621 846 l 458 1104 l 342 1104 z "},"ẅ":{"ha":814,"x_min":0,"x_max":0,"o":"m 488 0 l 665 0 l 766 719 l 624 719 l 563 109 l 551 109 l 466 719 l 334 719 l 250 109 l 237 109 l 183 719 l 47 719 l 129 0 l 312 0 l 396 571 l 404 571 z m 259 840 b 350 930 309 840 350 880 b 259 1021 350 981 309 1021 b 168 930 209 1021 168 981 b 259 840 168 880 209 840 z m 544 840 b 635 930 594 840 635 880 b 544 1021 635 981 594 1021 b 453 930 494 1021 453 981 b 544 840 453 880 494 840 z "},"ẁ":{"ha":814,"x_min":0,"x_max":0,"o":"m 488 0 l 665 0 l 766 719 l 624 719 l 563 109 l 551 109 l 466 719 l 334 719 l 250 109 l 237 109 l 183 719 l 47 719 l 129 0 l 312 0 l 396 571 l 404 571 z m 349 846 l 479 846 l 363 1104 l 220 1104 z "},"x":{"ha":814,"x_min":0,"x_max":0,"o":"m 72 0 l 235 0 l 404 250 l 579 0 l 742 0 l 481 361 l 742 719 l 579 719 l 407 467 l 235 719 l 72 719 l 329 355 z "},"y":{"ha":814,"x_min":0,"x_max":0,"o":"m 51 -326 l 173 -312 b 549 64 366 -290 467 -194 l 756 719 l 607 719 l 431 109 l 421 109 l 186 719 l 37 719 l 323 0 l 393 0 b 157 -183 342 -119 271 -170 l 44 -197 z "},"ý":{"ha":814,"x_min":0,"x_max":0,"o":"m 51 -326 l 173 -312 b 549 64 366 -290 467 -194 l 756 719 l 607 719 l 431 109 l 421 109 l 186 719 l 37 719 l 323 0 l 393 0 b 157 -183 342 -119 271 -170 l 44 -197 z m 349 846 l 479 846 l 608 1104 l 464 1104 z "},"ŷ":{"ha":814,"x_min":0,"x_max":0,"o":"m 51 -326 l 173 -312 b 549 64 366 -290 467 -194 l 756 719 l 607 719 l 431 109 l 421 109 l 186 719 l 37 719 l 323 0 l 393 0 b 157 -183 342 -119 271 -170 l 44 -197 z m 196 846 l 340 846 l 417 1000 l 494 846 l 638 846 l 475 1104 l 359 1104 z "},"ÿ":{"ha":814,"x_min":0,"x_max":0,"o":"m 51 -326 l 173 -312 b 549 64 366 -290 467 -194 l 756 719 l 607 719 l 431 109 l 421 109 l 186 719 l 37 719 l 323 0 l 393 0 b 157 -183 342 -119 271 -170 l 44 -197 z m 276 840 b 367 930 326 840 367 880 b 276 1021 367 981 326 1021 b 185 930 226 1021 185 981 b 276 840 185 880 226 840 z m 561 840 b 652 930 611 840 652 880 b 561 1021 652 981 611 1021 b 470 930 511 1021 470 981 b 561 840 470 880 511 840 z "},"ỵ":{"ha":814,"x_min":0,"x_max":0,"o":"m 51 -326 l 173 -312 b 549 64 366 -290 467 -194 l 756 719 l 607 719 l 431 109 l 421 109 l 186 719 l 37 719 l 323 0 l 393 0 b 157 -183 342 -119 271 -170 l 44 -197 z m 641 -285 b 732 -194 691 -285 732 -244 b 641 -103 732 -143 691 -103 b 550 -194 591 -103 550 -143 b 641 -285 550 -244 591 -285 z "},"ỳ":{"ha":814,"x_min":0,"x_max":0,"o":"m 51 -326 l 173 -312 b 549 64 366 -290 467 -194 l 756 719 l 607 719 l 431 109 l 421 109 l 186 719 l 37 719 l 323 0 l 393 0 b 157 -183 342 -119 271 -170 l 44 -197 z m 366 846 l 496 846 l 380 1104 l 237 1104 z "},"ỷ":{"ha":814,"x_min":0,"x_max":0,"o":"m 51 -326 l 173 -312 b 549 64 366 -290 467 -194 l 756 719 l 607 719 l 431 109 l 421 109 l 186 719 l 37 719 l 323 0 l 393 0 b 157 -183 342 -119 271 -170 l 44 -197 z m 364 846 l 469 846 l 469 852 b 549 1017 469 923 549 930 b 409 1147 549 1095 494 1147 b 265 1097 350 1147 293 1127 l 311 1016 b 395 1045 332 1034 365 1045 b 437 1007 420 1045 437 1030 b 364 871 437 962 364 942 z "},"ȳ":{"ha":814,"x_min":0,"x_max":0,"o":"m 51 -326 l 173 -312 b 549 64 366 -290 467 -194 l 756 719 l 607 719 l 431 109 l 421 109 l 186 719 l 37 719 l 323 0 l 393 0 b 157 -183 342 -119 271 -170 l 44 -197 z m 125 846 l 709 846 l 709 974 l 125 974 z "},"ỹ":{"ha":814,"x_min":0,"x_max":0,"o":"m 51 -326 l 173 -312 b 549 64 366 -290 467 -194 l 756 719 l 607 719 l 431 109 l 421 109 l 186 719 l 37 719 l 323 0 l 393 0 b 157 -183 342 -119 271 -170 l 44 -197 z m 180 852 l 298 852 l 298 886 b 348 936 298 920 315 936 b 437 902 376 936 407 917 b 547 868 484 878 522 868 b 675 1031 632 868 675 922 l 675 1085 l 558 1085 l 558 1024 b 522 981 558 995 546 981 b 422 1019 499 981 467 996 b 322 1048 388 1036 358 1048 b 180 879 227 1048 180 992 z "},"z":{"ha":814,"x_min":0,"x_max":0,"o":"m 109 0 l 703 0 l 703 119 l 278 119 l 689 600 l 689 719 l 109 719 l 109 600 l 522 600 l 109 119 z "},"ź":{"ha":814,"x_min":0,"x_max":0,"o":"m 109 0 l 703 0 l 703 119 l 278 119 l 689 600 l 689 719 l 109 719 l 109 600 l 522 600 l 109 119 z m 338 846 l 469 846 l 597 1104 l 454 1104 z "},"ž":{"ha":814,"x_min":0,"x_max":0,"o":"m 109 0 l 703 0 l 703 119 l 278 119 l 689 600 l 689 719 l 109 719 l 109 600 l 522 600 l 109 119 z m 349 821 l 465 821 l 628 1078 l 484 1078 l 407 925 l 330 1078 l 186 1078 z "},"ż":{"ha":814,"x_min":0,"x_max":0,"o":"m 109 0 l 703 0 l 703 119 l 278 119 l 689 600 l 689 719 l 109 719 l 109 600 l 522 600 l 109 119 z m 406 840 b 496 930 456 840 496 880 b 406 1021 496 981 456 1021 b 315 930 355 1021 315 981 b 406 840 315 880 355 840 z "},"ﬁ":{"ha":814,"x_min":0,"x_max":0,"o":"m 191 0 l 335 0 l 335 438 l 556 438 l 556 0 l 700 0 l 700 556 l 335 556 l 335 665 b 534 902 335 823 401 902 b 666 892 573 902 612 899 l 681 1017 b 538 1031 633 1027 590 1031 b 191 658 306 1031 191 907 l 191 556 l 46 556 l 46 438 l 191 438 z "},"ﬂ":{"ha":814,"x_min":0,"x_max":0,"o":"m 191 0 l 335 0 l 335 438 l 487 438 l 487 556 l 335 556 l 335 665 b 548 902 335 823 406 902 b 578 901 558 902 568 902 l 578 0 l 722 0 l 722 1017 b 552 1031 665 1027 614 1031 b 191 658 311 1031 191 907 l 191 556 l 46 556 l 46 438 l 191 438 z "},"ª":{"ha":814,"x_min":0,"x_max":0,"o":"m 468 528 l 637 532 l 637 608 l 564 617 l 564 786 b 325 976 564 909 488 975 l 215 977 l 208 878 l 333 878 b 452 799 412 878 452 849 l 452 795 b 349 802 422 800 389 802 b 155 655 225 802 155 749 b 302 524 155 572 210 524 b 447 620 389 524 424 557 l 464 620 z m 452 715 l 452 705 b 332 616 452 663 412 616 b 274 667 294 616 274 634 b 351 718 274 701 300 718 b 452 715 385 718 418 718 z "},"º":{"ha":814,"x_min":0,"x_max":0,"o":"m 407 522 b 639 749 547 522 639 612 b 407 977 639 886 547 977 b 175 749 267 977 175 886 b 407 522 175 612 267 522 z m 407 624 b 300 749 342 624 300 674 b 407 875 300 825 342 875 b 513 749 471 875 513 825 b 407 624 513 674 471 624 z "},"ⁿ":{"ha":814,"x_min":0,"x_max":0,"o":"m 488 536 l 614 536 l 614 818 b 444 977 614 918 551 977 b 336 890 380 977 340 945 l 327 890 l 320 968 l 201 968 l 201 536 l 328 536 l 328 789 b 410 886 328 854 355 886 b 488 801 462 886 488 858 z "},"ʷ":{"ha":814,"x_min":0,"x_max":0,"o":"m 456 536 l 604 536 l 659 964 l 536 964 l 509 663 l 488 663 l 435 964 l 370 964 l 318 663 l 296 663 l 284 964 l 156 964 l 197 536 l 350 536 l 393 840 l 412 840 z "},"ʸ":{"ha":814,"x_min":0,"x_max":0,"o":"m 189 342 l 241 342 b 526 574 406 342 479 435 l 656 964 l 524 964 l 425 641 l 412 641 l 303 964 l 171 964 l 322 536 l 385 536 b 231 454 349 477 294 454 l 189 454 z "},"А":{"ha":814,"x_min":0,"x_max":0,"o":"m 31 0 l 173 0 l 236 235 l 578 235 l 641 0 l 783 0 l 505 963 l 309 963 z m 271 363 l 401 846 l 413 846 l 543 363 z "},"Б":{"ha":814,"x_min":0,"x_max":0,"o":"m 109 0 l 468 0 b 760 300 653 0 760 109 b 468 587 760 483 653 587 l 244 587 l 244 834 l 689 834 l 689 963 l 109 963 z m 244 129 l 244 458 l 449 458 b 617 300 556 458 617 401 b 449 129 617 191 556 129 z "},"В":{"ha":814,"x_min":0,"x_max":0,"o":"m 109 0 l 477 0 b 769 264 663 0 769 96 b 471 506 769 416 661 503 l 471 514 b 701 719 618 530 701 602 b 395 963 701 875 590 963 l 109 963 z m 244 129 l 244 444 l 429 444 b 627 285 555 444 627 386 b 438 129 627 186 557 129 z m 244 573 l 244 834 l 388 834 b 559 705 497 834 559 788 b 397 573 559 621 500 573 z "},"Г":{"ha":814,"x_min":0,"x_max":0,"o":"m 122 0 l 258 0 l 258 834 l 739 834 l 739 963 l 122 963 z "},"Ѓ":{"ha":814,"x_min":0,"x_max":0,"o":"m 122 0 l 258 0 l 258 834 l 739 834 l 739 963 l 122 963 z m 332 1072 l 489 1072 l 672 1241 l 481 1241 z "},"Ґ":{"ha":814,"x_min":0,"x_max":0,"o":"m 122 0 l 258 0 l 258 834 l 753 834 l 753 1173 l 617 1173 l 617 963 l 122 963 z "},"Д":{"ha":814,"x_min":0,"x_max":0,"o":"m 20 -197 l 156 -197 l 156 0 l 658 0 l 658 -197 l 793 -197 l 793 129 l 708 129 l 708 963 l 161 963 l 161 589 b 83 129 161 441 134 213 l 20 129 z m 572 129 l 214 129 b 286 593 264 231 286 449 l 286 834 l 572 834 z "},"Е":{"ha":814,"x_min":0,"x_max":0,"o":"m 109 0 l 746 0 l 746 129 l 244 129 l 244 418 l 624 418 l 624 547 l 244 547 l 244 834 l 746 834 l 746 963 l 109 963 z "},"Ѐ":{"ha":814,"x_min":0,"x_max":0,"o":"m 109 0 l 746 0 l 746 129 l 244 129 l 244 418 l 624 418 l 624 547 l 244 547 l 244 834 l 746 834 l 746 963 l 109 963 z m 366 1072 l 523 1072 l 374 1241 l 182 1241 z "},"Ё":{"ha":814,"x_min":0,"x_max":0,"o":"m 109 0 l 746 0 l 746 129 l 244 129 l 244 418 l 624 418 l 624 547 l 244 547 l 244 834 l 746 834 l 746 963 l 109 963 z m 286 1072 b 377 1162 336 1072 377 1112 b 286 1253 377 1213 336 1253 b 195 1162 236 1253 195 1213 b 286 1072 195 1112 236 1072 z m 568 1072 b 659 1162 618 1072 659 1112 b 568 1253 659 1213 618 1253 b 477 1162 518 1253 477 1213 b 568 1072 477 1112 518 1072 z "},"Ж":{"ha":814,"x_min":0,"x_max":0,"o":"m 18 -3 l 79 -3 b 197 130 157 -3 197 37 l 197 355 b 250 417 197 405 197 417 l 349 417 l 349 0 l 465 0 l 465 417 l 564 417 b 616 355 616 417 616 405 l 616 130 b 734 -3 616 37 657 -3 l 795 -3 l 795 125 l 780 125 b 747 169 763 125 747 138 l 747 370 b 642 465 747 428 705 461 l 618 467 l 618 496 l 642 498 b 747 593 705 502 747 535 l 747 794 b 780 838 747 825 763 838 l 795 838 l 795 966 l 734 966 b 616 833 657 966 616 926 l 616 608 b 564 546 616 558 616 546 l 465 546 l 465 963 l 349 963 l 349 546 l 250 546 b 197 608 197 546 197 558 l 197 833 b 79 966 197 926 157 966 l 18 966 l 18 838 l 34 838 b 67 794 51 838 67 825 l 67 593 b 172 498 67 535 109 502 l 189 496 l 189 467 l 172 465 b 67 370 109 461 67 428 l 67 169 b 34 125 67 138 51 125 l 18 125 z "},"З":{"ha":814,"x_min":0,"x_max":0,"o":"m 384 -14 b 727 267 595 -14 727 97 b 455 512 727 422 598 505 l 455 520 b 689 741 622 559 689 629 b 321 977 689 882 581 977 b 127 949 243 977 170 962 l 144 824 b 319 851 203 838 264 851 b 551 718 484 851 551 793 b 245 570 551 621 465 576 l 260 442 l 362 442 b 586 281 496 442 586 385 b 387 111 586 175 511 111 b 141 198 285 111 226 136 l 43 102 b 384 -14 131 25 242 -14 z "},"И":{"ha":814,"x_min":0,"x_max":0,"o":"m 100 0 l 244 0 l 570 726 l 583 726 l 583 0 l 713 0 l 713 963 l 570 963 l 244 237 l 231 237 l 231 963 l 100 963 z "},"Й":{"ha":814,"x_min":0,"x_max":0,"o":"m 100 0 l 244 0 l 570 726 l 583 726 l 583 0 l 713 0 l 713 963 l 570 963 l 244 237 l 231 237 l 231 963 l 100 963 z m 407 1065 b 640 1261 555 1065 640 1137 l 508 1261 b 407 1157 508 1181 471 1157 b 306 1261 342 1157 306 1181 l 174 1261 b 407 1065 174 1137 259 1065 z "},"Ѝ":{"ha":814,"x_min":0,"x_max":0,"o":"m 100 0 l 244 0 l 570 726 l 583 726 l 583 0 l 713 0 l 713 963 l 570 963 l 244 237 l 231 237 l 231 963 l 100 963 z m 345 1072 l 503 1072 l 353 1241 l 162 1241 z "},"К":{"ha":814,"x_min":0,"x_max":0,"o":"m 95 0 l 231 0 l 231 417 l 367 417 b 503 302 462 417 487 382 l 529 178 b 711 -3 557 41 593 -3 l 766 -3 l 766 125 l 734 125 b 669 196 692 125 682 145 l 633 340 b 460 472 613 420 575 472 l 422 472 l 422 491 l 460 491 b 620 623 569 491 600 543 l 656 767 b 721 838 669 818 680 838 l 753 838 l 753 966 l 704 966 b 522 785 586 966 550 922 l 496 661 b 367 546 479 579 455 546 l 231 546 l 231 963 l 95 963 z "},"Ќ":{"ha":814,"x_min":0,"x_max":0,"o":"m 95 0 l 231 0 l 231 417 l 367 417 b 503 302 462 417 487 382 l 529 178 b 711 -3 557 41 593 -3 l 766 -3 l 766 125 l 734 125 b 669 196 692 125 682 145 l 633 340 b 460 472 613 420 575 472 l 422 472 l 422 491 l 460 491 b 620 623 569 491 600 543 l 656 767 b 721 838 669 818 680 838 l 753 838 l 753 966 l 704 966 b 522 785 586 966 550 922 l 496 661 b 367 546 479 579 455 546 l 231 546 l 231 963 l 95 963 z m 318 1072 l 475 1072 l 659 1241 l 467 1241 z "},"Л":{"ha":814,"x_min":0,"x_max":0,"o":"m 25 1 b 298 421 277 1 298 161 l 298 834 l 583 834 l 583 0 l 719 0 l 719 963 l 172 963 l 172 416 b 25 130 172 239 166 130 z "},"М":{"ha":814,"x_min":0,"x_max":0,"o":"m 87 0 l 217 0 l 217 792 l 235 792 l 345 393 l 469 393 l 579 792 l 597 792 l 597 0 l 727 0 l 727 963 l 522 963 l 412 549 l 401 549 l 292 963 l 87 963 z "},"Н":{"ha":814,"x_min":0,"x_max":0,"o":"m 583 0 l 719 0 l 719 963 l 583 963 l 583 544 l 231 544 l 231 963 l 95 963 l 95 0 l 231 0 l 231 415 l 583 415 z "},"О":{"ha":814,"x_min":0,"x_max":0,"o":"m 407 -14 b 762 475 643 -14 762 148 b 407 977 762 810 643 977 b 52 475 171 977 52 810 b 407 -14 52 148 171 -14 z m 407 111 b 194 475 265 111 194 232 b 407 852 194 727 265 852 b 620 475 549 852 620 727 b 407 111 620 232 549 111 z "},"П":{"ha":814,"x_min":0,"x_max":0,"o":"m 583 0 l 719 0 l 719 963 l 95 963 l 95 0 l 231 0 l 231 834 l 583 834 z "},"Р":{"ha":814,"x_min":0,"x_max":0,"o":"m 109 0 l 244 0 l 244 298 l 392 298 b 760 644 633 298 760 417 b 392 963 760 854 633 963 l 109 963 z m 244 427 l 244 834 l 392 834 b 617 644 540 834 617 769 b 392 427 617 502 540 427 z "},"С":{"ha":814,"x_min":0,"x_max":0,"o":"m 507 -14 b 755 33 593 -14 675 1 l 724 152 b 530 111 661 125 597 111 b 203 490 313 111 203 237 b 492 852 203 721 317 852 b 672 755 566 852 631 817 l 772 855 b 491 977 727 932 624 977 b 58 483 216 977 58 796 b 507 -14 58 152 209 -14 z "},"Т":{"ha":814,"x_min":0,"x_max":0,"o":"m 339 0 l 475 0 l 475 834 l 760 834 l 760 963 l 54 963 l 54 834 l 339 834 z "},"У":{"ha":814,"x_min":0,"x_max":0,"o":"m 131 0 b 554 244 382 0 484 56 l 791 963 l 642 963 l 456 346 l 446 346 l 208 963 l 58 963 l 366 186 b 131 129 315 144 242 129 z "},"Ў":{"ha":814,"x_min":0,"x_max":0,"o":"m 131 0 b 554 244 382 0 484 56 l 791 963 l 642 963 l 456 346 l 446 346 l 208 963 l 58 963 l 366 186 b 131 129 315 144 242 129 z m 434 1065 b 667 1261 582 1065 667 1137 l 535 1261 b 434 1157 535 1181 498 1157 b 333 1261 370 1157 333 1181 l 201 1261 b 434 1065 201 1137 286 1065 z "},"Ф":{"ha":814,"x_min":0,"x_max":0,"o":"m 349 -14 l 464 -14 l 464 98 b 769 481 667 117 769 243 b 464 879 769 727 667 859 l 464 990 l 349 990 l 349 879 b 45 481 146 859 45 726 b 349 98 45 244 146 117 z m 457 766 b 633 481 575 747 633 652 b 457 210 633 319 575 229 z m 355 210 b 180 481 239 230 180 320 b 355 766 180 652 239 746 z "},"Х":{"ha":814,"x_min":0,"x_max":0,"o":"m 614 0 l 770 0 l 475 477 l 770 963 l 614 963 l 407 594 l 200 963 l 44 963 l 339 477 l 44 0 l 200 0 l 407 361 z "},"Ч":{"ha":814,"x_min":0,"x_max":0,"o":"m 359 370 l 549 370 l 549 0 l 685 0 l 685 963 l 549 963 l 549 498 l 359 498 b 197 695 245 498 197 557 l 197 963 l 61 963 l 61 695 b 359 370 61 467 150 370 z "},"Ц":{"ha":814,"x_min":0,"x_max":0,"o":"m 95 0 l 651 0 l 651 -197 l 787 -197 l 787 129 l 712 129 l 712 963 l 576 963 l 576 129 l 231 129 l 231 963 l 95 963 z "},"Ш":{"ha":814,"x_min":0,"x_max":0,"o":"m 87 0 l 727 0 l 727 963 l 591 963 l 591 122 l 465 122 l 465 963 l 349 963 l 349 122 l 222 122 l 222 963 l 87 963 z "},"Щ":{"ha":814,"x_min":0,"x_max":0,"o":"m 87 0 l 651 0 l 651 -197 l 787 -197 l 787 122 l 727 122 l 727 963 l 591 963 l 591 122 l 465 122 l 465 963 l 349 963 l 349 122 l 222 122 l 222 963 l 87 963 z "},"Џ":{"ha":814,"x_min":0,"x_max":0,"o":"m 339 -197 l 475 -197 l 475 0 l 719 0 l 719 963 l 583 963 l 583 129 l 231 129 l 231 963 l 95 963 l 95 0 l 339 0 z "},"Ь":{"ha":814,"x_min":0,"x_max":0,"o":"m 95 0 l 464 0 b 755 311 640 0 755 123 b 464 621 755 498 640 621 l 231 621 l 231 963 l 95 963 z m 231 129 l 231 492 l 425 492 b 613 311 538 492 613 420 b 425 129 613 201 538 129 z "},"Ъ":{"ha":814,"x_min":0,"x_max":0,"o":"m 163 0 l 471 0 b 762 311 646 0 762 123 b 471 621 762 498 646 621 l 298 621 l 298 963 l -7 963 l -7 834 l 163 834 z m 298 129 l 298 492 l 431 492 b 620 311 545 492 620 420 b 431 129 620 201 545 129 z "},"Ы":{"ha":814,"x_min":0,"x_max":0,"o":"m 87 0 l 308 0 b 511 311 431 0 511 123 b 308 621 511 498 431 621 l 222 621 l 222 963 l 87 963 z m 598 0 l 727 0 l 727 963 l 598 963 z m 222 129 l 222 492 l 269 492 b 382 311 337 492 382 420 b 269 129 382 201 337 129 z "},"Љ":{"ha":814,"x_min":0,"x_max":0,"o":"m 36 0 b 258 307 205 0 258 71 l 258 834 l 383 834 l 383 0 l 586 0 b 762 311 692 0 762 123 b 586 621 762 498 692 621 l 505 621 l 505 963 l 149 963 l 149 302 b 36 129 149 170 123 129 z m 505 129 l 505 492 l 547 492 b 633 311 599 492 633 420 b 547 129 633 201 599 129 z "},"Њ":{"ha":814,"x_min":0,"x_max":0,"o":"m 87 0 l 222 0 l 222 415 l 369 415 l 369 0 l 579 0 b 762 311 690 0 762 123 b 579 621 762 498 690 621 l 505 621 l 505 963 l 369 963 l 369 544 l 222 544 l 222 963 l 87 963 z m 505 129 l 505 492 l 540 492 b 633 311 596 492 633 420 b 540 129 633 201 596 129 z "},"Ѕ":{"ha":814,"x_min":0,"x_max":0,"o":"m 374 -14 b 717 248 604 -14 717 74 b 498 524 717 380 641 456 l 357 590 b 258 719 292 621 258 656 b 405 852 258 806 312 852 b 625 759 479 852 545 824 l 720 855 b 404 977 627 941 534 977 b 113 712 219 977 113 880 b 317 448 113 587 185 507 l 484 372 b 572 245 541 346 572 305 b 385 111 572 155 511 111 b 105 176 296 111 204 134 l 87 39 b 374 -14 169 4 264 -14 z "},"Є":{"ha":814,"x_min":0,"x_max":0,"o":"m 514 -14 b 762 33 600 -14 682 1 l 731 152 b 537 111 667 125 604 111 b 206 429 334 111 223 217 l 585 429 l 585 557 l 207 557 b 499 852 228 746 338 852 b 679 755 572 852 638 817 l 779 855 b 498 977 734 932 631 977 b 65 483 222 977 65 796 b 514 -14 65 152 216 -14 z "},"Э":{"ha":814,"x_min":0,"x_max":0,"o":"m 323 -14 b 749 484 606 -14 749 174 b 309 977 749 802 598 977 b 58 937 220 977 138 964 l 90 818 b 286 852 153 840 216 852 b 604 557 473 852 581 745 l 226 557 l 226 429 l 607 429 b 330 111 593 229 492 111 b 109 198 241 111 189 132 l 12 102 b 323 -14 92 25 201 -14 z "},"І":{"ha":814,"x_min":0,"x_max":0,"o":"m 114 0 l 700 0 l 700 129 l 474 129 l 474 834 l 700 834 l 700 963 l 114 963 l 114 834 l 338 834 l 338 129 l 114 129 z "},"Ї":{"ha":814,"x_min":0,"x_max":0,"o":"m 114 0 l 700 0 l 700 129 l 474 129 l 474 834 l 700 834 l 700 963 l 114 963 l 114 834 l 338 834 l 338 129 l 114 129 z m 266 1072 b 357 1162 316 1072 357 1112 b 266 1253 357 1213 316 1253 b 175 1162 216 1253 175 1213 b 266 1072 175 1112 216 1072 z m 548 1072 b 639 1162 598 1072 639 1112 b 548 1253 639 1213 598 1253 b 457 1162 498 1253 457 1213 b 548 1072 457 1112 498 1072 z "},"Ј":{"ha":814,"x_min":0,"x_max":0,"o":"m 389 -14 b 720 323 597 -14 720 109 l 720 963 l 332 963 l 332 834 l 585 834 l 585 323 b 393 109 585 186 515 109 b 194 323 266 109 194 187 l 58 323 b 389 -14 58 110 178 -14 z "},"Ћ":{"ha":814,"x_min":0,"x_max":0,"o":"m 585 0 l 720 0 l 720 264 b 441 590 720 493 637 590 l 298 590 l 298 834 l 570 834 l 570 963 l 14 963 l 14 834 l 163 834 l 163 0 l 298 0 l 298 461 l 441 461 b 585 264 542 461 585 402 z "},"Ю":{"ha":814,"x_min":0,"x_max":0,"o":"m 526 -14 b 762 475 692 -14 762 132 b 526 977 762 827 692 977 b 290 544 371 977 299 846 l 183 544 l 183 963 l 54 963 l 54 0 l 183 0 l 183 415 l 290 415 b 526 -14 298 115 370 -14 z m 519 111 b 411 475 443 111 411 220 b 519 852 411 739 443 852 b 627 475 595 852 627 739 b 519 111 627 220 595 111 z "},"Я":{"ha":814,"x_min":0,"x_max":0,"o":"m 49 -3 l 81 -3 b 269 134 207 -3 248 50 l 304 272 b 455 359 319 333 342 359 l 585 359 l 585 0 l 720 0 l 720 963 l 396 963 b 76 675 197 963 76 859 b 337 427 76 462 235 431 l 338 410 l 322 410 b 177 288 256 410 205 390 l 153 200 b 71 125 135 136 106 125 l 49 125 z m 585 488 l 396 488 b 218 665 288 488 218 555 b 396 834 218 777 288 834 l 585 834 z "},"Ђ":{"ha":814,"x_min":0,"x_max":0,"o":"m 415 0 b 734 302 628 0 734 100 b 427 600 734 501 632 600 l 298 600 l 298 834 l 549 834 l 549 963 l -7 963 l -7 834 l 163 834 l 163 0 l 298 0 l 298 471 l 427 471 b 598 302 541 471 598 414 b 415 129 598 186 538 129 z "},"Ғ":{"ha":814,"x_min":0,"x_max":0,"o":"m -3 397 l 122 397 l 122 0 l 258 0 l 258 397 l 480 397 l 480 526 l 258 526 l 258 834 l 739 834 l 739 963 l 122 963 l 122 526 l -3 526 z "},"Җ":{"ha":814,"x_min":0,"x_max":0,"o":"m 18 -3 l 79 -3 b 197 130 157 -3 197 37 l 197 355 b 237 417 197 405 197 417 l 322 417 l 322 0 l 437 0 l 437 417 l 523 417 b 562 355 562 417 562 405 l 562 130 b 680 -3 562 37 603 -3 l 685 -3 l 685 -197 l 814 -197 l 814 129 l 726 129 b 692 172 709 129 692 142 l 692 370 b 588 465 692 428 650 461 l 558 467 l 558 496 l 588 498 b 692 593 650 502 692 535 l 692 794 b 726 838 692 825 709 838 l 741 838 l 741 966 l 680 966 b 562 833 603 966 562 926 l 562 608 b 523 546 562 558 562 546 l 437 546 l 437 963 l 322 963 l 322 546 l 237 546 b 197 608 197 546 197 558 l 197 833 b 79 966 197 926 157 966 l 18 966 l 18 838 l 34 838 b 67 794 51 838 67 825 l 67 593 b 172 498 67 535 109 502 l 195 496 l 195 467 l 172 465 b 67 370 109 461 67 428 l 67 169 b 34 125 67 138 51 125 l 18 125 z "},"Қ":{"ha":814,"x_min":0,"x_max":0,"o":"m 95 0 l 231 0 l 231 417 l 367 417 b 503 302 462 417 487 382 l 529 178 b 658 1 552 64 581 14 l 658 -197 l 787 -197 l 787 125 l 734 125 b 669 196 692 125 682 145 l 633 340 b 460 472 613 420 575 472 l 422 472 l 422 491 l 460 491 b 620 623 569 491 600 543 l 656 767 b 721 838 669 818 680 838 l 753 838 l 753 966 l 704 966 b 522 785 586 966 550 922 l 496 661 b 367 546 479 579 455 546 l 231 546 l 231 963 l 95 963 z "},"Ң":{"ha":814,"x_min":0,"x_max":0,"o":"m 658 -197 l 787 -197 l 787 129 l 719 129 l 719 963 l 583 963 l 583 544 l 231 544 l 231 963 l 95 963 l 95 0 l 231 0 l 231 415 l 583 415 l 583 0 l 658 0 z "},"Ү":{"ha":814,"x_min":0,"x_max":0,"o":"m 339 0 l 475 0 l 475 341 l 797 963 l 648 963 l 413 481 l 401 481 l 166 963 l 17 963 l 339 341 z "},"Ұ":{"ha":814,"x_min":0,"x_max":0,"o":"m 174 200 l 339 200 l 339 0 l 475 0 l 475 200 l 642 200 l 642 329 l 475 329 l 475 341 l 797 963 l 648 963 l 413 481 l 401 481 l 166 963 l 17 963 l 339 341 l 339 329 l 174 329 z "},"Ҳ":{"ha":814,"x_min":0,"x_max":0,"o":"m 658 -197 l 787 -197 l 787 129 l 690 129 l 475 477 l 770 963 l 614 963 l 407 594 l 200 963 l 44 963 l 339 477 l 44 0 l 200 0 l 407 361 l 614 0 l 658 0 z "},"Ҷ":{"ha":814,"x_min":0,"x_max":0,"o":"m 644 -197 l 773 -197 l 773 129 l 685 129 l 685 963 l 549 963 l 549 498 l 359 498 b 197 695 245 498 197 557 l 197 963 l 61 963 l 61 695 b 359 370 61 467 150 370 l 549 370 l 549 0 l 644 0 z "},"Һ":{"ha":814,"x_min":0,"x_max":0,"o":"m 583 0 l 719 0 l 719 268 b 420 593 719 496 630 593 l 231 593 l 231 963 l 95 963 l 95 0 l 231 0 l 231 465 l 420 465 b 583 268 534 465 583 406 z "},"Ӏ":{"ha":814,"x_min":0,"x_max":0,"o":"m 114 0 l 700 0 l 700 129 l 474 129 l 474 834 l 700 834 l 700 963 l 114 963 l 114 834 l 338 834 l 338 129 l 114 129 z "},"Ә":{"ha":814,"x_min":0,"x_max":0,"o":"m 407 -14 b 762 475 643 -14 762 148 b 339 977 762 810 620 977 b 114 945 261 977 185 966 l 133 825 b 339 852 197 843 267 852 b 617 541 509 852 602 749 l 54 541 b 52 461 52 516 52 489 b 407 -14 52 143 171 -14 z m 618 412 b 407 111 606 211 536 111 b 195 412 275 111 205 211 z "},"Ӣ":{"ha":814,"x_min":0,"x_max":0,"o":"m 100 0 l 244 0 l 570 726 l 583 726 l 583 0 l 713 0 l 713 963 l 570 963 l 244 237 l 231 237 l 231 963 l 100 963 z m 144 1072 l 669 1072 l 669 1199 l 144 1199 z "},"Ө":{"ha":814,"x_min":0,"x_max":0,"o":"m 407 -14 b 762 475 643 -14 762 148 b 407 977 762 810 643 977 b 52 475 171 977 52 810 b 407 -14 52 148 171 -14 z m 196 544 b 407 852 208 750 279 852 b 618 544 535 852 606 750 z m 407 111 b 195 415 277 111 207 212 l 618 415 b 407 111 607 212 536 111 z "},"Ӯ":{"ha":814,"x_min":0,"x_max":0,"o":"m 131 0 b 554 244 382 0 484 56 l 791 963 l 642 963 l 456 346 l 446 346 l 208 963 l 58 963 l 366 186 b 131 129 315 144 242 129 z m 172 1072 l 696 1072 l 696 1199 l 172 1199 z "},"а":{"ha":814,"x_min":0,"x_max":0,"o":"m 555 -7 l 785 0 l 785 115 l 663 130 l 663 430 b 312 724 663 620 549 720 l 167 726 l 153 598 l 326 593 b 526 452 458 590 526 547 l 526 418 b 391 430 487 427 442 430 b 65 194 183 430 65 346 b 301 -14 65 62 151 -14 b 534 152 435 -14 524 41 l 548 152 z m 526 308 l 526 258 b 324 102 526 182 458 102 b 201 201 245 102 201 138 b 388 315 201 276 265 315 b 526 308 435 315 480 315 z "},"б":{"ha":814,"x_min":0,"x_max":0,"o":"m 418 -14 b 742 319 624 -14 742 108 b 486 637 742 522 648 637 b 250 480 366 637 277 581 l 234 480 l 234 547 b 494 800 234 704 297 767 l 713 838 l 707 966 l 456 924 b 90 477 201 880 90 749 l 90 357 b 418 -14 90 103 193 -14 z m 425 111 b 237 312 307 111 237 186 b 425 513 237 438 307 513 b 597 312 533 513 597 438 b 425 111 597 186 533 111 z "},"в":{"ha":814,"x_min":0,"x_max":0,"o":"m 121 0 l 525 0 b 742 183 663 0 742 66 b 518 367 742 298 661 364 l 518 380 b 715 536 643 385 715 441 b 483 719 715 652 630 719 l 121 719 z m 264 129 l 264 319 l 476 319 b 591 224 549 319 591 284 b 486 129 591 163 553 129 z m 264 427 l 264 590 l 449 590 b 564 509 522 590 564 560 b 458 427 564 457 526 427 z "},"г":{"ha":814,"x_min":0,"x_max":0,"o":"m 180 0 l 324 0 l 324 590 l 692 590 l 692 719 l 180 719 z "},"ѓ":{"ha":814,"x_min":0,"x_max":0,"o":"m 180 0 l 324 0 l 324 590 l 692 590 l 692 719 l 180 719 z m 399 846 l 530 846 l 659 1104 l 515 1104 z "},"ґ":{"ha":814,"x_min":0,"x_max":0,"o":"m 180 0 l 324 0 l 324 590 l 705 590 l 705 895 l 570 895 l 570 719 l 180 719 z "},"д":{"ha":814,"x_min":0,"x_max":0,"o":"m 27 -183 l 163 -183 l 163 0 l 631 0 l 631 -183 l 766 -183 l 766 129 l 681 129 l 681 719 l 162 719 l 162 457 b 96 129 162 313 143 206 l 27 129 z m 537 129 l 232 129 b 288 462 272 213 288 323 l 288 590 l 537 590 z "},"е":{"ha":814,"x_min":0,"x_max":0,"o":"m 476 -14 b 686 5 530 -14 601 -11 l 669 132 b 492 113 609 119 552 113 b 232 296 348 113 257 176 l 718 296 b 722 388 720 324 722 354 b 416 732 722 612 610 732 b 92 361 210 732 92 595 b 476 -14 92 119 231 -14 z m 227 406 b 418 606 238 534 307 606 b 591 406 526 606 591 534 z "},"ѐ":{"ha":814,"x_min":0,"x_max":0,"o":"m 476 -14 b 686 5 530 -14 601 -11 l 669 132 b 492 113 609 119 552 113 b 232 296 348 113 257 176 l 718 296 b 722 388 720 324 722 354 b 416 732 722 612 610 732 b 92 361 210 732 92 595 b 476 -14 92 119 231 -14 z m 227 406 b 418 606 238 534 307 606 b 591 406 526 606 591 534 z m 362 846 l 492 846 l 377 1104 l 233 1104 z "},"ё":{"ha":814,"x_min":0,"x_max":0,"o":"m 476 -14 b 686 5 530 -14 601 -11 l 669 132 b 492 113 609 119 552 113 b 232 296 348 113 257 176 l 718 296 b 722 388 720 324 722 354 b 416 732 722 612 610 732 b 92 361 210 732 92 595 b 476 -14 92 119 231 -14 z m 227 406 b 418 606 238 534 307 606 b 591 406 526 606 591 534 z m 273 840 b 363 930 323 840 363 880 b 273 1021 363 981 323 1021 b 182 930 222 1021 182 981 b 273 840 182 880 222 840 z m 557 840 b 648 930 608 840 648 880 b 557 1021 648 981 608 1021 b 467 930 507 1021 467 981 b 557 840 467 880 507 840 z "},"ж":{"ha":814,"x_min":0,"x_max":0,"o":"m 25 -7 l 75 -7 b 219 123 168 -7 219 32 l 219 239 b 219 241 219 239 219 240 b 267 300 219 288 219 300 l 345 300 l 345 0 l 467 0 l 467 300 l 547 300 b 595 241 595 300 595 288 b 595 239 595 240 595 239 l 595 123 b 739 -7 595 32 646 -7 l 789 -7 l 789 122 l 760 122 b 720 162 739 122 720 134 l 720 253 b 621 349 720 311 676 344 l 595 351 l 595 368 l 621 370 b 720 466 676 375 720 408 l 720 557 b 760 597 720 585 739 597 l 789 597 l 789 726 l 739 726 b 595 595 646 726 595 687 l 595 480 b 595 478 595 479 595 479 b 547 418 595 431 595 418 l 467 418 l 467 719 l 345 719 l 345 418 l 267 418 b 219 478 219 418 219 431 b 219 480 219 479 219 479 l 219 595 b 75 726 219 687 168 726 l 25 726 l 25 597 l 54 597 b 94 557 75 597 94 585 l 94 466 b 193 370 94 408 138 375 l 218 368 l 218 351 l 193 349 b 94 253 138 344 94 311 l 94 162 b 54 122 94 134 75 122 l 25 122 z "},"з":{"ha":814,"x_min":0,"x_max":0,"o":"m 377 -14 b 703 197 576 -14 703 70 b 495 373 703 294 634 353 l 495 387 b 675 547 613 402 675 474 b 346 732 675 675 547 732 b 136 715 251 732 203 724 l 153 593 b 331 608 231 601 269 608 b 526 510 459 608 526 574 b 310 429 526 458 496 429 l 272 429 l 279 318 l 308 318 b 553 214 490 318 553 283 b 372 111 553 146 491 111 b 147 175 304 111 212 127 l 78 75 b 377 -14 154 4 267 -14 z "},"и":{"ha":814,"x_min":0,"x_max":0,"o":"m 114 0 l 261 0 l 543 522 l 556 522 l 556 0 l 700 0 l 700 719 l 553 719 l 271 197 l 258 197 l 258 719 l 114 719 z "},"й":{"ha":814,"x_min":0,"x_max":0,"o":"m 114 0 l 261 0 l 543 522 l 556 522 l 556 0 l 700 0 l 700 719 l 553 719 l 271 197 l 258 197 l 258 719 l 114 719 z m 407 840 b 642 1087 568 840 642 920 l 515 1087 b 407 939 515 985 487 939 b 299 1087 328 939 299 983 l 172 1087 b 407 840 172 921 245 840 z "},"ѝ":{"ha":814,"x_min":0,"x_max":0,"o":"m 114 0 l 261 0 l 543 522 l 556 522 l 556 0 l 700 0 l 700 719 l 553 719 l 271 197 l 258 197 l 258 719 l 114 719 z m 355 846 l 486 846 l 370 1104 l 227 1104 z "},"к":{"ha":814,"x_min":0,"x_max":0,"o":"m 107 0 l 251 0 l 251 295 l 353 295 b 443 239 411 295 427 278 l 490 123 b 682 -3 532 19 575 -3 l 721 -3 l 721 125 l 699 125 b 638 162 665 125 651 132 l 591 273 b 448 350 568 325 521 350 l 440 350 l 440 369 l 441 369 b 577 446 514 369 555 394 l 625 557 b 685 593 637 587 652 593 l 714 593 l 714 722 l 675 722 b 490 595 568 722 532 700 l 443 479 b 353 424 427 441 411 424 l 251 424 l 251 719 l 107 719 z "},"ќ":{"ha":814,"x_min":0,"x_max":0,"o":"m 107 0 l 251 0 l 251 295 l 353 295 b 443 239 411 295 427 278 l 490 123 b 682 -3 532 19 575 -3 l 721 -3 l 721 125 l 699 125 b 638 162 665 125 651 132 l 591 273 b 448 350 568 325 521 350 l 440 350 l 440 369 l 441 369 b 577 446 514 369 555 394 l 625 557 b 685 593 637 587 652 593 l 714 593 l 714 722 l 675 722 b 490 595 568 722 532 700 l 443 479 b 353 424 427 441 411 424 l 251 424 l 251 719 l 107 719 z m 325 846 l 455 846 l 584 1104 l 440 1104 z "},"л":{"ha":814,"x_min":0,"x_max":0,"o":"m 43 0 b 310 340 248 0 310 78 l 310 590 l 560 590 l 560 0 l 704 0 l 704 719 l 184 719 l 184 335 b 43 129 184 176 151 129 z "},"м":{"ha":814,"x_min":0,"x_max":0,"o":"m 87 0 l 224 0 l 224 548 l 241 548 l 351 149 l 463 149 l 572 548 l 590 548 l 590 0 l 727 0 l 727 719 l 529 719 l 412 305 l 401 305 l 285 719 l 87 719 z "},"н":{"ha":814,"x_min":0,"x_max":0,"o":"m 556 0 l 700 0 l 700 719 l 556 719 l 556 418 l 258 418 l 258 719 l 114 719 l 114 0 l 258 0 l 258 300 l 556 300 z "},"о":{"ha":814,"x_min":0,"x_max":0,"o":"m 407 -14 b 722 359 606 -14 722 122 b 407 732 722 597 606 732 b 92 359 208 732 92 597 b 407 -14 92 122 208 -14 z m 407 115 b 241 359 301 115 241 203 b 407 604 241 515 301 604 b 572 359 513 604 572 515 b 407 115 572 203 513 115 z "},"п":{"ha":814,"x_min":0,"x_max":0,"o":"m 556 0 l 700 0 l 700 719 l 114 719 l 114 0 l 258 0 l 258 590 l 556 590 z "},"р":{"ha":814,"x_min":0,"x_max":0,"o":"m 114 -312 l 258 -312 l 258 130 l 271 130 b 462 -14 280 40 351 -14 b 749 353 650 -14 749 112 b 462 732 749 602 650 732 b 264 589 350 732 277 679 l 256 589 l 244 719 l 114 719 z m 258 335 l 258 384 b 430 610 258 532 317 610 b 606 353 546 610 606 522 b 430 109 606 192 546 109 b 258 335 317 109 258 186 z "},"с":{"ha":814,"x_min":0,"x_max":0,"o":"m 476 -14 b 707 7 551 -14 632 -9 l 690 133 b 492 115 627 122 559 115 b 237 368 329 115 237 203 b 452 604 237 518 316 604 b 633 500 527 604 593 566 l 744 583 b 457 732 701 678 597 732 b 92 361 223 732 92 595 b 476 -14 92 119 231 -14 z "},"т":{"ha":814,"x_min":0,"x_max":0,"o":"m 335 0 l 479 0 l 479 590 l 753 590 l 753 719 l 61 719 l 61 590 l 335 590 z "},"у":{"ha":814,"x_min":0,"x_max":0,"o":"m 51 -326 l 173 -312 b 549 64 366 -290 467 -194 l 756 719 l 607 719 l 431 109 l 421 109 l 186 719 l 37 719 l 323 0 l 393 0 b 157 -183 342 -119 271 -170 l 44 -197 z "},"ў":{"ha":814,"x_min":0,"x_max":0,"o":"m 51 -326 l 173 -312 b 549 64 366 -290 467 -194 l 756 719 l 607 719 l 431 109 l 421 109 l 186 719 l 37 719 l 323 0 l 393 0 b 157 -183 342 -119 271 -170 l 44 -197 z m 417 840 b 652 1087 578 840 652 920 l 525 1087 b 417 939 525 985 497 939 b 309 1087 338 939 309 983 l 182 1087 b 417 840 182 921 255 840 z "},"ф":{"ha":814,"x_min":0,"x_max":0,"o":"m 616 -14 b 783 353 733 -14 783 96 b 614 732 783 619 733 732 b 489 595 538 732 497 687 l 475 595 l 475 1017 l 338 1017 l 338 595 l 325 595 b 199 732 317 687 275 732 b 31 353 81 732 31 619 b 198 -14 31 96 81 -14 b 325 104 270 -14 319 26 l 338 104 l 338 -298 l 475 -298 l 475 104 l 489 104 b 616 -14 495 26 544 -14 z m 465 231 l 465 404 b 553 610 465 543 494 610 b 641 353 614 610 641 534 b 552 109 641 181 614 109 b 465 231 493 109 465 149 z m 349 404 l 349 231 b 262 109 349 149 321 109 b 173 353 199 109 173 181 b 260 610 173 534 199 610 b 349 404 319 610 349 543 z "},"х":{"ha":814,"x_min":0,"x_max":0,"o":"m 72 0 l 235 0 l 404 250 l 579 0 l 742 0 l 481 361 l 742 719 l 579 719 l 407 467 l 235 719 l 72 719 l 329 355 z "},"ч":{"ha":814,"x_min":0,"x_max":0,"o":"m 359 258 l 549 258 l 549 0 l 693 0 l 693 719 l 549 719 l 549 376 l 373 376 b 224 549 273 376 224 433 l 224 719 l 80 719 l 80 549 b 359 258 80 355 172 258 z "},"ц":{"ha":814,"x_min":0,"x_max":0,"o":"m 95 0 l 631 0 l 631 -183 l 766 -183 l 766 129 l 674 129 l 674 719 l 530 719 l 530 129 l 239 129 l 239 719 l 95 719 z "},"ш":{"ha":814,"x_min":0,"x_max":0,"o":"m 76 0 l 738 0 l 738 719 l 594 719 l 594 122 l 467 122 l 467 719 l 345 719 l 345 122 l 220 122 l 220 719 l 76 719 z "},"щ":{"ha":814,"x_min":0,"x_max":0,"o":"m 76 0 l 650 0 l 650 -183 l 785 -183 l 785 122 l 724 122 l 724 719 l 581 719 l 581 122 l 457 122 l 457 719 l 342 719 l 342 122 l 220 122 l 220 719 l 76 719 z "},"џ":{"ha":814,"x_min":0,"x_max":0,"o":"m 343 -183 l 479 -183 l 479 0 l 696 0 l 696 719 l 553 719 l 553 118 l 261 118 l 261 719 l 117 719 l 117 0 l 343 0 z "},"ь":{"ha":814,"x_min":0,"x_max":0,"o":"m 127 0 l 505 0 b 749 243 660 0 749 88 b 505 486 749 397 660 486 l 271 486 l 271 719 l 127 719 z m 271 129 l 271 357 l 486 357 b 600 243 558 357 600 315 b 486 129 600 170 558 129 z "},"ъ":{"ha":814,"x_min":0,"x_max":0,"o":"m 168 0 l 491 0 b 749 243 655 0 749 88 b 491 486 749 397 655 486 l 312 486 l 312 719 l 0 719 l 0 590 l 168 590 z m 312 129 l 312 357 l 472 357 b 600 243 553 357 600 315 b 472 129 600 170 553 129 z "},"ы":{"ha":814,"x_min":0,"x_max":0,"o":"m 76 0 l 283 0 b 507 243 425 0 507 88 b 283 486 507 397 425 486 l 220 486 l 220 719 l 76 719 z m 594 0 l 738 0 l 738 719 l 594 719 z m 220 115 l 220 370 l 264 370 b 378 243 336 370 378 324 b 264 115 378 161 336 115 z "},"љ":{"ha":814,"x_min":0,"x_max":0,"o":"m 43 0 b 261 238 210 0 261 55 l 261 601 l 387 601 l 387 0 l 570 0 b 794 243 713 0 794 88 b 570 486 794 397 713 486 l 517 486 l 517 719 l 136 719 l 136 233 b 43 129 136 153 114 129 z m 517 129 l 517 357 l 558 357 b 659 243 622 357 659 315 b 558 129 659 170 622 129 z "},"њ":{"ha":814,"x_min":0,"x_max":0,"o":"m 60 0 l 203 0 l 203 347 l 367 347 l 367 0 l 570 0 b 794 243 713 0 794 88 b 570 465 794 385 713 465 l 497 465 l 497 719 l 367 719 l 367 465 l 203 465 l 203 719 l 60 719 z m 497 129 l 497 347 l 558 347 b 659 243 622 347 659 309 b 558 129 659 170 622 129 z "},"ѕ":{"ha":814,"x_min":0,"x_max":0,"o":"m 351 -14 b 708 208 601 -14 708 53 b 490 412 708 323 640 376 l 357 445 b 266 515 295 460 266 473 b 495 604 266 578 334 604 b 674 594 548 604 601 601 l 689 719 b 499 732 625 728 568 732 b 117 509 231 732 117 666 b 323 320 117 400 181 356 l 488 278 b 559 205 536 266 559 248 b 351 115 559 142 496 115 b 122 137 286 115 217 122 l 106 7 b 351 -14 170 -8 243 -14 z "},"є":{"ha":814,"x_min":0,"x_max":0,"o":"m 463 -14 b 707 7 543 -14 628 -9 l 690 133 b 479 115 623 122 551 115 b 240 302 345 115 261 180 l 532 302 l 532 420 l 238 420 b 452 604 256 538 332 604 b 633 500 527 604 593 566 l 744 583 b 457 732 701 678 597 732 b 92 361 223 732 92 595 b 463 -14 92 119 227 -14 z "},"э":{"ha":814,"x_min":0,"x_max":0,"o":"m 357 -14 b 722 358 591 -14 722 123 b 324 732 722 600 578 732 b 149 721 257 732 199 728 l 137 589 b 308 604 197 599 253 604 b 572 420 455 604 548 540 l 282 420 l 282 302 l 576 302 b 362 115 560 182 484 115 b 160 178 279 115 205 144 l 90 70 b 357 -14 143 23 240 -14 z "},"і":{"ha":814,"x_min":0,"x_max":0,"o":"m 109 0 l 747 0 l 747 118 l 526 118 l 526 719 l 149 719 l 149 601 l 382 601 l 382 118 l 109 118 z m 450 833 b 550 933 505 833 550 878 b 450 1034 550 989 505 1034 b 349 933 394 1034 349 989 b 450 833 349 878 394 833 z "},"ї":{"ha":814,"x_min":0,"x_max":0,"o":"m 109 0 l 747 0 l 747 118 l 526 118 l 526 719 l 149 719 l 149 601 l 382 601 l 382 118 l 109 118 z m 300 840 b 391 930 350 840 391 880 b 300 1021 391 981 350 1021 b 209 930 250 1021 209 981 b 300 840 209 880 250 840 z m 585 840 b 675 930 635 840 675 880 b 585 1021 675 981 635 1021 b 494 930 534 1021 494 981 b 585 840 494 880 534 840 z "},"ј":{"ha":814,"x_min":0,"x_max":0,"o":"m 122 -326 l 237 -317 b 602 64 492 -297 602 -193 l 602 719 l 179 719 l 179 601 l 458 601 l 458 42 b 251 -186 458 -106 396 -172 l 115 -198 z m 515 833 b 616 933 571 833 616 878 b 515 1034 616 989 571 1034 b 415 933 460 1034 415 989 b 515 833 415 878 460 833 z "},"ћ":{"ha":814,"x_min":0,"x_max":0,"o":"m 556 0 l 700 0 l 700 387 b 475 651 700 555 618 651 b 298 507 363 651 306 604 l 285 507 l 285 777 l 522 777 l 522 895 l 285 895 l 285 1017 l 141 1017 l 141 895 l 0 895 l 0 777 l 141 777 l 141 0 l 285 0 l 285 323 b 441 529 285 461 337 529 b 556 387 513 529 556 477 z "},"ю":{"ha":814,"x_min":0,"x_max":0,"o":"m 526 -14 b 762 353 692 -14 762 96 b 526 732 762 619 692 732 b 304 416 382 732 314 637 l 208 416 l 208 719 l 75 719 l 75 0 l 208 0 l 208 298 l 304 298 b 526 -14 313 80 380 -14 z m 519 111 b 418 353 448 111 418 183 b 519 608 418 532 448 608 b 620 353 589 608 620 532 b 519 111 620 183 589 111 z "},"я":{"ha":814,"x_min":0,"x_max":0,"o":"m 323 305 l 359 305 l 359 286 l 346 286 b 216 222 279 286 244 264 l 182 172 b 108 125 161 141 144 125 l 85 125 l 85 -3 l 128 -3 b 330 134 243 -3 281 40 l 359 189 b 483 244 380 227 395 244 l 553 244 l 553 0 l 696 0 l 696 719 l 378 719 b 105 503 204 719 105 640 b 323 305 105 377 184 305 z m 553 373 l 378 373 b 254 478 299 373 254 411 b 378 590 254 549 299 590 l 553 590 z "},"ђ":{"ha":814,"x_min":0,"x_max":0,"o":"m 141 0 l 285 0 l 285 323 b 441 529 285 461 337 529 b 556 387 513 529 556 477 l 556 -5 b 437 -186 556 -123 520 -178 l 342 -198 l 349 -326 l 423 -317 b 700 16 616 -304 700 -208 l 700 387 b 475 651 700 555 618 651 b 298 507 363 651 306 604 l 285 507 l 285 777 l 522 777 l 522 895 l 285 895 l 285 1017 l 141 1017 l 141 895 l 0 895 l 0 777 l 141 777 z "},"ғ":{"ha":814,"x_min":0,"x_max":0,"o":"m 38 287 l 180 287 l 180 0 l 324 0 l 324 287 l 500 287 l 500 405 l 324 405 l 324 590 l 692 590 l 692 719 l 180 719 l 180 405 l 38 405 z "},"җ":{"ha":814,"x_min":0,"x_max":0,"o":"m 32 -3 l 81 -3 b 233 130 179 -3 233 37 l 233 239 l 233 240 b 326 300 233 288 233 300 l 326 0 l 434 0 l 434 300 b 526 240 526 300 526 288 l 526 239 l 526 130 b 655 -3 526 44 572 3 l 655 -183 l 791 -183 l 791 129 l 685 129 b 652 172 668 129 652 142 l 652 253 b 540 349 652 311 602 344 l 514 351 l 514 368 l 540 370 b 652 466 602 375 652 408 l 652 550 b 685 593 652 581 668 593 l 728 593 l 728 722 l 678 722 b 526 589 581 722 526 682 l 526 480 l 526 479 b 434 418 526 431 526 418 l 434 719 l 326 719 l 326 418 b 233 479 233 418 233 431 l 233 480 l 233 589 b 81 722 233 682 179 722 l 32 722 l 32 593 l 75 593 b 108 550 92 593 108 581 l 108 466 b 220 370 108 408 157 375 l 245 368 l 245 351 l 220 349 b 108 253 157 344 108 311 l 108 169 b 75 125 108 138 92 125 l 32 125 z "},"қ":{"ha":814,"x_min":0,"x_max":0,"o":"m 107 0 l 251 0 l 251 295 l 353 295 b 443 239 411 295 427 278 l 490 123 b 648 -3 527 31 566 3 l 648 -183 l 784 -183 l 784 125 l 699 125 b 638 162 665 125 651 132 l 591 273 b 448 350 568 325 521 350 l 440 350 l 440 369 l 441 369 b 577 446 514 369 555 394 l 625 557 b 685 593 637 587 652 593 l 714 593 l 714 722 l 675 722 b 490 595 568 722 532 700 l 443 479 b 353 424 427 441 411 424 l 251 424 l 251 719 l 107 719 z "},"ң":{"ha":814,"x_min":0,"x_max":0,"o":"m 655 -183 l 791 -183 l 791 129 l 700 129 l 700 719 l 556 719 l 556 418 l 258 418 l 258 719 l 114 719 l 114 0 l 258 0 l 258 300 l 556 300 l 556 0 l 655 0 z "},"ү":{"ha":814,"x_min":0,"x_max":0,"o":"m 335 -312 l 479 -312 l 479 9 l 760 719 l 606 719 l 407 167 l 208 719 l 54 719 l 335 9 z "},"ұ":{"ha":814,"x_min":0,"x_max":0,"o":"m 146 -118 l 335 -118 l 335 -312 l 479 -312 l 479 -118 l 669 -118 l 669 0 l 479 0 l 479 9 l 760 719 l 606 719 l 407 167 l 208 719 l 54 719 l 335 9 l 335 0 l 146 0 z "},"ҳ":{"ha":814,"x_min":0,"x_max":0,"o":"m 648 -183 l 784 -183 l 784 129 l 649 129 l 481 361 l 742 719 l 579 719 l 407 467 l 235 719 l 72 719 l 329 355 l 72 0 l 235 0 l 404 250 l 579 0 l 648 0 z "},"ҷ":{"ha":814,"x_min":0,"x_max":0,"o":"m 642 -183 l 777 -183 l 777 129 l 693 129 l 693 719 l 549 719 l 549 376 l 373 376 b 224 549 273 376 224 433 l 224 719 l 80 719 l 80 549 b 359 258 80 355 172 258 l 549 258 l 549 0 l 642 0 z "},"һ":{"ha":814,"x_min":0,"x_max":0,"o":"m 556 0 l 700 0 l 700 468 b 461 732 700 636 613 732 b 271 589 340 732 279 685 l 258 589 l 258 1017 l 114 1017 l 114 0 l 258 0 l 258 404 b 427 610 258 543 315 610 b 556 468 509 610 556 559 z "},"ӏ":{"ha":814,"x_min":0,"x_max":0,"o":"m 109 0 l 747 0 l 747 118 l 526 118 l 526 719 l 149 719 l 149 601 l 382 601 l 382 118 l 109 118 z "},"ә":{"ha":814,"x_min":0,"x_max":0,"o":"m 397 -14 b 722 358 604 -14 722 123 b 338 732 722 600 583 732 b 127 700 283 732 213 728 l 145 581 b 321 606 205 597 262 606 b 582 423 466 606 557 543 l 96 423 b 92 331 94 395 92 365 b 397 -14 92 107 203 -14 z m 587 313 b 396 113 576 185 507 113 b 222 313 288 113 222 184 z "},"ӣ":{"ha":814,"x_min":0,"x_max":0,"o":"m 114 0 l 261 0 l 543 522 l 556 522 l 556 0 l 700 0 l 700 719 l 553 719 l 271 197 l 258 197 l 258 719 l 114 719 z m 115 846 l 699 846 l 699 974 l 115 974 z "},"ө":{"ha":814,"x_min":0,"x_max":0,"o":"m 407 -14 b 722 359 606 -14 722 122 b 407 732 722 597 606 732 b 92 359 208 732 92 597 b 407 -14 92 122 208 -14 z m 407 115 b 244 304 314 115 257 183 l 570 304 b 407 115 557 183 500 115 z m 244 414 b 407 604 257 536 314 604 b 570 414 500 604 557 536 z "},"ӯ":{"ha":814,"x_min":0,"x_max":0,"o":"m 51 -326 l 173 -312 b 549 64 366 -290 467 -194 l 756 719 l 607 719 l 431 109 l 421 109 l 186 719 l 37 719 l 323 0 l 393 0 b 157 -183 342 -119 271 -170 l 44 -197 z m 125 846 l 709 846 l 709 974 l 125 974 z "},"Α":{"ha":814,"x_min":0,"x_max":0,"o":"m 31 0 l 173 0 l 236 235 l 578 235 l 641 0 l 783 0 l 505 963 l 309 963 z m 271 363 l 401 846 l 413 846 l 543 363 z "},"Β":{"ha":814,"x_min":0,"x_max":0,"o":"m 109 0 l 477 0 b 769 264 663 0 769 96 b 471 506 769 416 661 503 l 471 514 b 701 719 618 530 701 602 b 395 963 701 875 590 963 l 109 963 z m 244 129 l 244 444 l 429 444 b 627 285 555 444 627 386 b 438 129 627 186 557 129 z m 244 573 l 244 834 l 388 834 b 559 705 497 834 559 788 b 397 573 559 621 500 573 z "},"Γ":{"ha":814,"x_min":0,"x_max":0,"o":"m 122 0 l 258 0 l 258 834 l 739 834 l 739 963 l 122 963 z "},"Δ":{"ha":814,"x_min":0,"x_max":0,"o":"m 31 0 l 783 0 l 505 963 l 309 963 z m 208 129 l 401 846 l 413 846 l 606 129 z "},"Ε":{"ha":814,"x_min":0,"x_max":0,"o":"m 109 0 l 746 0 l 746 129 l 244 129 l 244 418 l 624 418 l 624 547 l 244 547 l 244 834 l 746 834 l 746 963 l 109 963 z "},"Ζ":{"ha":814,"x_min":0,"x_max":0,"o":"m 102 0 l 726 0 l 726 129 l 258 129 l 712 834 l 712 963 l 102 963 l 102 834 l 552 834 l 102 129 z "},"Η":{"ha":814,"x_min":0,"x_max":0,"o":"m 583 0 l 719 0 l 719 963 l 583 963 l 583 544 l 231 544 l 231 963 l 95 963 l 95 0 l 231 0 l 231 415 l 583 415 z "},"Θ":{"ha":814,"x_min":0,"x_max":0,"o":"m 407 -14 b 762 475 643 -14 762 148 b 407 977 762 810 643 977 b 52 475 171 977 52 810 b 407 -14 52 148 171 -14 z m 407 111 b 195 418 277 111 206 213 l 618 418 b 407 111 608 213 537 111 z m 196 545 b 407 852 209 750 279 852 b 618 545 535 852 605 750 z "},"Ι":{"ha":814,"x_min":0,"x_max":0,"o":"m 114 0 l 700 0 l 700 129 l 474 129 l 474 834 l 700 834 l 700 963 l 114 963 l 114 834 l 338 834 l 338 129 l 114 129 z "},"Κ":{"ha":814,"x_min":0,"x_max":0,"o":"m 102 0 l 237 0 l 237 309 b 433 367 310 315 375 336 l 624 0 l 788 0 l 548 452 b 742 963 673 576 742 764 l 602 963 b 237 442 602 710 489 465 l 237 963 l 102 963 z "},"Λ":{"ha":814,"x_min":0,"x_max":0,"o":"m 31 0 l 180 0 l 401 846 l 413 846 l 634 0 l 783 0 l 505 963 l 309 963 z "},"Μ":{"ha":814,"x_min":0,"x_max":0,"o":"m 87 0 l 217 0 l 217 792 l 235 792 l 345 393 l 469 393 l 579 792 l 597 792 l 597 0 l 727 0 l 727 963 l 522 963 l 412 549 l 401 549 l 292 963 l 87 963 z "},"Ν":{"ha":814,"x_min":0,"x_max":0,"o":"m 543 0 l 713 0 l 713 963 l 583 963 l 583 231 l 570 231 l 271 963 l 100 963 l 100 0 l 231 0 l 231 732 l 244 732 z "},"Ξ":{"ha":814,"x_min":0,"x_max":0,"o":"m 68 0 l 746 0 l 746 129 l 68 129 z m 68 834 l 746 834 l 746 963 l 68 963 z m 129 418 l 685 418 l 685 547 l 129 547 z "},"Ο":{"ha":814,"x_min":0,"x_max":0,"o":"m 407 -14 b 762 475 643 -14 762 148 b 407 977 762 810 643 977 b 52 475 171 977 52 810 b 407 -14 52 148 171 -14 z m 407 111 b 194 475 265 111 194 232 b 407 852 194 727 265 852 b 620 475 549 852 620 727 b 407 111 620 232 549 111 z "},"Π":{"ha":814,"x_min":0,"x_max":0,"o":"m 583 0 l 719 0 l 719 963 l 95 963 l 95 0 l 231 0 l 231 834 l 583 834 z "},"Ρ":{"ha":814,"x_min":0,"x_max":0,"o":"m 109 0 l 244 0 l 244 298 l 392 298 b 760 644 633 298 760 417 b 392 963 760 854 633 963 l 109 963 z m 244 427 l 244 834 l 392 834 b 617 644 540 834 617 769 b 392 427 617 502 540 427 z "},"Σ":{"ha":814,"x_min":0,"x_max":0,"o":"m 102 0 l 726 0 l 726 119 l 270 119 l 574 484 l 286 834 l 712 834 l 712 963 l 102 963 l 102 834 l 401 484 l 102 119 z "},"Τ":{"ha":814,"x_min":0,"x_max":0,"o":"m 339 0 l 475 0 l 475 834 l 760 834 l 760 963 l 54 963 l 54 834 l 339 834 z "},"Υ":{"ha":814,"x_min":0,"x_max":0,"o":"m 339 0 l 475 0 l 475 341 l 797 963 l 648 963 l 413 481 l 401 481 l 166 963 l 17 963 l 339 341 z "},"Φ":{"ha":814,"x_min":0,"x_max":0,"o":"m 349 -14 l 464 -14 l 464 98 b 769 481 667 117 769 243 b 464 879 769 727 667 859 l 464 990 l 349 990 l 349 879 b 45 481 146 859 45 726 b 349 98 45 244 146 117 z m 457 766 b 633 481 575 747 633 652 b 457 210 633 319 575 229 z m 355 210 b 180 481 239 230 180 320 b 355 766 180 652 239 746 z "},"Χ":{"ha":814,"x_min":0,"x_max":0,"o":"m 614 0 l 770 0 l 475 477 l 770 963 l 614 963 l 407 594 l 200 963 l 44 963 l 339 477 l 44 0 l 200 0 l 407 361 z "},"Ψ":{"ha":814,"x_min":0,"x_max":0,"o":"m 338 342 b 187 576 237 365 187 443 l 187 963 l 52 963 l 52 576 b 338 214 52 356 148 236 l 338 0 l 474 0 l 474 214 b 762 576 665 235 762 355 l 762 963 l 627 963 l 627 576 b 474 342 627 442 576 364 l 474 963 l 338 963 z "},"Ω":{"ha":814,"x_min":0,"x_max":0,"o":"m 71 0 l 359 0 l 359 126 b 194 515 249 166 194 296 b 407 852 194 741 264 852 b 620 515 549 852 620 741 b 471 126 620 292 570 162 l 471 0 l 743 0 l 743 126 l 593 126 l 593 140 b 762 515 706 161 762 286 b 407 977 762 824 644 977 b 52 515 170 977 52 824 b 237 138 52 290 113 164 l 237 126 l 71 126 z "},"Ά":{"ha":814,"x_min":0,"x_max":0,"o":"m 166 0 l 309 0 l 353 235 l 597 235 l 641 0 l 783 0 l 573 963 l 376 963 z m 377 363 l 469 846 l 481 846 l 572 363 z m -1 705 l 130 705 l 204 963 l 60 963 z "},"Έ":{"ha":814,"x_min":0,"x_max":0,"o":"m 244 0 l 746 0 l 746 129 l 380 129 l 380 418 l 624 418 l 624 547 l 380 547 l 380 834 l 746 834 l 746 963 l 244 963 z m -1 705 l 130 705 l 204 963 l 60 963 z "},"Ή":{"ha":814,"x_min":0,"x_max":0,"o":"m 583 0 l 719 0 l 719 963 l 583 963 l 583 544 l 366 544 l 366 963 l 231 963 l 231 0 l 366 0 l 366 415 l 583 415 z m -1 705 l 130 705 l 204 963 l 60 963 z "},"Ί":{"ha":814,"x_min":0,"x_max":0,"o":"m 250 0 l 700 0 l 700 129 l 542 129 l 542 834 l 700 834 l 700 963 l 250 963 l 250 834 l 406 834 l 406 129 l 250 129 z m -1 705 l 130 705 l 204 963 l 60 963 z "}}}
